<?xml version="1.0" encoding="UTF-8" standalone="no"?>
<!-- Created with Inkscape (http://www.inkscape.org/) -->

<svg
   xmlns:dc="http://purl.org/dc/elements/1.1/"
   xmlns:cc="http://creativecommons.org/ns#"
   xmlns:rdf="http://www.w3.org/1999/02/22-rdf-syntax-ns#"
   xmlns:svg="http://www.w3.org/2000/svg"
   xmlns="http://www.w3.org/2000/svg"
   xmlns:xlink="http://www.w3.org/1999/xlink"
   xmlns:sodipodi="http://sodipodi.sourceforge.net/DTD/sodipodi-0.dtd"
   xmlns:inkscape="http://www.inkscape.org/namespaces/inkscape"
   width="204.9567mm"
   height="51.601875mm"
   viewBox="0 0 726.22454 182.84129"
   id="svg2"
   version="1.1"
   inkscape:version="0.91 r13725"
   sodipodi:docname="title_original.svg">
  <defs
     id="defs4">
    <linearGradient
       inkscape:collect="always"
       id="linearGradient4254">
      <stop
         style="stop-color:#ffffff;stop-opacity:1"
         offset="0"
         id="stop4256" />
      <stop
         style="stop-color:#f2ffff;stop-opacity:1"
         offset="1"
         id="stop4258" />
    </linearGradient>
    <linearGradient
       id="linearGradient4134"
       inkscape:collect="always">
      <stop
         id="stop4136"
         offset="0"
         style="stop-color:#1250ff;stop-opacity:1;" />
      <stop
         id="stop4138"
         offset="1"
         style="stop-color:#125078;stop-opacity:1" />
    </linearGradient>
    <radialGradient
       gradientUnits="userSpaceOnUse"
       r="32"
       fy="526.966"
       fx="319.32504"
       cy="526.966"
       cx="319.32504"
       id="radialGradient4140"
       xlink:href="#linearGradient4134"
       inkscape:collect="always" />
    <radialGradient
       inkscape:collect="always"
       xlink:href="#linearGradient4254"
       id="radialGradient4260"
       cx="499.50437"
       cy="541.91282"
       fx="499.50437"
       fy="541.91282"
       r="318.47026"
       gradientTransform="matrix(1,0,0,0.32730112,0,364.54415)"
       gradientUnits="userSpaceOnUse" />
  </defs>
  <sodipodi:namedview
     id="base"
     pagecolor="#ffffff"
     bordercolor="#666666"
     borderopacity="1.0"
     inkscape:pageopacity="0.0"
     inkscape:pageshadow="2"
     inkscape:zoom="0.98994949"
     inkscape:cx="357.59712"
     inkscape:cy="71.286832"
     inkscape:document-units="px"
     inkscape:current-layer="text4149"
     showgrid="false"
     fit-margin-top="0"
     fit-margin-left="0"
     fit-margin-right="0"
     fit-margin-bottom="0"
     inkscape:window-width="1440"
     inkscape:window-height="798"
     inkscape:window-x="0"
     inkscape:window-y="1"
     inkscape:window-maximized="1" />
  <metadata
     id="metadata7">
    <rdf:RDF>
      <cc:Work
         rdf:about="">
        <dc:format>image/svg+xml</dc:format>
        <dc:type
           rdf:resource="http://purl.org/dc/dcmitype/StillImage" />
        <dc:title />
      </cc:Work>
    </rdf:RDF>
  </metadata>
  <g
     inkscape:label="Layer 1"
     inkscape:groupmode="layer"
     id="layer1"
     transform="translate(-206.41082,-383.86793)">
    <g
       transform="scale(1.1401764,0.87705725)"
       style="font-style:normal;font-variant:normal;font-weight:normal;font-stretch:normal;font-size:106.43896484px;line-height:125%;font-family:'slumber\'s weight';-inkscape-font-specification:'slumber\'s weight';text-align:start;letter-spacing:0px;word-spacing:0px;writing-mode:lr-tb;text-anchor:start;fill:#5a00a0;fill-opacity:1;stroke:none;stroke-width:1px;stroke-linecap:butt;stroke-linejoin:miter;stroke-opacity:1"
       id="text4136">
      <path
         style="opacity:1;fill:url(#radialGradient4260);fill-opacity:1;stroke:#787896;stroke-width:12.74873447;stroke-miterlimit:4;stroke-dasharray:none;stroke-dashoffset:0;stroke-opacity:1"
         d="m 290.42861,444.05152 c -16.79367,0 -30.31455,16.94565 -30.31455,37.9961 l 0,17.33697 c -23.37744,1.1849 -72.70558,28.13078 -72.70558,42.52823 0,14.39747 49.32814,41.33923 72.70558,42.52415 l 0,17.33695 c 0,21.05046 13.52088,38.00021 30.31455,38.00021 l 417.68837,0 c 16.79369,0 30.31457,-16.94975 30.31457,-38.00021 l 0,-17.31646 c 23.18056,-0.84362 73.16871,-28.05074 73.16871,-42.54464 0,-14.49389 -49.98815,-41.70511 -73.16871,-42.54874 l 0,-17.31646 c 0,-21.05045 -13.52088,-37.9961 -30.31457,-37.9961 l -417.68837,0 z"
         id="rect4590"
         inkscape:connector-curvature="0" />
      <g
         transform="matrix(1.3602474,0,0,1.7683247,4.3994152,-389.00249)"
         id="layer1-2"
         inkscape:label="Layer 1">
        <circle
           r="32"
           cy="526.966"
           cx="319.32504"
           id="path4136-4"
           style="opacity:1;fill:url(#radialGradient4140);fill-opacity:1;stroke:none;stroke-width:1.26300001;stroke-miterlimit:4;stroke-dasharray:none;stroke-dashoffset:0;stroke-opacity:1" />
      </g>
      <g
         transform="scale(0.89871596,1.1126986)"
         style="font-style:normal;font-variant:normal;font-weight:normal;font-stretch:normal;font-size:136.04048157px;line-height:125%;font-family:moderna;-inkscape-font-specification:'moderna, Normal';text-align:start;letter-spacing:0px;word-spacing:0px;writing-mode:lr-tb;text-anchor:start;fill:#000000;fill-opacity:1;stroke:none;stroke-width:1px;stroke-linecap:butt;stroke-linejoin:miter;stroke-opacity:1"
         id="text4149">
        <path
           d="m 385.07035,534.58676 q -2.85632,0.39855 -5.24766,-1.12925 -2.32491,-1.52779 -2.78989,-4.11841 -0.46498,-2.65704 1.2621,-4.71625 1.72707,-2.12563 4.64982,-2.52419 16.54008,-1.59422 23.2491,-10.16318 7.24044,-9.16679 7.24044,-23.2491 l 0,-3.3213 q 0,-14.08232 -9.9639,-24.04622 -9.6982,-9.6982 -23.04983,-9.6982 l -9.16679,0 0,77.12061 q 0,2.65704 -2.05921,4.51697 -2.12563,1.85992 -5.04838,1.85992 -2.92274,0 -4.98195,-1.85992 -2.0592,-1.85993 -2.0592,-4.51697 l 0,-83.43108 q 0,-2.65704 2.0592,-4.51697 2.05921,-1.85993 4.98195,-1.85993 l 16.27438,0 q 19.6621,0 33.54514,13.88304 13.5509,13.61733 13.5509,32.54875 l 0,3.3213 q 0,18.00145 -9.83105,30.55597 -10.16318,12.95307 -32.61517,15.34441 z"
           style="font-style:normal;font-variant:normal;font-weight:600;font-stretch:normal;font-family:'Quesat Demi Bold Demo';-inkscape-font-specification:'Quesat Demi Bold Demo Semi-Bold';fill:#640064;fill-opacity:1"
           id="path4154"
           inkscape:connector-curvature="0" />
        <path
           d="m 578.69657,534.58676 q -2.85632,0.39855 -5.24766,-1.12925 -2.32491,-1.52779 -2.78989,-4.11841 -0.46498,-2.65704 1.26209,-4.71625 1.72708,-2.12563 4.64983,-2.52419 16.54007,-1.59422 23.2491,-10.16318 7.24044,-9.16679 7.24044,-23.2491 l 0,-3.3213 q 0,-14.08232 -9.96391,-24.04622 -9.69819,-9.6982 -23.04982,-9.6982 l -9.16679,0 0,77.12061 q 0,2.65704 -2.05921,4.51697 -2.12563,1.85992 -5.04838,1.85992 -2.92274,0 -4.98195,-1.85992 -2.0592,-1.85993 -2.0592,-4.51697 l 0,-83.43108 q 0,-2.65704 2.0592,-4.51697 2.05921,-1.85993 4.98195,-1.85993 l 16.27438,0 q 19.6621,0 33.54514,13.88304 13.5509,13.61733 13.5509,32.54875 l 0,3.3213 q 0,18.00145 -9.83105,30.55597 -10.16318,12.95307 -32.61517,15.34441 z"
           style="font-style:normal;font-variant:normal;font-weight:600;font-stretch:normal;font-family:'Quesat Demi Bold Demo';-inkscape-font-specification:'Quesat Demi Bold Demo Semi-Bold';fill:#640064;fill-opacity:1"
           id="path4158"
           inkscape:connector-curvature="0" />
        <path
           d="m 689.09662,438.93329 q 2.92274,0 4.98195,1.85993 2.05921,1.85993 2.05921,4.51697 0,2.59061 -2.05921,4.45054 -2.05921,1.85993 -4.98195,1.85993 l -13.81661,0 q -13.35163,0 -23.04983,9.6982 -9.89748,9.9639 -9.89748,24.04622 l 0,3.3213 q 0,14.08231 9.89748,24.04622 9.6982,9.63177 23.04983,9.63177 l 10.89386,0 0,-35.33864 q 0,-2.65704 2.05921,-4.51697 2.05921,-1.85993 5.04838,-1.85993 2.92274,0 4.98195,1.85993 2.0592,1.85993 2.0592,4.51697 l 0,41.71554 q 0,2.65704 -2.0592,4.51697 -2.05921,1.85992 -4.98195,1.85992 l -18.00145,0 q -19.59568,0 -33.47872,-13.88303 -13.61733,-13.61734 -13.61733,-32.54875 l 0,-3.3213 q 0,-18.93142 13.61733,-32.54875 13.88304,-13.88304 33.47872,-13.88304 l 13.81661,0 z"
           style="font-style:normal;font-variant:normal;font-weight:600;font-stretch:normal;font-family:'Quesat Demi Bold Demo';-inkscape-font-specification:'Quesat Demi Bold Demo Semi-Bold';fill:#640064;fill-opacity:1"
           id="path4160"
           inkscape:connector-curvature="0" />
        <path
           d="m 762.16522,438.93329 q 2.92274,0 4.98195,1.85993 2.12563,1.85993 2.12563,4.51697 0,2.59061 -2.12563,4.45054 -2.05921,1.85993 -4.98195,1.85993 l -35.80362,0 0,70.74371 35.80362,0 q 2.92274,0 4.98195,1.85993 2.12563,1.85993 2.12563,4.51697 0,2.65704 -2.12563,4.51697 -2.05921,1.85992 -4.98195,1.85992 l -42.84478,0 q -2.78989,0 -4.8491,-1.7935 -2.19206,-1.85993 -2.19206,-4.58339 l 0,-82.89967 q 0,-2.98917 2.05921,-4.98195 2.0592,-1.92636 4.98195,-1.92636 l 42.84478,0 z m -26.17185,54.46934 q -2.92275,0 -4.98195,-1.85993 -2.05921,-1.85993 -2.05921,-4.51697 0,-2.65704 2.05921,-4.51697 2.0592,-1.85993 4.98195,-1.85993 l 24.11264,0 q 2.92275,0 4.98195,1.85993 2.05921,1.85993 2.05921,4.51697 0,2.65704 -2.05921,4.51697 -2.0592,1.85993 -4.98195,1.85993 l -24.11264,0 z"
           style="font-style:normal;font-variant:normal;font-weight:600;font-stretch:normal;font-family:'Quesat Demi Bold Demo';-inkscape-font-specification:'Quesat Demi Bold Demo Semi-Bold';fill:#640064;fill-opacity:1"
           id="path4162"
           inkscape:connector-curvature="0" />
      </g>
    </g>
  </g>
</svg>
