<?xml version="1.0" encoding="UTF-8" standalone="no"?>
<!-- Created with Inkscape (http://www.inkscape.org/) -->

<svg
   xmlns:dc="http://purl.org/dc/elements/1.1/"
   xmlns:cc="http://creativecommons.org/ns#"
   xmlns:rdf="http://www.w3.org/1999/02/22-rdf-syntax-ns#"
   xmlns:svg="http://www.w3.org/2000/svg"
   xmlns="http://www.w3.org/2000/svg"
   xmlns:sodipodi="http://sodipodi.sourceforge.net/DTD/sodipodi-0.dtd"
   xmlns:inkscape="http://www.inkscape.org/namespaces/inkscape"
   width="480"
   height="480"
   viewBox="0 0 480.00001 480.00001"
   id="svg2"
   version="1.1"
   inkscape:version="0.91 r13725"
   sodipodi:docname="ending.svg">
  <defs
     id="defs4" />
  <sodipodi:namedview
     id="base"
     pagecolor="#ffffff"
     bordercolor="#666666"
     borderopacity="1.0"
     inkscape:pageopacity="0.0"
     inkscape:pageshadow="2"
     inkscape:zoom="0.9899495"
     inkscape:cx="97.650049"
     inkscape:cy="190.16106"
     inkscape:document-units="px"
     inkscape:current-layer="text4185"
     showgrid="false"
     units="px"
     inkscape:window-width="1440"
     inkscape:window-height="798"
     inkscape:window-x="0"
     inkscape:window-y="1"
     inkscape:window-maximized="1" />
  <metadata
     id="metadata7">
    <rdf:RDF>
      <cc:Work
         rdf:about="">
        <dc:format>image/svg+xml</dc:format>
        <dc:type
           rdf:resource="http://purl.org/dc/dcmitype/StillImage" />
        <dc:title />
      </cc:Work>
    </rdf:RDF>
  </metadata>
  <g
     inkscape:label="Layer 1"
     inkscape:groupmode="layer"
     id="layer1"
     transform="translate(0,-572.3621)">
    <g
       transform="translate(-215.16249,162.13203)"
       id="layer1-56"
       inkscape:label="Layer 1" />
    <g
       transform="translate(-215.16249,162.13203)"
       id="layer1-1"
       inkscape:label="Layer 1" />
    <g
       transform="matrix(1.3714286,0,0,1.3714286,214.57182,-701.62801)"
       id="layer1-0"
       inkscape:label="Layer 1"
       style="opacity:0.4">
      <path
         style="opacity:1;fill:#a0c8c8;fill-opacity:1;stroke:none;stroke-width:0;stroke-linejoin:miter;stroke-miterlimit:4;stroke-dasharray:none;stroke-opacity:1"
         d="m 85.267473,967.09467 c 1.57827,1.57827 -6.215742,19.66556 -5.272453,21.68844 0.943289,2.02289 19.808849,7.67862 20.003381,9.90214 0.194529,2.22355 -17.402311,11.06925 -17.979998,13.22525 -0.577687,2.156 10.238741,18.615 8.958512,20.4434 -1.280229,1.8283 -20.446146,-2.7064 -22.274502,-1.4262 -1.828357,1.2802 -4.122188,20.8413 -6.278146,21.419 -2.155957,0.5777 -13.923001,-15.2158 -16.146519,-15.4103 -2.223518,-0.1946 -16.554299,13.3156 -18.577188,12.3723 -2.02289,-0.9432 -0.88513,-20.6054 -2.463401,-22.1837 -1.57827,-1.5783 -21.2404694,-0.4405 -22.1837581,-2.4634 -0.9432888,-2.0229 12.5669031,-16.3537 12.3723711,-18.5772 -0.194533,-2.2235 -15.98798884,-13.99057 -15.41030177,-16.14653 0.57768706,-2.15595 20.13874277,-4.44979 21.41897277,-6.27814 1.280229,-1.82836 -3.25455,-20.99428 -1.426194,-22.2745 1.828357,-1.28023 18.287442,9.53619 20.443399,8.95851 2.155957,-0.57769 11.001729,-18.17453 13.225247,-17.98 2.223518,0.19453 7.879242,19.06009 9.902131,20.00338 2.022889,0.94329 20.110177,-6.85072 21.688447,-5.27245 z"
         id="path4155" />
    </g>
    <g
       style="opacity:0.6"
       inkscape:label="Layer 1"
       id="g4959"
       transform="matrix(0.82142861,0,0,0.82142861,73.532552,-78.898472)">
      <path
         style="opacity:1;fill:#a0c8c8;fill-opacity:1;stroke:none;stroke-width:0;stroke-linejoin:miter;stroke-miterlimit:4;stroke-dasharray:none;stroke-opacity:1"
         d="m 85.267473,967.09467 c 1.57827,1.57827 -6.215742,19.66556 -5.272453,21.68844 0.943289,2.02289 19.808849,7.67862 20.003381,9.90214 0.194529,2.22355 -17.402311,11.06925 -17.979998,13.22525 -0.577687,2.156 10.238741,18.615 8.958512,20.4434 -1.280229,1.8283 -20.446146,-2.7064 -22.274502,-1.4262 -1.828357,1.2802 -4.122188,20.8413 -6.278146,21.419 -2.155957,0.5777 -13.923001,-15.2158 -16.146519,-15.4103 -2.223518,-0.1946 -16.554299,13.3156 -18.577188,12.3723 -2.02289,-0.9432 -0.88513,-20.6054 -2.463401,-22.1837 -1.57827,-1.5783 -21.2404694,-0.4405 -22.1837581,-2.4634 -0.9432888,-2.0229 12.5669031,-16.3537 12.3723711,-18.5772 -0.194533,-2.2235 -15.98798884,-13.99057 -15.41030177,-16.14653 0.57768706,-2.15595 20.13874277,-4.44979 21.41897277,-6.27814 1.280229,-1.82836 -3.25455,-20.99428 -1.426194,-22.2745 1.828357,-1.28023 18.287442,9.53619 20.443399,8.95851 2.155957,-0.57769 11.001729,-18.17453 13.225247,-17.98 2.223518,0.19453 7.879242,19.06009 9.902131,20.00338 2.022889,0.94329 20.110177,-6.85072 21.688447,-5.27245 z"
         id="path4961" />
    </g>
    <g
       transform="matrix(2.05,0,0,2.05,262.45359,-1151.2544)"
       id="g4963"
       inkscape:label="Layer 1"
       style="opacity:0.26000001">
      <path
         style="opacity:1;fill:#a0c8c8;fill-opacity:1;stroke:none;stroke-width:0;stroke-linejoin:miter;stroke-miterlimit:4;stroke-dasharray:none;stroke-opacity:1"
         d="m 85.267473,967.09467 c 1.57827,1.57827 -6.215742,19.66556 -5.272453,21.68844 0.943289,2.02289 19.808849,7.67862 20.003381,9.90214 0.194529,2.22355 -17.402311,11.06925 -17.979998,13.22525 -0.577687,2.156 10.238741,18.615 8.958512,20.4434 -1.280229,1.8283 -20.446146,-2.7064 -22.274502,-1.4262 -1.828357,1.2802 -4.122188,20.8413 -6.278146,21.419 -2.155957,0.5777 -13.923001,-15.2158 -16.146519,-15.4103 -2.223518,-0.1946 -16.554299,13.3156 -18.577188,12.3723 -2.02289,-0.9432 -0.88513,-20.6054 -2.463401,-22.1837 -1.57827,-1.5783 -21.2404694,-0.4405 -22.1837581,-2.4634 -0.9432888,-2.0229 12.5669031,-16.3537 12.3723711,-18.5772 -0.194533,-2.2235 -15.98798884,-13.99057 -15.41030177,-16.14653 0.57768706,-2.15595 20.13874277,-4.44979 21.41897277,-6.27814 1.280229,-1.82836 -3.25455,-20.99428 -1.426194,-22.2745 1.828357,-1.28023 18.287442,9.53619 20.443399,8.95851 2.155957,-0.57769 11.001729,-18.17453 13.225247,-17.98 2.223518,0.19453 7.879242,19.06009 9.902131,20.00338 2.022889,0.94329 20.110177,-6.85072 21.688447,-5.27245 z"
         id="path4965" />
    </g>
    <g
       style="font-style:normal;font-variant:normal;font-weight:normal;font-stretch:normal;font-size:40px;line-height:125%;font-family:moderna;-inkscape-font-specification:'moderna, Normal';text-align:start;letter-spacing:0px;word-spacing:0px;writing-mode:lr-tb;text-anchor:start;fill:#000000;fill-opacity:1;stroke:none;stroke-width:1px;stroke-linecap:butt;stroke-linejoin:miter;stroke-opacity:1"
       id="text4185">
      <g
         style="font-style:normal;font-variant:normal;font-weight:normal;font-stretch:normal;font-size:27.50345039px;line-height:125%;font-family:moderna;-inkscape-font-specification:'moderna, Normal';text-align:start;letter-spacing:0px;word-spacing:0px;writing-mode:lr-tb;text-anchor:start;fill:#000000;fill-opacity:1;stroke:none;stroke-width:1px;stroke-linecap:butt;stroke-linejoin:miter;stroke-opacity:1"
         id="text4159">
        <path
           d="m 140.16968,733.15359 q 0.2865,0.14324 0.30082,0.40109 0.0286,0.25784 -0.14325,0.58731 -0.54434,1.04571 -1.2749,1.81924 -0.73056,0.77354 -1.61869,1.28923 -0.87381,0.51568 -1.87654,0.75921 -1.00273,0.25784 -2.07708,0.25784 -1.76194,0 -3.28036,-0.57299 -1.50409,-0.57299 -2.62142,-1.60437 -1.11733,-1.03138 -1.74762,-2.46385 -0.63028,-1.43247 -0.63028,-3.16576 l 0,-5.52934 q 0,-1.73329 0.63028,-3.19441 0.63029,-1.46112 1.74762,-2.50682 1.11733,-1.06003 2.62142,-1.64735 1.51842,-0.58731 3.28036,-0.58731 1.07435,0 2.07708,0.24352 1.00273,0.24352 1.87654,0.75921 0.88813,0.50136 1.61869,1.28922 0.74489,0.77354 1.30355,1.83357 0.18622,0.32947 0.14325,0.57299 -0.0286,0.24352 -0.20055,0.31514 l -2.23465,1.08868 q -0.21487,0.10027 -0.41542,0.0716 -0.20054,-0.043 -0.34379,-0.28649 -0.60164,-1.08868 -1.53274,-1.63302 -0.91679,-0.54434 -2.07709,-0.54434 -0.94543,0 -1.76194,0.32947 -0.81651,0.31514 -1.43247,0.90246 -0.60164,0.58731 -0.94543,1.40382 -0.34379,0.80218 -0.34379,1.76194 l 0,5.0423 q 0,0.97408 0.34379,1.79059 0.34379,0.81651 0.94543,1.40382 0.61596,0.57299 1.43247,0.90246 0.81651,0.31514 1.76194,0.31514 1.17463,0 2.12006,-0.53002 0.94543,-0.53001 1.48977,-1.67599 0.10027,-0.20054 0.27217,-0.30082 0.1719,-0.10027 0.45839,0.043 l 2.13438,1.06003 z"
           style="font-style:normal;font-variant:normal;font-weight:600;font-stretch:normal;font-family:'Cocogoose Narrow Trial';-inkscape-font-specification:'Cocogoose Narrow Trial Semi-Bold';text-align:center;text-anchor:middle"
           id="path4154" />
        <path
           d="m 142.61921,727.35208 q 0,-1.57572 0.57299,-2.93657 0.58731,-1.36085 1.59004,-2.36358 1.01706,-1.00273 2.3779,-1.57571 1.37518,-0.57299 2.95089,-0.57299 1.59005,0 2.96522,0.57299 1.37517,0.57298 2.39223,1.57571 1.01705,1.00273 1.59004,2.36358 0.58731,1.36085 0.58731,2.93657 l 0,3.50955 q 0,1.5614 -0.58731,2.92224 -0.57299,1.34653 -1.59004,2.34926 -1.01706,0.9884 -2.39223,1.56139 -1.36085,0.57299 -2.95089,0.57299 -1.59004,0 -2.96522,-0.57299 -1.36084,-0.57299 -2.3779,-1.56139 -1.00273,-1.00273 -1.59004,-2.34926 -0.57299,-1.36084 -0.57299,-2.92224 l 0,-3.50955 z m 3.86767,3.58118 q 0,0.81651 0.27217,1.50409 0.27217,0.68759 0.75921,1.18895 0.48704,0.50137 1.14598,0.78786 0.67326,0.2865 1.47544,0.2865 0.78786,0 1.46112,-0.2865 0.67327,-0.28649 1.16031,-0.78786 0.50136,-0.50136 0.77353,-1.18895 0.27217,-0.68758 0.27217,-1.48977 l 0,-3.7101 q 0,-0.81651 -0.27217,-1.50409 -0.27217,-0.68759 -0.77353,-1.18896 -0.48704,-0.51569 -1.16031,-0.80218 -0.67326,-0.28649 -1.46112,-0.28649 -0.80218,0 -1.47544,0.28649 -0.65894,0.28649 -1.14598,0.80218 -0.48704,0.50137 -0.75921,1.18896 -0.27217,0.68758 -0.27217,1.50409 l 0,3.69578 z"
           style="font-style:normal;font-variant:normal;font-weight:600;font-stretch:normal;font-family:'Cocogoose Narrow Trial';-inkscape-font-specification:'Cocogoose Narrow Trial Semi-Bold';text-align:center;text-anchor:middle"
           id="path4156" />
        <path
           d="m 172.16751,727.09423 q 0,-0.73056 -0.27217,-1.38949 -0.27217,-0.67327 -0.73056,-1.16031 -0.45839,-0.50136 -1.07435,-0.78786 -0.60164,-0.30081 -1.28922,-0.30081 -0.65894,0 -1.28923,0.25784 -0.63029,0.25785 -1.13165,0.71624 -0.48704,0.45839 -0.80219,1.08867 -0.31514,0.61597 -0.34379,1.34653 l 0,10.38542 q 0,0.28649 -0.25784,0.44406 -0.24352,0.14325 -0.50137,0.14325 l -2.67872,0 q -0.55866,0 -0.55866,-0.58731 l 0,-16.37315 q 0,-0.58732 0.55866,-0.58732 l 1.99114,0 q 0.28649,0 0.48704,0.12893 0.21487,0.12892 0.30081,0.55866 l 0.2865,1.71897 q 0.73056,-1.2749 1.91951,-2.03411 1.20328,-0.75921 2.93657,-0.75921 1.08868,0 2.22033,0.47271 1.14597,0.47272 2.07708,1.3895 0.94543,0.90246 1.54707,2.22033 0.60164,1.31787 0.60164,3.00819 l 0,10.27082 q 0,0.57299 -0.53002,0.57299 l -2.92224,0 q -0.54434,0 -0.54434,-0.57299 l 0,-10.17055 z"
           style="font-style:normal;font-variant:normal;font-weight:600;font-stretch:normal;font-family:'Cocogoose Narrow Trial';-inkscape-font-specification:'Cocogoose Narrow Trial Semi-Bold';text-align:center;text-anchor:middle"
           id="path4158" />
        <path
           d="m 194.61792,735.45987 q 0,2.2633 -0.64461,3.88199 -0.63029,1.6187 -1.71897,2.65008 -1.07435,1.03137 -2.50682,1.50409 -1.41815,0.48704 -2.97954,0.45839 -0.78786,-0.0143 -1.57572,-0.14325 -0.77354,-0.11459 -1.51842,-0.37244 -0.73056,-0.24352 -1.40382,-0.61596 -0.67326,-0.37244 -1.23193,-0.87381 -0.25784,-0.22919 -0.21487,-0.44406 0.0573,-0.20055 0.1719,-0.37245 l 1.3322,-1.51842 q 0.17189,-0.25784 0.41541,-0.28649 0.25785,-0.0143 0.51569,0.18622 0.80219,0.54434 1.66167,0.74489 0.87381,0.20054 1.77626,0.20054 0.93111,0 1.67599,-0.30082 0.75921,-0.30082 1.28923,-0.85948 0.53001,-0.54434 0.80218,-1.3322 0.2865,-0.78786 0.2865,-1.76194 l -0.0143,-0.84516 q -0.37244,0.55867 -0.81651,1.01706 -0.42974,0.45839 -0.94543,0.80218 -0.50136,0.32947 -1.08868,0.51569 -0.57298,0.18622 -1.2176,0.18622 -1.50409,0 -2.80764,-0.57299 -1.28922,-0.57298 -2.24898,-1.56139 -0.94543,-1.00273 -1.48977,-2.34925 -0.54434,-1.36085 -0.54434,-2.93657 l 0,-3.10846 q 0,-1.57572 0.54434,-2.93657 0.54434,-1.36085 1.48977,-2.36358 0.95976,-1.00273 2.24898,-1.57571 1.30355,-0.57299 2.80764,-0.57299 0.74489,0 1.3895,0.21487 0.65894,0.21487 1.2176,0.60164 0.57299,0.37244 1.03138,0.90245 0.47272,0.53002 0.84516,1.14598 l 0.30082,-1.89086 q 0.1146,-0.58732 0.73056,-0.58732 l 1.86221,0 q 0.57299,0 0.57299,0.58732 l 0,14.58256 z m -11.17328,-4.91338 q 0,0.81651 0.27217,1.50409 0.27217,0.68759 0.74489,1.18896 0.47271,0.50136 1.11733,0.78785 0.65893,0.2865 1.41814,0.2865 0.77354,0 1.4468,-0.27217 0.67326,-0.27217 1.17462,-0.74489 0.50137,-0.48704 0.80219,-1.14597 0.31514,-0.65894 0.34379,-1.43247 l 0,-3.63848 q -0.0286,-0.78786 -0.34379,-1.4468 -0.30082,-0.65893 -0.80219,-1.14597 -0.50136,-0.48704 -1.17462,-0.75921 -0.67326,-0.27217 -1.4468,-0.27217 -0.75921,0 -1.41814,0.28649 -0.64462,0.28649 -1.11733,0.80218 -0.47272,0.50137 -0.74489,1.18896 -0.27217,0.68758 -0.27217,1.50409 l 0,3.30901 z"
           style="font-style:normal;font-variant:normal;font-weight:600;font-stretch:normal;font-family:'Cocogoose Narrow Trial';-inkscape-font-specification:'Cocogoose Narrow Trial Semi-Bold';text-align:center;text-anchor:middle"
           id="path4160" />
        <path
           d="m 199.10871,720.87731 q 0,-0.58732 0.55867,-0.58732 l 1.94816,0 q 0.28649,0 0.50136,0.14325 0.2292,0.12892 0.31515,0.54434 l 0.30082,1.76194 q 0.32946,-0.57299 0.74488,-1.08868 0.41542,-0.51569 0.94543,-0.90245 0.53002,-0.38677 1.1603,-0.61597 0.63029,-0.22919 1.3895,-0.22919 0.64461,0 1.20328,0.11459 0.55866,0.10028 1.01705,0.27217 0.45839,0.15758 0.78786,0.3438 0.32947,0.17189 0.53002,0.31514 0.30081,0.2292 0.34379,0.50137 0.043,0.25784 -0.043,0.50136 l -0.58731,2.27763 q -0.043,0.12892 -0.15757,0.21487 -0.1146,0.086 -0.25785,0.1146 -0.14324,0.0143 -0.30081,0 -0.14325,-0.0286 -0.25785,-0.1146 -0.30082,-0.22919 -0.60164,-0.41542 -0.28649,-0.18622 -0.61596,-0.31514 -0.31514,-0.12892 -0.70191,-0.18622 -0.38677,-0.0716 -0.87381,-0.0716 -0.65894,0 -1.26057,0.21487 -0.60164,0.21487 -1.07436,0.65893 -0.45839,0.44407 -0.74488,1.11733 -0.27217,0.67326 -0.27217,1.59004 l 0,10.21353 q 0,0.28649 -0.18622,0.44406 -0.18622,0.14325 -0.45839,0.14325 l -2.79332,0 q -0.55867,0 -0.55867,-0.58731 l 0,-16.37315 z"
           style="font-style:normal;font-variant:normal;font-weight:600;font-stretch:normal;font-family:'Cocogoose Narrow Trial';-inkscape-font-specification:'Cocogoose Narrow Trial Semi-Bold';text-align:center;text-anchor:middle"
           id="path4162" />
        <path
           d="m 212.1836,727.35208 q 0,-1.57572 0.54434,-2.93657 0.54434,-1.36085 1.48977,-2.36358 0.95975,-1.00273 2.24898,-1.57571 1.30355,-0.57299 2.80764,-0.57299 0.74489,0 1.3895,0.21487 0.65894,0.21487 1.2176,0.60164 0.57299,0.37244 1.03138,0.90245 0.47272,0.53002 0.84516,1.14598 l 0.30082,-1.89086 q 0.11459,-0.58732 0.73056,-0.58732 l 1.86221,0 q 0.57299,0 0.57299,0.58732 l 0,16.37315 q 0,0.28649 -0.15757,0.44406 -0.14325,0.14325 -0.4011,0.14325 l -1.93383,0 q -0.25785,0 -0.44407,-0.14325 -0.18622,-0.15757 -0.22919,-0.44406 l -0.27217,-1.90519 q -0.37245,0.63029 -0.84516,1.17462 -0.45839,0.53002 -1.03138,0.91679 -0.55866,0.38676 -1.23193,0.60163 -0.65893,0.2292 -1.40382,0.2292 -1.50409,0 -2.80764,-0.57299 -1.28923,-0.57299 -2.24898,-1.56139 -0.94543,-1.00273 -1.48977,-2.34926 -0.54434,-1.36084 -0.54434,-2.92224 l 0,-3.50955 z m 3.86767,3.58118 q 0,0.81651 0.27217,1.50409 0.27217,0.68759 0.74489,1.18895 0.47271,0.50137 1.11732,0.78786 0.65894,0.2865 1.41815,0.2865 0.77354,0 1.4468,-0.27217 0.67326,-0.27217 1.17462,-0.74489 0.50137,-0.48704 0.80219,-1.14598 0.31514,-0.65893 0.34379,-1.43247 l 0,-4.02524 q -0.0286,-0.78786 -0.34379,-1.4468 -0.30082,-0.65893 -0.80219,-1.14597 -0.50136,-0.48704 -1.17462,-0.75921 -0.67326,-0.27217 -1.4468,-0.27217 -0.75921,0 -1.41815,0.28649 -0.64461,0.28649 -1.11732,0.80218 -0.47272,0.50137 -0.74489,1.18896 -0.27217,0.68758 -0.27217,1.50409 l 0,3.69578 z"
           style="font-style:normal;font-variant:normal;font-weight:600;font-stretch:normal;font-family:'Cocogoose Narrow Trial';-inkscape-font-specification:'Cocogoose Narrow Trial Semi-Bold';text-align:center;text-anchor:middle"
           id="path4164" />
        <path
           d="m 236.3852,723.97145 0,13.30765 q 0,0.55867 -0.53002,0.55867 l -2.97954,0 q -0.50136,0 -0.50136,-0.55867 l 0,-13.30765 -1.86221,0 q -0.2292,0 -0.38677,-0.12893 -0.14325,-0.12892 -0.14325,-0.37244 l 0,-2.69305 q 0,-0.24352 0.14325,-0.35811 0.15757,-0.12893 0.38677,-0.12893 l 1.86221,0 0,-2.72169 q 0,-0.2865 0.1146,-0.44407 0.11459,-0.15757 0.44406,-0.25784 l 2.59278,-0.85949 q 0.32946,-0.10027 0.58731,0.086 0.27217,0.1719 0.27217,0.61597 l 0,3.58117 2.56412,0 q 0.24352,0 0.38677,0.14325 0.14325,0.14325 0.14325,0.34379 l 0,2.69305 q 0,0.50137 -0.53002,0.50137 l -2.56412,0 z"
           style="font-style:normal;font-variant:normal;font-weight:600;font-stretch:normal;font-family:'Cocogoose Narrow Trial';-inkscape-font-specification:'Cocogoose Narrow Trial Semi-Bold';text-align:center;text-anchor:middle"
           id="path4166" />
        <path
           d="m 246.20479,731.21975 q 0.0286,0.71624 0.30082,1.36085 0.28649,0.63029 0.74488,1.103 0.4584,0.47272 1.04571,0.75921 0.60164,0.27217 1.2749,0.27217 0.65893,0 1.28922,-0.25784 0.63029,-0.25785 1.11733,-0.70191 0.50136,-0.4584 0.81651,-1.07436 0.31514,-0.63029 0.34379,-1.36085 l 0,-10.44271 q 0,-0.2865 0.24352,-0.42974 0.25785,-0.15758 0.51569,-0.15758 l 2.69305,0 q 0.54434,0 0.54434,0.58732 l 0,16.37315 q 0,0.58731 -0.55867,0.58731 l -1.97681,0 q -0.28649,0 -0.50136,-0.12892 -0.21487,-0.14325 -0.30082,-0.55867 l -0.2865,-1.67599 q -0.73056,1.28923 -1.93383,2.04843 -1.18895,0.74489 -2.92224,0.74489 -1.07436,0 -2.22033,-0.47272 -1.14598,-0.47271 -2.09141,-1.37517 -0.93111,-0.90246 -1.53275,-2.22033 -0.60163,-1.31787 -0.60163,-3.02251 l 0,-10.3138 q 0,-0.57299 0.54433,-0.57299 l 2.90792,0 q 0.54434,0 0.54434,0.57299 l 0,10.35677 z"
           style="font-style:normal;font-variant:normal;font-weight:600;font-stretch:normal;font-family:'Cocogoose Narrow Trial';-inkscape-font-specification:'Cocogoose Narrow Trial Semi-Bold';text-align:center;text-anchor:middle"
           id="path4168" />
        <path
           d="m 261.59312,715.74906 q 0,-0.57299 0.53002,-0.57299 l 2.95089,0 q 0.51569,0 0.51569,0.57299 l 0,21.51572 q 0,0.57299 -0.51569,0.57299 l -2.95089,0 q -0.53002,0 -0.53002,-0.57299 l 0,-21.51572 z"
           style="font-style:normal;font-variant:normal;font-weight:600;font-stretch:normal;font-family:'Cocogoose Narrow Trial';-inkscape-font-specification:'Cocogoose Narrow Trial Semi-Bold';text-align:center;text-anchor:middle"
           id="path4170" />
        <path
           d="m 269.12433,727.35208 q 0,-1.57572 0.54434,-2.93657 0.54434,-1.36085 1.48977,-2.36358 0.95976,-1.00273 2.24898,-1.57571 1.30355,-0.57299 2.80765,-0.57299 0.74488,0 1.38949,0.21487 0.65894,0.21487 1.21761,0.60164 0.57298,0.37244 1.03137,0.90245 0.47272,0.53002 0.84516,1.14598 l 0.30082,-1.89086 q 0.1146,-0.58732 0.73056,-0.58732 l 1.86221,0 q 0.57299,0 0.57299,0.58732 l 0,16.37315 q 0,0.28649 -0.15757,0.44406 -0.14325,0.14325 -0.40109,0.14325 l -1.93384,0 q -0.25784,0 -0.44406,-0.14325 -0.18622,-0.15757 -0.2292,-0.44406 l -0.27217,-1.90519 q -0.37244,0.63029 -0.84516,1.17462 -0.45839,0.53002 -1.03138,0.91679 -0.55866,0.38676 -1.23192,0.60163 -0.65894,0.2292 -1.40382,0.2292 -1.5041,0 -2.80765,-0.57299 -1.28922,-0.57299 -2.24898,-1.56139 -0.94543,-1.00273 -1.48977,-2.34926 -0.54434,-1.36084 -0.54434,-2.92224 l 0,-3.50955 z m 3.86768,3.58118 q 0,0.81651 0.27217,1.50409 0.27217,0.68759 0.74488,1.18895 0.47272,0.50137 1.11733,0.78786 0.65894,0.2865 1.41815,0.2865 0.77353,0 1.44679,-0.27217 0.67326,-0.27217 1.17463,-0.74489 0.50136,-0.48704 0.80218,-1.14598 0.31515,-0.65893 0.3438,-1.43247 l 0,-4.02524 q -0.0286,-0.78786 -0.3438,-1.4468 -0.30082,-0.65893 -0.80218,-1.14597 -0.50137,-0.48704 -1.17463,-0.75921 -0.67326,-0.27217 -1.44679,-0.27217 -0.75921,0 -1.41815,0.28649 -0.64461,0.28649 -1.11733,0.80218 -0.47271,0.50137 -0.74488,1.18896 -0.27217,0.68758 -0.27217,1.50409 l 0,3.69578 z"
           style="font-style:normal;font-variant:normal;font-weight:600;font-stretch:normal;font-family:'Cocogoose Narrow Trial';-inkscape-font-specification:'Cocogoose Narrow Trial Semi-Bold';text-align:center;text-anchor:middle"
           id="path4172" />
        <path
           d="m 293.32594,723.97145 0,13.30765 q 0,0.55867 -0.53001,0.55867 l -2.97954,0 q -0.50137,0 -0.50137,-0.55867 l 0,-13.30765 -1.86221,0 q -0.2292,0 -0.38677,-0.12893 -0.14325,-0.12892 -0.14325,-0.37244 l 0,-2.69305 q 0,-0.24352 0.14325,-0.35811 0.15757,-0.12893 0.38677,-0.12893 l 1.86221,0 0,-2.72169 q 0,-0.2865 0.1146,-0.44407 0.1146,-0.15757 0.44406,-0.25784 l 2.59278,-0.85949 q 0.32947,-0.10027 0.58731,0.086 0.27217,0.1719 0.27217,0.61597 l 0,3.58117 2.56412,0 q 0.24352,0 0.38677,0.14325 0.14325,0.14325 0.14325,0.34379 l 0,2.69305 q 0,0.50137 -0.53002,0.50137 l -2.56412,0 z"
           style="font-style:normal;font-variant:normal;font-weight:600;font-stretch:normal;font-family:'Cocogoose Narrow Trial';-inkscape-font-specification:'Cocogoose Narrow Trial Semi-Bold';text-align:center;text-anchor:middle"
           id="path4174" />
        <path
           d="m 299.29218,720.83433 q 0,-0.25784 0.15757,-0.40109 0.1719,-0.14325 0.38677,-0.14325 l 2.92224,0 q 0.24352,0 0.38677,0.15758 0.14324,0.15757 0.14324,0.40109 l 0,16.43044 q 0,0.55867 -0.53001,0.55867 l -2.92224,0 q -0.54434,0 -0.54434,-0.55867 l 0,-16.44477 z m -0.0716,-5.37176 q 0,-0.38677 0.18622,-0.64462 0.20055,-0.25784 0.70192,-0.25784 l 2.44952,0 q 0.44407,0 0.63029,0.24352 0.18622,0.24352 0.18622,0.65894 l 0,2.2633 q 0,0.47272 -0.21487,0.64461 -0.21487,0.1719 -0.60164,0.1719 l -2.44952,0 q -0.4011,0 -0.64462,-0.1719 -0.24352,-0.17189 -0.24352,-0.63028 l 0,-2.27763 z"
           style="font-style:normal;font-variant:normal;font-weight:600;font-stretch:normal;font-family:'Cocogoose Narrow Trial';-inkscape-font-specification:'Cocogoose Narrow Trial Semi-Bold';text-align:center;text-anchor:middle"
           id="path4176" />
        <path
           d="m 306.83414,727.35208 q 0,-1.57572 0.57299,-2.93657 0.58731,-1.36085 1.59004,-2.36358 1.01706,-1.00273 2.37791,-1.57571 1.37517,-0.57299 2.95089,-0.57299 1.59004,0 2.96521,0.57299 1.37518,0.57298 2.39223,1.57571 1.01706,1.00273 1.59004,2.36358 0.58732,1.36085 0.58732,2.93657 l 0,3.50955 q 0,1.5614 -0.58732,2.92224 -0.57298,1.34653 -1.59004,2.34926 -1.01705,0.9884 -2.39223,1.56139 -1.36084,0.57299 -2.95089,0.57299 -1.59004,0 -2.96521,-0.57299 -1.36085,-0.57299 -2.37791,-1.56139 -1.00273,-1.00273 -1.59004,-2.34926 -0.57299,-1.36084 -0.57299,-2.92224 l 0,-3.50955 z m 3.86767,3.58118 q 0,0.81651 0.27217,1.50409 0.27217,0.68759 0.75921,1.18895 0.48704,0.50137 1.14598,0.78786 0.67326,0.2865 1.47545,0.2865 0.78786,0 1.46112,-0.2865 0.67326,-0.28649 1.1603,-0.78786 0.50136,-0.50136 0.77353,-1.18895 0.27217,-0.68758 0.27217,-1.48977 l 0,-3.7101 q 0,-0.81651 -0.27217,-1.50409 -0.27217,-0.68759 -0.77353,-1.18896 -0.48704,-0.51569 -1.1603,-0.80218 -0.67326,-0.28649 -1.46112,-0.28649 -0.80219,0 -1.47545,0.28649 -0.65894,0.28649 -1.14598,0.80218 -0.48704,0.50137 -0.75921,1.18896 -0.27217,0.68758 -0.27217,1.50409 l 0,3.69578 z"
           style="font-style:normal;font-variant:normal;font-weight:600;font-stretch:normal;font-family:'Cocogoose Narrow Trial';-inkscape-font-specification:'Cocogoose Narrow Trial Semi-Bold';text-align:center;text-anchor:middle"
           id="path4178" />
        <path
           d="m 336.38244,727.09423 q 0,-0.73056 -0.27217,-1.38949 -0.27217,-0.67327 -0.73056,-1.16031 -0.45839,-0.50136 -1.07435,-0.78786 -0.60164,-0.30081 -1.28923,-0.30081 -0.65893,0 -1.28922,0.25784 -0.63029,0.25785 -1.13165,0.71624 -0.48704,0.45839 -0.80219,1.08867 -0.31514,0.61597 -0.34379,1.34653 l 0,10.38542 q 0,0.28649 -0.25785,0.44406 -0.24352,0.14325 -0.50136,0.14325 l -2.67872,0 q -0.55867,0 -0.55867,-0.58731 l 0,-16.37315 q 0,-0.58732 0.55867,-0.58732 l 1.99113,0 q 0.2865,0 0.48704,0.12893 0.21487,0.12892 0.30082,0.55866 l 0.2865,1.71897 q 0.73056,-1.2749 1.91951,-2.03411 1.20327,-0.75921 2.93656,-0.75921 1.08868,0 2.22034,0.47271 1.14597,0.47272 2.07708,1.3895 0.94543,0.90246 1.54707,2.22033 0.60164,1.31787 0.60164,3.00819 l 0,10.27082 q 0,0.57299 -0.53002,0.57299 l -2.92224,0 q -0.54434,0 -0.54434,-0.57299 l 0,-10.17055 z"
           style="font-style:normal;font-variant:normal;font-weight:600;font-stretch:normal;font-family:'Cocogoose Narrow Trial';-inkscape-font-specification:'Cocogoose Narrow Trial Semi-Bold';text-align:center;text-anchor:middle"
           id="path4180" />
        <path
           d="m 343.33351,734.50011 q -0.14324,-0.27217 -0.14324,-0.48704 0,-0.2292 0.34379,-0.42974 l 2.16303,-1.13165 q 0.41542,-0.2292 0.68759,0.32946 0.21487,0.4584 0.55866,0.83084 0.35812,0.37244 0.78786,0.64461 0.44407,0.27217 0.94543,0.41542 0.51569,0.14324 1.06003,0.14324 0.55867,0 1.03138,-0.10027 0.47272,-0.1146 0.81651,-0.32947 0.35812,-0.22919 0.55866,-0.57299 0.20055,-0.35811 0.20055,-0.84515 0,-0.50137 -0.32947,-0.88814 -0.31514,-0.38676 -0.87381,-0.70191 -0.54434,-0.31514 -1.2749,-0.57299 -0.73056,-0.27217 -1.56139,-0.54434 -1.07435,-0.35811 -1.94816,-0.80218 -0.85948,-0.45839 -1.47545,-1.06003 -0.61596,-0.61596 -0.94543,-1.40382 -0.32947,-0.78786 -0.32947,-1.84789 0,-1.0457 0.44407,-1.99113 0.44407,-0.94543 1.23193,-1.66167 0.80218,-0.73056 1.90518,-1.14598 1.10301,-0.42974 2.42088,-0.42974 1.07435,0 2.03411,0.32947 0.95975,0.32947 1.73329,0.85948 0.78786,0.51569 1.34652,1.1603 0.55867,0.64462 0.83084,1.26058 0.12892,0.30082 0.11459,0.47272 -0.0143,0.17189 -0.30082,0.31514 l -1.94816,0.91678 q -0.25784,0.12892 -0.42974,0.10027 -0.15757,-0.0286 -0.31514,-0.30082 -0.40109,-0.78785 -1.18895,-1.2176 -0.78786,-0.44406 -1.76194,-0.44406 -0.51569,0 -0.95976,0.12892 -0.42974,0.1146 -0.74488,0.32947 -0.31515,0.21487 -0.48704,0.53001 -0.1719,0.30082 -0.1719,0.65894 0,0.47272 0.27217,0.80218 0.27217,0.31515 0.78786,0.58732 0.51569,0.27217 1.26057,0.53001 0.74489,0.24352 1.69032,0.55867 2.3779,0.80218 3.55253,2.19168 1.18895,1.37517 1.18895,3.25171 0,1.24625 -0.51569,2.23465 -0.51569,0.98841 -1.37517,1.67599 -0.85949,0.68759 -1.99114,1.04571 -1.13165,0.37244 -2.3779,0.37244 -1.00273,0 -1.96249,-0.2292 -0.95975,-0.22919 -1.80491,-0.70191 -0.84516,-0.47271 -1.56139,-1.17462 -0.70191,-0.71624 -1.18896,-1.66167 z"
           style="font-style:normal;font-variant:normal;font-weight:600;font-stretch:normal;font-family:'Cocogoose Narrow Trial';-inkscape-font-specification:'Cocogoose Narrow Trial Semi-Bold';text-align:center;text-anchor:middle"
           id="path4182" />
        <path
           d="M 29.436064,798.57455 23.62023,786.78532 q -0.143247,-0.27217 -0.02865,-0.44407 0.114597,-0.1719 0.358117,-0.1719 l 3.437932,0 q 0.229195,0 0.386767,0.1146 0.157572,0.1146 0.27217,0.40109 l 3.022514,6.84722 0.372443,1.60436 0.386767,-1.60436 2.993865,-6.83289 q 0.114598,-0.2865 0.27217,-0.40109 0.157572,-0.1146 0.386767,-0.1146 l 3.466581,0 q 0.257845,0 0.358118,0.17189 0.114597,0.15758 -0.02865,0.41542 l -5.830158,11.84654 0,7.40588 q 0,0.57298 -0.501365,0.57298 l -3.022515,0 q -0.48704,0 -0.48704,-0.57298 l 0,-7.44886 z"
           style="font-style:normal;font-variant:normal;font-weight:600;font-stretch:normal;font-family:'Cocogoose Narrow Trial';-inkscape-font-specification:'Cocogoose Narrow Trial Semi-Bold';text-align:center;text-anchor:middle"
           id="path4184" />
        <path
           d="m 39.320116,796.1107 q 0,-1.57571 0.572989,-2.93656 0.587313,-1.36085 1.590043,-2.36358 1.017055,-1.00273 2.377902,-1.57572 1.375173,-0.57299 2.950892,-0.57299 1.590043,0 2.965215,0.57299 1.375173,0.57299 2.392227,1.57572 1.017055,1.00273 1.590044,2.36358 0.587313,1.36085 0.587313,2.93656 l 0,3.50956 q 0,1.56139 -0.587313,2.92224 -0.572989,1.34652 -1.590044,2.34925 -1.017054,0.98841 -2.392227,1.5614 -1.360848,0.57299 -2.950891,0.57299 -1.590043,0 -2.965216,-0.57299 -1.360847,-0.57299 -2.377902,-1.5614 -1.00273,-1.00273 -1.590043,-2.34925 -0.572989,-1.36085 -0.572989,-2.92224 l 0,-3.50956 z m 3.867673,3.58118 q 0,0.81651 0.27217,1.5041 0.272169,0.68758 0.759209,1.18895 0.487041,0.50136 1.145977,0.78786 0.673262,0.28649 1.475446,0.28649 0.787859,0 1.461121,-0.28649 0.673261,-0.2865 1.160302,-0.78786 0.501365,-0.50137 0.773534,-1.18895 0.27217,-0.68759 0.27217,-1.48977 l 0,-3.7101 q 0,-0.81651 -0.27217,-1.5041 -0.272169,-0.68758 -0.773534,-1.18895 -0.487041,-0.51569 -1.160302,-0.80218 -0.673262,-0.2865 -1.461121,-0.2865 -0.802184,0 -1.475446,0.2865 -0.658936,0.28649 -1.145977,0.80218 -0.48704,0.50137 -0.759209,1.18895 -0.27217,0.68759 -0.27217,1.5041 l 0,3.69577 z"
           style="font-style:normal;font-variant:normal;font-weight:600;font-stretch:normal;font-family:'Cocogoose Narrow Trial';-inkscape-font-specification:'Cocogoose Narrow Trial Semi-Bold';text-align:center;text-anchor:middle"
           id="path4186" />
        <path
           d="m 61.792012,799.97838 q 0.02865,0.71623 0.300819,1.36084 0.286494,0.63029 0.744885,1.10301 0.458391,0.47271 1.045704,0.75921 0.601638,0.27217 1.2749,0.27217 0.658937,0 1.289224,-0.25785 0.630287,-0.25784 1.117328,-0.70191 0.501365,-0.45839 0.816508,-1.07435 0.315144,-0.63029 0.343793,-1.36085 l 0,-10.44272 q 0,-0.28649 0.243521,-0.42974 0.257844,-0.15757 0.515689,-0.15757 l 2.693046,0 q 0.54434,0 0.54434,0.58731 l 0,16.37315 q 0,0.58731 -0.558664,0.58731 l -1.976811,0 q -0.286494,0 -0.501365,-0.12892 -0.21487,-0.14325 -0.300819,-0.55866 l -0.286494,-1.67599 q -0.73056,1.28922 -1.933836,2.04843 -1.188952,0.74489 -2.922242,0.74489 -1.074353,0 -2.220331,-0.47272 -1.145977,-0.47272 -2.091408,-1.37517 -0.931106,-0.90246 -1.532744,-2.22033 -0.601638,-1.31788 -0.601638,-3.02252 l 0,-10.31379 q 0,-0.57299 0.544339,-0.57299 l 2.907917,0 q 0.544339,0 0.544339,0.57299 l 0,10.35677 z"
           style="font-style:normal;font-variant:normal;font-weight:600;font-stretch:normal;font-family:'Cocogoose Narrow Trial';-inkscape-font-specification:'Cocogoose Narrow Trial Semi-Bold';text-align:center;text-anchor:middle"
           id="path4188" />
        <path
           d="m 95.727258,795.85286 q 0,-0.73056 -0.27217,-1.3895 -0.272169,-0.67326 -0.73056,-1.1603 -0.458391,-0.50136 -1.074354,-0.78786 -0.601638,-0.30082 -1.289224,-0.30082 -0.658937,0 -1.289224,0.25785 -0.630288,0.25784 -1.131653,0.71623 -0.48704,0.45839 -0.802184,1.08868 -0.315143,0.61596 -0.343793,1.34652 l 0,10.38542 q 0,0.2865 -0.257845,0.44407 -0.24352,0.14324 -0.501365,0.14324 l -2.678721,0 q -0.558664,0 -0.558664,-0.58731 l 0,-21.48707 q 0,-0.58731 0.558664,-0.58731 l 2.650072,0 q 0.286494,0 0.530014,0.12892 0.257845,0.12892 0.257845,0.55866 l 0,6.38883 q 0.730561,-1.06003 1.833564,-1.70464 1.117327,-0.64462 2.650072,-0.64462 1.088678,0 2.22033,0.47272 1.145977,0.47271 2.077084,1.3895 0.945431,0.90245 1.547069,2.22033 0.601638,1.31787 0.601638,3.00819 l 0,10.27082 q 0,0.57298 -0.530015,0.57298 l -2.922241,0 q -0.544339,0 -0.544339,-0.57298 l 0,-10.17055 z"
           style="font-style:normal;font-variant:normal;font-weight:600;font-stretch:normal;font-family:'Cocogoose Narrow Trial';-inkscape-font-specification:'Cocogoose Narrow Trial Semi-Bold';text-align:center;text-anchor:middle"
           id="path4190" />
        <path
           d="m 103.13671,796.1107 q 0,-1.57571 0.54434,-2.93656 0.54434,-1.36085 1.48977,-2.36358 0.95976,-1.00273 2.24898,-1.57572 1.30355,-0.57299 2.80764,-0.57299 0.74489,0 1.3895,0.21487 0.65894,0.21487 1.2176,0.60164 0.57299,0.37244 1.03138,0.90246 0.47272,0.53001 0.84516,1.14598 l 0.30082,-1.89087 q 0.1146,-0.58731 0.73056,-0.58731 l 1.86221,0 q 0.57299,0 0.57299,0.58731 l 0,16.37315 q 0,0.2865 -0.15757,0.44407 -0.14325,0.14324 -0.40109,0.14324 l -1.93384,0 q -0.25784,0 -0.44407,-0.14324 -0.18622,-0.15757 -0.22919,-0.44407 l -0.27217,-1.90519 q -0.37244,0.63029 -0.84516,1.17463 -0.45839,0.53002 -1.03138,0.91678 -0.55866,0.38677 -1.23192,0.60164 -0.65894,0.2292 -1.40383,0.2292 -1.50409,0 -2.80764,-0.57299 -1.28922,-0.57299 -2.24898,-1.5614 -0.94543,-1.00273 -1.48977,-2.34925 -0.54434,-1.36085 -0.54434,-2.92224 l 0,-3.50956 z m 3.86767,3.58118 q 0,0.81651 0.27217,1.5041 0.27217,0.68758 0.74489,1.18895 0.47271,0.50136 1.11733,0.78786 0.65893,0.28649 1.41814,0.28649 0.77354,0 1.4468,-0.27217 0.67326,-0.27217 1.17463,-0.74488 0.50136,-0.48704 0.80218,-1.14598 0.31514,-0.65894 0.34379,-1.43247 l 0,-4.02525 q -0.0286,-0.78785 -0.34379,-1.44679 -0.30082,-0.65894 -0.80218,-1.14598 -0.50137,-0.48704 -1.17463,-0.75921 -0.67326,-0.27217 -1.4468,-0.27217 -0.75921,0 -1.41814,0.2865 -0.64462,0.28649 -1.11733,0.80218 -0.47272,0.50137 -0.74489,1.18895 -0.27217,0.68759 -0.27217,1.5041 l 0,3.69577 z"
           style="font-style:normal;font-variant:normal;font-weight:600;font-stretch:normal;font-family:'Cocogoose Narrow Trial';-inkscape-font-specification:'Cocogoose Narrow Trial Semi-Bold';text-align:center;text-anchor:middle"
           id="path4192" />
        <path
           d="m 130.60435,806.0807 q -0.18622,0.51569 -0.65893,0.51569 l -2.33493,0 q -0.48704,0 -0.67326,-0.51569 l -6.03071,-16.12962 q -0.15757,-0.45839 0,-0.67326 0.15757,-0.2292 0.50137,-0.2292 l 2.97954,0 q 0.24352,0 0.41541,0.12892 0.1719,0.12893 0.24352,0.40109 l 3.52388,11.38815 0.2865,1.91951 0.28649,-1.91951 3.52388,-11.41679 q 0.0859,-0.27217 0.25785,-0.38677 0.17189,-0.1146 0.40109,-0.1146 l 3.12279,0 q 0.65893,0 0.37244,0.80218 l -6.21693,16.2299 z"
           style="font-style:normal;font-variant:normal;font-weight:600;font-stretch:normal;font-family:'Cocogoose Narrow Trial';-inkscape-font-specification:'Cocogoose Narrow Trial Semi-Bold';text-align:center;text-anchor:middle"
           id="path4194" />
        <path
           d="m 138.21436,796.168 q 0,-1.63301 0.58731,-3.00819 0.58731,-1.38949 1.61869,-2.3779 1.03138,-1.00273 2.4352,-1.56139 1.41815,-0.55867 3.05117,-0.55867 0.74488,0 1.54707,0.20055 0.80218,0.18622 1.56139,0.58731 0.75921,0.40109 1.43247,1.03138 0.67326,0.63029 1.17463,1.5041 0.51569,0.8738 0.81651,2.01978 0.30082,1.13165 0.30082,2.5498 l 0,1.40382 q 0,0.65894 -0.31515,0.90246 -0.30082,0.24352 -0.94543,0.22919 l -9.39701,0 0,0.44407 q 0,0.90246 0.28649,1.63302 0.2865,0.71623 0.78786,1.23192 0.50137,0.51569 1.17463,0.78786 0.68758,0.27217 1.48977,0.27217 0.80218,0 1.51842,-0.32947 0.71623,-0.32946 1.2749,-1.13165 0.14324,-0.20054 0.28649,-0.21487 0.15757,-0.0286 0.27217,0.043 l 2.46385,1.28923 q 0.12892,0.10027 0.14325,0.25784 0.0286,0.15758 -0.12892,0.41542 -0.41542,0.67326 -1.00273,1.26058 -0.57299,0.58731 -1.30355,1.03137 -0.73056,0.44407 -1.60437,0.68759 -0.85948,0.25785 -1.83356,0.25785 -1.63302,0 -3.03684,-0.55867 -1.40382,-0.55866 -2.4352,-1.54707 -1.03138,-0.9884 -1.63302,-2.34925 -0.58731,-1.36085 -0.58731,-2.97954 l 0,-3.42361 z m 3.86767,0.0143 7.03343,0 0,-0.086 q 0,-0.65894 -0.17189,-1.34652 -0.15758,-0.68759 -0.54434,-1.24625 -0.37245,-0.55867 -1.00273,-0.91679 -0.63029,-0.37244 -1.57572,-0.37244 -0.91678,0 -1.61869,0.32947 -0.68759,0.32947 -1.16031,0.87381 -0.47271,0.53001 -0.71623,1.23192 -0.24352,0.68759 -0.24352,1.40383 l 0,0.12892 z"
           style="font-style:normal;font-variant:normal;font-weight:600;font-stretch:normal;font-family:'Cocogoose Narrow Trial';-inkscape-font-specification:'Cocogoose Narrow Trial Semi-Bold';text-align:center;text-anchor:middle"
           id="path4196" />
        <path
           d="m 162.87077,796.168 q 0,-1.60437 0.57299,-2.97954 0.57299,-1.37517 1.59005,-2.3779 1.01705,-1.00273 2.39222,-1.57572 1.37517,-0.57299 2.99387,-0.57299 0.9311,0 1.79059,0.27217 0.8738,0.27217 1.60436,0.74489 0.74489,0.45839 1.3322,1.103 0.58732,0.63029 0.95976,1.36085 0.27217,0.51569 0,0.67326 l -2.36358,1.1603 q -0.12892,0.0716 -0.28649,0.0573 -0.15757,-0.0287 -0.2865,-0.24352 -0.21487,-0.34379 -0.51569,-0.63029 -0.30082,-0.28649 -0.67326,-0.48704 -0.35812,-0.21487 -0.77353,-0.32947 -0.4011,-0.12892 -0.83084,-0.12892 -0.80218,0 -1.47544,0.2865 -0.67326,0.28649 -1.1603,0.8165 -0.47272,0.53002 -0.74489,1.26058 -0.25784,0.73056 -0.25784,1.61869 l 0,3.29469 q 0,0.9311 0.27217,1.67599 0.28649,0.73056 0.77353,1.24625 0.48704,0.50136 1.14598,0.77353 0.67326,0.27217 1.44679,0.27217 0.85949,0 1.57572,-0.41541 0.73056,-0.42975 1.2176,-1.16031 0.15757,-0.20054 0.30082,-0.21487 0.15757,-0.0286 0.2865,0.043 l 2.34925,1.17462 q 0.1146,0.1146 0.12892,0.25785 0.0286,0.14325 -0.1146,0.40109 -0.37244,0.73056 -0.95975,1.37517 -0.58732,0.63029 -1.34653,1.10301 -0.74488,0.47271 -1.61869,0.73056 -0.87381,0.27217 -1.81924,0.27217 -1.60436,0 -2.97954,-0.57299 -1.36084,-0.57299 -2.3779,-1.5614 -1.00273,-1.00273 -1.57572,-2.36357 -0.57299,-1.37518 -0.57299,-2.96522 l 0,-3.39496 0,0 z"
           style="font-style:normal;font-variant:normal;font-weight:600;font-stretch:normal;font-family:'Cocogoose Narrow Trial';-inkscape-font-specification:'Cocogoose Narrow Trial Semi-Bold';text-align:center;text-anchor:middle"
           id="path4198" />
        <path
           d="m 178.61005,796.1107 q 0,-1.57571 0.57299,-2.93656 0.58731,-1.36085 1.59004,-2.36358 1.01705,-1.00273 2.3779,-1.57572 1.37517,-0.57299 2.95089,-0.57299 1.59005,0 2.96522,0.57299 1.37517,0.57299 2.39222,1.57572 1.01706,1.00273 1.59005,2.36358 0.58731,1.36085 0.58731,2.93656 l 0,3.50956 q 0,1.56139 -0.58731,2.92224 -0.57299,1.34652 -1.59005,2.34925 -1.01705,0.98841 -2.39222,1.5614 -1.36085,0.57299 -2.95089,0.57299 -1.59005,0 -2.96522,-0.57299 -1.36085,-0.57299 -2.3779,-1.5614 -1.00273,-1.00273 -1.59004,-2.34925 -0.57299,-1.36085 -0.57299,-2.92224 l 0,-3.50956 z m 3.86767,3.58118 q 0,0.81651 0.27217,1.5041 0.27217,0.68758 0.75921,1.18895 0.48704,0.50136 1.14598,0.78786 0.67326,0.28649 1.47544,0.28649 0.78786,0 1.46112,-0.28649 0.67326,-0.2865 1.1603,-0.78786 0.50137,-0.50137 0.77354,-1.18895 0.27217,-0.68759 0.27217,-1.48977 l 0,-3.7101 q 0,-0.81651 -0.27217,-1.5041 -0.27217,-0.68758 -0.77354,-1.18895 -0.48704,-0.51569 -1.1603,-0.80218 -0.67326,-0.2865 -1.46112,-0.2865 -0.80218,0 -1.47544,0.2865 -0.65894,0.28649 -1.14598,0.80218 -0.48704,0.50137 -0.75921,1.18895 -0.27217,0.68759 -0.27217,1.5041 l 0,3.69577 z"
           style="font-style:normal;font-variant:normal;font-weight:600;font-stretch:normal;font-family:'Cocogoose Narrow Trial';-inkscape-font-specification:'Cocogoose Narrow Trial Semi-Bold';text-align:center;text-anchor:middle"
           id="path4200" />
        <path
           d="m 211.16654,806.00908 q 0,0.58731 -0.54434,0.58731 l -2.92225,0 q -0.53001,0 -0.53001,-0.58731 l 0,-10.47136 q 0,-0.51569 -0.15757,-1.08868 -0.14325,-0.58732 -0.47272,-1.07436 -0.32947,-0.50136 -0.84516,-0.83083 -0.51569,-0.32947 -1.23192,-0.32947 -0.58731,0 -1.1603,0.24352 -0.55867,0.24352 -1.01706,0.70191 -0.44406,0.44407 -0.74488,1.07436 -0.2865,0.63028 -0.31515,1.38949 l 0,10.38542 q 0,0.2865 -0.25784,0.44407 -0.24352,0.14324 -0.50137,0.14324 l -2.67872,0 q -0.55866,0 -0.55866,-0.58731 l 0,-16.37315 q 0,-0.60163 0.55866,-0.60163 l 1.97681,0 q 0.2865,0 0.50137,0.15757 0.22919,0.15757 0.30082,0.53001 l 0.27217,1.57572 q 0.40109,-0.68759 0.91678,-1.17463 0.51569,-0.50136 1.103,-0.8165 0.60164,-0.32947 1.23193,-0.48705 0.64461,-0.15757 1.30355,-0.15757 0.65893,0 1.36084,0.21487 0.71624,0.20055 1.37518,0.63029 0.65893,0.41542 1.23192,1.03138 0.58731,0.61596 1.00273,1.43247 0.42974,-0.84516 0.97408,-1.46112 0.55867,-0.63029 1.20328,-1.03138 0.64461,-0.41542 1.34652,-0.61596 0.71624,-0.20055 1.46112,-0.20055 0.95976,0 1.97681,0.40109 1.01706,0.38677 1.84789,1.24626 0.84516,0.84515 1.37517,2.206 0.54434,1.36085 0.54434,3.29469 l 0,10.19919 q 0,0.58731 -0.53001,0.58731 l -2.93657,0 q -0.53001,0 -0.53001,-0.58731 l 0,-10.54299 q 0,-0.48704 -0.15758,-1.06003 -0.14324,-0.57299 -0.47271,-1.06003 -0.32947,-0.48704 -0.85948,-0.80218 -0.53002,-0.32947 -1.28923,-0.32947 -0.58731,0 -1.14597,0.27217 -0.55867,0.27217 -1.01706,0.75921 -0.44407,0.47272 -0.71624,1.13165 -0.27216,0.64462 -0.27216,1.3895 l 0,10.24217 z"
           style="font-style:normal;font-variant:normal;font-weight:600;font-stretch:normal;font-family:'Cocogoose Narrow Trial';-inkscape-font-specification:'Cocogoose Narrow Trial Semi-Bold';text-align:center;text-anchor:middle"
           id="path4202" />
        <path
           d="m 240.457,799.62026 q 0,1.56139 -0.54434,2.92224 -0.54434,1.34652 -1.5041,2.34925 -0.94543,0.98841 -2.24898,1.5614 -1.28922,0.57299 -2.79332,0.57299 -1.30355,0 -2.33493,-0.63029 -1.01705,-0.63029 -1.74761,-1.64734 l 0,6.73261 q 0,0.2865 -0.21487,0.44407 -0.20055,0.15757 -0.45839,0.15757 l -2.62143,0 q -0.25784,0 -0.41541,-0.15757 -0.14325,-0.15757 -0.14325,-0.44407 l 0,-21.84519 q 0,-0.28649 0.14325,-0.42974 0.15757,-0.15757 0.41541,-0.15757 l 1.87654,0 q 0.60164,0 0.73056,0.58731 l 0.2865,1.89087 q 0.37244,-0.61597 0.83083,-1.14598 0.47272,-0.53002 1.03138,-0.90246 0.57299,-0.38677 1.23193,-0.60164 0.65893,-0.21487 1.40382,-0.21487 1.50409,0 2.79332,0.57299 1.30355,0.57299 2.24898,1.57572 0.94543,1.00273 1.48977,2.36358 0.54434,1.36085 0.54434,2.93656 l 0,3.50956 z m -3.86768,-3.62415 q 0,-0.81651 -0.27217,-1.5041 -0.27217,-0.68758 -0.74488,-1.18895 -0.47272,-0.51569 -1.13165,-0.80218 -0.64462,-0.2865 -1.3895,-0.2865 -0.77354,0 -1.46112,0.27217 -0.67326,0.27217 -1.17463,0.75921 -0.50136,0.48704 -0.80218,1.14598 -0.30082,0.65894 -0.32947,1.44679 l 0,3.86768 q 0,0.80218 0.28649,1.48977 0.2865,0.68758 0.78786,1.18895 0.51569,0.50136 1.20328,0.78786 0.68758,0.28649 1.48977,0.28649 0.74488,0 1.3895,-0.28649 0.65893,-0.2865 1.13165,-0.78786 0.47271,-0.50137 0.74488,-1.18895 0.27217,-0.68759 0.27217,-1.5041 l 0,-3.69577 z"
           style="font-style:normal;font-variant:normal;font-weight:600;font-stretch:normal;font-family:'Cocogoose Narrow Trial';-inkscape-font-specification:'Cocogoose Narrow Trial Semi-Bold';text-align:center;text-anchor:middle"
           id="path4204" />
        <path
           d="m 243.97372,784.50769 q 0,-0.57299 0.53001,-0.57299 l 2.95089,0 q 0.51569,0 0.51569,0.57299 l 0,21.51572 q 0,0.57298 -0.51569,0.57298 l -2.95089,0 q -0.53001,0 -0.53001,-0.57298 l 0,-21.51572 z"
           style="font-style:normal;font-variant:normal;font-weight:600;font-stretch:normal;font-family:'Cocogoose Narrow Trial';-inkscape-font-specification:'Cocogoose Narrow Trial Semi-Bold';text-align:center;text-anchor:middle"
           id="path4206" />
        <path
           d="m 251.50493,796.168 q 0,-1.63301 0.58731,-3.00819 0.58732,-1.38949 1.61869,-2.3779 1.03138,-1.00273 2.43521,-1.56139 1.41814,-0.55867 3.05116,-0.55867 0.74489,0 1.54707,0.20055 0.80218,0.18622 1.56139,0.58731 0.75921,0.40109 1.43247,1.03138 0.67327,0.63029 1.17463,1.5041 0.51569,0.8738 0.81651,2.01978 0.30082,1.13165 0.30082,2.5498 l 0,1.40382 q 0,0.65894 -0.31515,0.90246 -0.30081,0.24352 -0.94543,0.22919 l -9.39701,0 0,0.44407 q 0,0.90246 0.2865,1.63302 0.28649,0.71623 0.78786,1.23192 0.50136,0.51569 1.17462,0.78786 0.68759,0.27217 1.48977,0.27217 0.80219,0 1.51842,-0.32947 0.71624,-0.32946 1.2749,-1.13165 0.14325,-0.20054 0.2865,-0.21487 0.15757,-0.0286 0.27216,0.043 l 2.46386,1.28923 q 0.12892,0.10027 0.14324,0.25784 0.0287,0.15758 -0.12892,0.41542 -0.41542,0.67326 -1.00273,1.26058 -0.57299,0.58731 -1.30355,1.03137 -0.73056,0.44407 -1.60437,0.68759 -0.85948,0.25785 -1.83356,0.25785 -1.63302,0 -3.03684,-0.55867 -1.40382,-0.55866 -2.4352,-1.54707 -1.03138,-0.9884 -1.63302,-2.34925 -0.58731,-1.36085 -0.58731,-2.97954 l 0,-3.42361 z m 3.86767,0.0143 7.03344,0 0,-0.086 q 0,-0.65894 -0.1719,-1.34652 -0.15757,-0.68759 -0.54434,-1.24625 -0.37244,-0.55867 -1.00273,-0.91679 -0.63029,-0.37244 -1.57572,-0.37244 -0.91678,0 -1.61869,0.32947 -0.68759,0.32947 -1.1603,0.87381 -0.47272,0.53001 -0.71624,1.23192 -0.24352,0.68759 -0.24352,1.40383 l 0,0.12892 z"
           style="font-style:normal;font-variant:normal;font-weight:600;font-stretch:normal;font-family:'Cocogoose Narrow Trial';-inkscape-font-specification:'Cocogoose Narrow Trial Semi-Bold';text-align:center;text-anchor:middle"
           id="path4208" />
        <path
           d="m 274.0413,792.73007 0,13.30766 q 0,0.55866 -0.53002,0.55866 l -2.97954,0 q -0.50136,0 -0.50136,-0.55866 l 0,-13.30766 -1.86221,0 q -0.2292,0 -0.38677,-0.12892 -0.14325,-0.12892 -0.14325,-0.37244 l 0,-2.69305 q 0,-0.24352 0.14325,-0.35812 0.15757,-0.12892 0.38677,-0.12892 l 1.86221,0 0,-2.7217 q 0,-0.28649 0.1146,-0.44406 0.11459,-0.15757 0.44406,-0.25785 l 2.59278,-0.85948 q 0.32946,-0.10027 0.58731,0.086 0.27217,0.1719 0.27217,0.61596 l 0,3.58118 2.56412,0 q 0.24352,0 0.38677,0.14325 0.14325,0.14324 0.14325,0.34379 l 0,2.69305 q 0,0.50136 -0.53002,0.50136 l -2.56412,0 z"
           style="font-style:normal;font-variant:normal;font-weight:600;font-stretch:normal;font-family:'Cocogoose Narrow Trial';-inkscape-font-specification:'Cocogoose Narrow Trial Semi-Bold';text-align:center;text-anchor:middle"
           id="path4210" />
        <path
           d="m 278.73979,796.168 q 0,-1.63301 0.58732,-3.00819 0.58731,-1.38949 1.61869,-2.3779 1.03138,-1.00273 2.4352,-1.56139 1.41815,-0.55867 3.05116,-0.55867 0.74489,0 1.54707,0.20055 0.80219,0.18622 1.5614,0.58731 0.75921,0.40109 1.43247,1.03138 0.67326,0.63029 1.17462,1.5041 0.51569,0.8738 0.81651,2.01978 0.30082,1.13165 0.30082,2.5498 l 0,1.40382 q 0,0.65894 -0.31514,0.90246 -0.30082,0.24352 -0.94543,0.22919 l -9.39702,0 0,0.44407 q 0,0.90246 0.2865,1.63302 0.28649,0.71623 0.78786,1.23192 0.50136,0.51569 1.17462,0.78786 0.68759,0.27217 1.48978,0.27217 0.80218,0 1.51841,-0.32947 0.71624,-0.32946 1.2749,-1.13165 0.14325,-0.20054 0.2865,-0.21487 0.15757,-0.0286 0.27217,0.043 l 2.46385,1.28923 q 0.12892,0.10027 0.14325,0.25784 0.0287,0.15758 -0.12893,0.41542 -0.41541,0.67326 -1.00273,1.26058 -0.57298,0.58731 -1.30355,1.03137 -0.73056,0.44407 -1.60436,0.68759 -0.85949,0.25785 -1.83357,0.25785 -1.63301,0 -3.03684,-0.55867 -1.40382,-0.55866 -2.4352,-1.54707 -1.03138,-0.9884 -1.63301,-2.34925 -0.58732,-1.36085 -0.58732,-2.97954 l 0,-3.42361 z m 3.86767,0.0143 7.03344,0 0,-0.086 q 0,-0.65894 -0.1719,-1.34652 -0.15757,-0.68759 -0.54434,-1.24625 -0.37244,-0.55867 -1.00273,-0.91679 -0.63028,-0.37244 -1.57571,-0.37244 -0.91679,0 -1.6187,0.32947 -0.68758,0.32947 -1.1603,0.87381 -0.47271,0.53001 -0.71624,1.23192 -0.24352,0.68759 -0.24352,1.40383 l 0,0.12892 z"
           style="font-style:normal;font-variant:normal;font-weight:600;font-stretch:normal;font-family:'Cocogoose Narrow Trial';-inkscape-font-specification:'Cocogoose Narrow Trial Semi-Bold';text-align:center;text-anchor:middle"
           id="path4212" />
        <path
           d="m 295.82201,796.1107 q 0,-1.57571 0.54434,-2.93656 0.54433,-1.36085 1.48977,-2.36358 0.95975,-1.00273 2.24898,-1.57572 1.30354,-0.57299 2.80764,-0.57299 1.30355,0 2.3206,0.63029 1.03138,0.63029 1.77627,1.63302 l 0,-6.41747 q 0,-0.2865 0.21487,-0.42975 0.22919,-0.14324 0.51569,-0.14324 l 2.5498,0 q 0.57299,0 0.57299,0.58731 l 0,21.48707 q 0,0.2865 -0.15758,0.44407 -0.14324,0.14324 -0.40109,0.14324 l -1.93383,0 q -0.25785,0 -0.44407,-0.14324 -0.18622,-0.15757 -0.2292,-0.44407 l -0.27217,-1.90519 q -0.37244,0.63029 -0.84515,1.17463 -0.45839,0.53002 -1.03138,0.91678 -0.55867,0.38677 -1.23193,0.60164 -0.65894,0.2292 -1.40382,0.2292 -1.5041,0 -2.80764,-0.57299 -1.28923,-0.57299 -2.24898,-1.5614 -0.94544,-1.00273 -1.48977,-2.34925 -0.54434,-1.36085 -0.54434,-2.92224 l 0,-3.50956 z m 3.86767,3.58118 q 0,0.81651 0.27217,1.5041 0.27217,0.68758 0.74488,1.18895 0.47272,0.50136 1.11733,0.78786 0.65894,0.28649 1.41815,0.28649 0.78786,0 1.47544,-0.28649 0.70191,-0.2865 1.20328,-0.78786 0.50136,-0.50137 0.78786,-1.18895 0.30082,-0.68759 0.30082,-1.48977 l 0,-3.86768 q -0.0287,-0.78785 -0.3438,-1.44679 -0.30081,-0.65894 -0.80218,-1.14598 -0.50136,-0.48704 -1.17463,-0.75921 -0.67326,-0.27217 -1.44679,-0.27217 -0.75921,0 -1.41815,0.2865 -0.64461,0.28649 -1.11733,0.80218 -0.47271,0.50137 -0.74488,1.18895 -0.27217,0.68759 -0.27217,1.5041 l 0,3.69577 z"
           style="font-style:normal;font-variant:normal;font-weight:600;font-stretch:normal;font-family:'Cocogoose Narrow Trial';-inkscape-font-specification:'Cocogoose Narrow Trial Semi-Bold';text-align:center;text-anchor:middle"
           id="path4214" />
        <path
           d="m 327.59782,792.73007 0,13.30766 q 0,0.55866 -0.53002,0.55866 l -2.97954,0 q -0.50136,0 -0.50136,-0.55866 l 0,-13.30766 -1.86222,0 q -0.22919,0 -0.38676,-0.12892 -0.14325,-0.12892 -0.14325,-0.37244 l 0,-2.69305 q 0,-0.24352 0.14325,-0.35812 0.15757,-0.12892 0.38676,-0.12892 l 1.86222,0 0,-2.7217 q 0,-0.28649 0.11459,-0.44406 0.1146,-0.15757 0.44407,-0.25785 l 2.59277,-0.85948 q 0.32947,-0.10027 0.58732,0.086 0.27217,0.1719 0.27217,0.61596 l 0,3.58118 2.56412,0 q 0.24352,0 0.38677,0.14325 0.14324,0.14324 0.14324,0.34379 l 0,2.69305 q 0,0.50136 -0.53001,0.50136 l -2.56412,0 z"
           style="font-style:normal;font-variant:normal;font-weight:600;font-stretch:normal;font-family:'Cocogoose Narrow Trial';-inkscape-font-specification:'Cocogoose Narrow Trial Semi-Bold';text-align:center;text-anchor:middle"
           id="path4216" />
        <path
           d="m 344.49382,795.85286 q 0,-0.73056 -0.27216,-1.3895 -0.27217,-0.67326 -0.73056,-1.1603 -0.4584,-0.50136 -1.07436,-0.78786 -0.60164,-0.30082 -1.28922,-0.30082 -0.65894,0 -1.28923,0.25785 -0.63028,0.25784 -1.13165,0.71623 -0.48704,0.45839 -0.80218,1.08868 -0.31515,0.61596 -0.3438,1.34652 l 0,10.38542 q 0,0.2865 -0.25784,0.44407 -0.24352,0.14324 -0.50137,0.14324 l -2.67872,0 q -0.55866,0 -0.55866,-0.58731 l 0,-21.48707 q 0,-0.58731 0.55866,-0.58731 l 2.65007,0 q 0.2865,0 0.53002,0.12892 0.25784,0.12892 0.25784,0.55866 l 0,6.38883 q 0.73056,-1.06003 1.83357,-1.70464 1.11732,-0.64462 2.65007,-0.64462 1.08868,0 2.22033,0.47272 1.14598,0.47271 2.07708,1.3895 0.94543,0.90245 1.54707,2.22033 0.60164,1.31787 0.60164,3.00819 l 0,10.27082 q 0,0.57298 -0.53001,0.57298 l -2.92225,0 q -0.54434,0 -0.54434,-0.57298 l 0,-10.17055 z"
           style="font-style:normal;font-variant:normal;font-weight:600;font-stretch:normal;font-family:'Cocogoose Narrow Trial';-inkscape-font-specification:'Cocogoose Narrow Trial Semi-Bold';text-align:center;text-anchor:middle"
           id="path4218" />
        <path
           d="m 351.90327,796.168 q 0,-1.63301 0.58732,-3.00819 0.58731,-1.38949 1.61869,-2.3779 1.03138,-1.00273 2.4352,-1.56139 1.41815,-0.55867 3.05117,-0.55867 0.74488,0 1.54707,0.20055 0.80218,0.18622 1.56139,0.58731 0.75921,0.40109 1.43247,1.03138 0.67326,0.63029 1.17463,1.5041 0.51569,0.8738 0.81651,2.01978 0.30081,1.13165 0.30081,2.5498 l 0,1.40382 q 0,0.65894 -0.31514,0.90246 -0.30082,0.24352 -0.94543,0.22919 l -9.39701,0 0,0.44407 q 0,0.90246 0.28649,1.63302 0.2865,0.71623 0.78786,1.23192 0.50137,0.51569 1.17463,0.78786 0.68758,0.27217 1.48977,0.27217 0.80218,0 1.51842,-0.32947 0.71623,-0.32946 1.2749,-1.13165 0.14324,-0.20054 0.28649,-0.21487 0.15757,-0.0286 0.27217,0.043 l 2.46385,1.28923 q 0.12892,0.10027 0.14325,0.25784 0.0287,0.15758 -0.12892,0.41542 -0.41542,0.67326 -1.00273,1.26058 -0.57299,0.58731 -1.30355,1.03137 -0.73056,0.44407 -1.60437,0.68759 -0.85948,0.25785 -1.83356,0.25785 -1.63302,0 -3.03684,-0.55867 -1.40383,-0.55866 -2.4352,-1.54707 -1.03138,-0.9884 -1.63302,-2.34925 -0.58732,-1.36085 -0.58732,-2.97954 l 0,-3.42361 z m 3.86768,0.0143 7.03343,0 0,-0.086 q 0,-0.65894 -0.17189,-1.34652 -0.15758,-0.68759 -0.54434,-1.24625 -0.37245,-0.55867 -1.00273,-0.91679 -0.63029,-0.37244 -1.57572,-0.37244 -0.91678,0 -1.61869,0.32947 -0.68759,0.32947 -1.16031,0.87381 -0.47271,0.53001 -0.71623,1.23192 -0.24352,0.68759 -0.24352,1.40383 l 0,0.12892 z"
           style="font-style:normal;font-variant:normal;font-weight:600;font-stretch:normal;font-family:'Cocogoose Narrow Trial';-inkscape-font-specification:'Cocogoose Narrow Trial Semi-Bold';text-align:center;text-anchor:middle"
           id="path4220" />
        <path
           d="m 391.60063,804.21849 q 0,2.26331 -0.64462,3.882 -0.63028,1.61869 -1.71896,2.65007 -1.07435,1.03138 -2.50683,1.5041 -1.41814,0.48704 -2.97954,0.45839 -0.78786,-0.0143 -1.57571,-0.14325 -0.77354,-0.1146 -1.51842,-0.37244 -0.73056,-0.24352 -1.40383,-0.61597 -0.67326,-0.37244 -1.23192,-0.8738 -0.25785,-0.2292 -0.21487,-0.44407 0.0573,-0.20054 0.17189,-0.37244 l 1.3322,-1.51842 q 0.1719,-0.25785 0.41542,-0.2865 0.25784,-0.0143 0.51569,0.18623 0.80218,0.54434 1.66167,0.74488 0.8738,0.20055 1.77626,0.20055 0.93111,0 1.67599,-0.30082 0.75921,-0.30082 1.28923,-0.85948 0.53001,-0.54434 0.80218,-1.3322 0.28649,-0.78786 0.28649,-1.76194 l -0.0143,-0.84516 q -0.37244,0.55866 -0.81651,1.01705 -0.42974,0.45839 -0.94543,0.80219 -0.50137,0.32947 -1.08868,0.51569 -0.57299,0.18622 -1.2176,0.18622 -1.50409,0 -2.80764,-0.57299 -1.28923,-0.57299 -2.24898,-1.56139 -0.94543,-1.00273 -1.48977,-2.34926 -0.54434,-1.36084 -0.54434,-2.93656 l 0,-3.10847 q 0,-1.57571 0.54434,-2.93656 0.54434,-1.36085 1.48977,-2.36358 0.95975,-1.00273 2.24898,-1.57572 1.30355,-0.57299 2.80764,-0.57299 0.74489,0 1.3895,0.21487 0.65893,0.21487 1.2176,0.60164 0.57299,0.37244 1.03138,0.90246 0.47271,0.53001 0.84516,1.14598 l 0.30082,-1.89087 q 0.11459,-0.58731 0.73056,-0.58731 l 1.86221,0 q 0.57299,0 0.57299,0.58731 l 0,14.58256 z m -11.17328,-4.91337 q 0,0.8165 0.27217,1.50409 0.27217,0.68759 0.74488,1.18895 0.47272,0.50137 1.11733,0.78786 0.65894,0.28649 1.41815,0.28649 0.77353,0 1.4468,-0.27216 0.67326,-0.27217 1.17462,-0.74489 0.50137,-0.48704 0.80219,-1.14598 0.31514,-0.65893 0.34379,-1.43247 l 0,-3.63848 q -0.0286,-0.78785 -0.34379,-1.44679 -0.30082,-0.65894 -0.80219,-1.14598 -0.50136,-0.48704 -1.17462,-0.75921 -0.67327,-0.27217 -1.4468,-0.27217 -0.75921,0 -1.41815,0.2865 -0.64461,0.28649 -1.11733,0.80218 -0.47271,0.50137 -0.74488,1.18895 -0.27217,0.68759 -0.27217,1.5041 l 0,3.30901 z"
           style="font-style:normal;font-variant:normal;font-weight:600;font-stretch:normal;font-family:'Cocogoose Narrow Trial';-inkscape-font-specification:'Cocogoose Narrow Trial Semi-Bold';text-align:center;text-anchor:middle"
           id="path4222" />
        <path
           d="m 395.14601,796.1107 q 0,-1.57571 0.54434,-2.93656 0.54434,-1.36085 1.48977,-2.36358 0.95976,-1.00273 2.24898,-1.57572 1.30355,-0.57299 2.80764,-0.57299 0.74489,0 1.3895,0.21487 0.65894,0.21487 1.2176,0.60164 0.57299,0.37244 1.03138,0.90246 0.47272,0.53001 0.84516,1.14598 l 0.30082,-1.89087 q 0.1146,-0.58731 0.73056,-0.58731 l 1.86221,0 q 0.57299,0 0.57299,0.58731 l 0,16.37315 q 0,0.2865 -0.15757,0.44407 -0.14325,0.14324 -0.40109,0.14324 l -1.93384,0 q -0.25784,0 -0.44407,-0.14324 -0.18622,-0.15757 -0.22919,-0.44407 l -0.27217,-1.90519 q -0.37244,0.63029 -0.84516,1.17463 -0.45839,0.53002 -1.03138,0.91678 -0.55866,0.38677 -1.23192,0.60164 -0.65894,0.2292 -1.40383,0.2292 -1.50409,0 -2.80764,-0.57299 -1.28922,-0.57299 -2.24898,-1.5614 -0.94543,-1.00273 -1.48977,-2.34925 -0.54434,-1.36085 -0.54434,-2.92224 l 0,-3.50956 z m 3.86767,3.58118 q 0,0.81651 0.27217,1.5041 0.27217,0.68758 0.74489,1.18895 0.47271,0.50136 1.11733,0.78786 0.65893,0.28649 1.41814,0.28649 0.77354,0 1.4468,-0.27217 0.67326,-0.27217 1.17463,-0.74488 0.50136,-0.48704 0.80218,-1.14598 0.31514,-0.65894 0.34379,-1.43247 l 0,-4.02525 q -0.0287,-0.78785 -0.34379,-1.44679 -0.30082,-0.65894 -0.80218,-1.14598 -0.50137,-0.48704 -1.17463,-0.75921 -0.67326,-0.27217 -1.4468,-0.27217 -0.75921,0 -1.41814,0.2865 -0.64462,0.28649 -1.11733,0.80218 -0.47272,0.50137 -0.74489,1.18895 -0.27217,0.68759 -0.27217,1.5041 l 0,3.69577 z"
           style="font-style:normal;font-variant:normal;font-weight:600;font-stretch:normal;font-family:'Cocogoose Narrow Trial';-inkscape-font-specification:'Cocogoose Narrow Trial Semi-Bold';text-align:center;text-anchor:middle"
           id="path4224" />
        <path
           d="m 428.61569,806.00908 q 0,0.58731 -0.54434,0.58731 l -2.92224,0 q -0.53001,0 -0.53001,-0.58731 l 0,-10.47136 q 0,-0.51569 -0.15757,-1.08868 -0.14325,-0.58732 -0.47272,-1.07436 -0.32947,-0.50136 -0.84516,-0.83083 -0.51569,-0.32947 -1.23192,-0.32947 -0.58732,0 -1.16031,0.24352 -0.55866,0.24352 -1.01705,0.70191 -0.44407,0.44407 -0.74488,1.07436 -0.2865,0.63028 -0.31515,1.38949 l 0,10.38542 q 0,0.2865 -0.25784,0.44407 -0.24352,0.14324 -0.50137,0.14324 l -2.67872,0 q -0.55866,0 -0.55866,-0.58731 l 0,-16.37315 q 0,-0.60163 0.55866,-0.60163 l 1.97681,0 q 0.28649,0 0.50137,0.15757 0.22919,0.15757 0.30081,0.53001 l 0.27217,1.57572 q 0.4011,-0.68759 0.91679,-1.17463 0.51569,-0.50136 1.103,-0.8165 0.60164,-0.32947 1.23192,-0.48705 0.64462,-0.15757 1.30355,-0.15757 0.65894,0 1.36085,0.21487 0.71624,0.20055 1.37517,0.63029 0.65894,0.41542 1.23193,1.03138 0.58731,0.61596 1.00273,1.43247 0.42974,-0.84516 0.97408,-1.46112 0.55866,-0.63029 1.20328,-1.03138 0.64461,-0.41542 1.34652,-0.61596 0.71623,-0.20055 1.46112,-0.20055 0.95976,0 1.97681,0.40109 1.01705,0.38677 1.84789,1.24626 0.84516,0.84515 1.37517,2.206 0.54434,1.36085 0.54434,3.29469 l 0,10.19919 q 0,0.58731 -0.53001,0.58731 l -2.93657,0 q -0.53002,0 -0.53002,-0.58731 l 0,-10.54299 q 0,-0.48704 -0.15757,-1.06003 -0.14324,-0.57299 -0.47271,-1.06003 -0.32947,-0.48704 -0.85949,-0.80218 -0.53001,-0.32947 -1.28922,-0.32947 -0.58731,0 -1.14598,0.27217 -0.55866,0.27217 -1.01705,0.75921 -0.44407,0.47272 -0.71624,1.13165 -0.27217,0.64462 -0.27217,1.3895 l 0,10.24217 z"
           style="font-style:normal;font-variant:normal;font-weight:600;font-stretch:normal;font-family:'Cocogoose Narrow Trial';-inkscape-font-specification:'Cocogoose Narrow Trial Semi-Bold';text-align:center;text-anchor:middle"
           id="path4226" />
        <path
           d="m 441.9341,796.168 q 0,-1.63301 0.58731,-3.00819 0.58731,-1.38949 1.61869,-2.3779 1.03138,-1.00273 2.4352,-1.56139 1.41815,-0.55867 3.05117,-0.55867 0.74488,0 1.54707,0.20055 0.80218,0.18622 1.56139,0.58731 0.75921,0.40109 1.43247,1.03138 0.67326,0.63029 1.17463,1.5041 0.51569,0.8738 0.81651,2.01978 0.30082,1.13165 0.30082,2.5498 l 0,1.40382 q 0,0.65894 -0.31515,0.90246 -0.30082,0.24352 -0.94543,0.22919 l -9.39701,0 0,0.44407 q 0,0.90246 0.28649,1.63302 0.2865,0.71623 0.78786,1.23192 0.50137,0.51569 1.17463,0.78786 0.68759,0.27217 1.48977,0.27217 0.80218,0 1.51842,-0.32947 0.71624,-0.32946 1.2749,-1.13165 0.14325,-0.20054 0.28649,-0.21487 0.15758,-0.0286 0.27217,0.043 l 2.46385,1.28923 q 0.12893,0.10027 0.14325,0.25784 0.0287,0.15758 -0.12892,0.41542 -0.41542,0.67326 -1.00273,1.26058 -0.57299,0.58731 -1.30355,1.03137 -0.73056,0.44407 -1.60437,0.68759 -0.85948,0.25785 -1.83356,0.25785 -1.63302,0 -3.03684,-0.55867 -1.40382,-0.55866 -2.4352,-1.54707 -1.03138,-0.9884 -1.63302,-2.34925 -0.58731,-1.36085 -0.58731,-2.97954 l 0,-3.42361 z m 3.86767,0.0143 7.03343,0 0,-0.086 q 0,-0.65894 -0.17189,-1.34652 -0.15757,-0.68759 -0.54434,-1.24625 -0.37244,-0.55867 -1.00273,-0.91679 -0.63029,-0.37244 -1.57572,-0.37244 -0.91678,0 -1.61869,0.32947 -0.68759,0.32947 -1.1603,0.87381 -0.47272,0.53001 -0.71624,1.23192 -0.24352,0.68759 -0.24352,1.40383 l 0,0.12892 z"
           style="font-style:normal;font-variant:normal;font-weight:600;font-stretch:normal;font-family:'Cocogoose Narrow Trial';-inkscape-font-specification:'Cocogoose Narrow Trial Semi-Bold';text-align:center;text-anchor:middle"
           id="path4228" />
        <path
           d="m 82.165335,855.47232 q 0,-0.54434 0.51569,-0.54434 l 13.364958,0 q 0.530014,0 0.530014,0.54434 l 0,2.73602 q 0,0.54434 -0.530014,0.54434 l -4.684182,0 0,16.04368 q 0,0.55866 -0.515689,0.55866 l -3.00819,0 q -0.472716,0 -0.472716,-0.55866 l 0,-16.04368 -4.684181,0 q -0.51569,0 -0.51569,-0.55867 l 0,-2.72169 z"
           style="font-style:normal;font-variant:normal;font-weight:600;font-stretch:normal;font-family:'Cocogoose Narrow Trial';-inkscape-font-specification:'Cocogoose Narrow Trial Semi-Bold';text-align:center;text-anchor:middle"
           id="path4230" />
        <path
           d="m 109.58642,864.61149 q 0,-0.73057 -0.27217,-1.3895 -0.27217,-0.67326 -0.73056,-1.1603 -0.45839,-0.50137 -1.07436,-0.78786 -0.60163,-0.30082 -1.28922,-0.30082 -0.65894,0 -1.28922,0.25784 -0.63029,0.25785 -1.13166,0.71624 -0.48704,0.45839 -0.80218,1.08868 -0.31514,0.61596 -0.34379,1.34652 l 0,10.38542 q 0,0.28649 -0.25785,0.44406 -0.24352,0.14325 -0.50136,0.14325 l -2.678724,0 q -0.558664,0 -0.558664,-0.58731 l 0,-21.48707 q 0,-0.58732 0.558664,-0.58732 l 2.650074,0 q 0.28649,0 0.53001,0.12893 0.25785,0.12892 0.25785,0.55866 l 0,6.38882 q 0.73056,-1.06003 1.83356,-1.70464 1.11733,-0.64461 2.65007,-0.64461 1.08868,0 2.22033,0.47271 1.14598,0.47272 2.07709,1.3895 0.94543,0.90246 1.54707,2.22033 0.60163,1.31788 0.60163,3.00819 l 0,10.27082 q 0,0.57299 -0.53001,0.57299 l -2.92224,0 q -0.54434,0 -0.54434,-0.57299 l 0,-10.17054 z"
           style="font-style:normal;font-variant:normal;font-weight:600;font-stretch:normal;font-family:'Cocogoose Narrow Trial';-inkscape-font-specification:'Cocogoose Narrow Trial Semi-Bold';text-align:center;text-anchor:middle"
           id="path4232" />
        <path
           d="m 116.99588,864.86933 q 0,-1.57572 0.54434,-2.93657 0.54433,-1.36084 1.48977,-2.36357 0.95975,-1.00273 2.24898,-1.57572 1.30355,-0.57299 2.80764,-0.57299 0.74489,0 1.3895,0.21487 0.65893,0.21487 1.2176,0.60164 0.57299,0.37244 1.03138,0.90245 0.47271,0.53002 0.84516,1.14598 l 0.30081,-1.89086 q 0.1146,-0.58731 0.73056,-0.58731 l 1.86222,0 q 0.57299,0 0.57299,0.58731 l 0,16.37315 q 0,0.28649 -0.15758,0.44406 -0.14324,0.14325 -0.40109,0.14325 l -1.93383,0 q -0.25785,0 -0.44407,-0.14325 -0.18622,-0.15757 -0.2292,-0.44406 l -0.27217,-1.90519 q -0.37244,0.63029 -0.84515,1.17463 -0.45839,0.53001 -1.03138,0.91678 -0.55867,0.38677 -1.23193,0.60164 -0.65893,0.22919 -1.40382,0.22919 -1.50409,0 -2.80764,-0.57299 -1.28923,-0.57299 -2.24898,-1.56139 -0.94544,-1.00273 -1.48977,-2.34925 -0.54434,-1.36085 -0.54434,-2.92225 l 0,-3.50955 z m 3.86767,3.58118 q 0,0.81651 0.27217,1.50409 0.27217,0.68759 0.74488,1.18895 0.47272,0.50137 1.11733,0.78786 0.65894,0.2865 1.41815,0.2865 0.77353,0 1.44679,-0.27217 0.67327,-0.27217 1.17463,-0.74489 0.50137,-0.48704 0.80219,-1.14597 0.31514,-0.65894 0.34379,-1.43247 l 0,-4.02525 q -0.0286,-0.78786 -0.34379,-1.4468 -0.30082,-0.65893 -0.80219,-1.14597 -0.50136,-0.48704 -1.17463,-0.75921 -0.67326,-0.27217 -1.44679,-0.27217 -0.75921,0 -1.41815,0.28649 -0.64461,0.2865 -1.11733,0.80219 -0.47271,0.50136 -0.74488,1.18895 -0.27217,0.68758 -0.27217,1.50409 l 0,3.69578 z"
           style="font-style:normal;font-variant:normal;font-weight:600;font-stretch:normal;font-family:'Cocogoose Narrow Trial';-inkscape-font-specification:'Cocogoose Narrow Trial Semi-Bold';text-align:center;text-anchor:middle"
           id="path4234" />
        <path
           d="m 147.45738,864.61149 q 0,-0.73057 -0.27217,-1.3895 -0.27217,-0.67326 -0.73056,-1.1603 -0.45839,-0.50137 -1.07435,-0.78786 -0.60164,-0.30082 -1.28923,-0.30082 -0.65893,0 -1.28922,0.25784 -0.63029,0.25785 -1.13165,0.71624 -0.48705,0.45839 -0.80219,1.08868 -0.31514,0.61596 -0.34379,1.34652 l 0,10.38542 q 0,0.28649 -0.25785,0.44406 -0.24352,0.14325 -0.50136,0.14325 l -2.67872,0 q -0.55867,0 -0.55867,-0.58731 l 0,-16.37315 q 0,-0.58731 0.55867,-0.58731 l 1.99113,0 q 0.2865,0 0.48704,0.12892 0.21487,0.12892 0.30082,0.55866 l 0.2865,1.71897 q 0.73056,-1.2749 1.91951,-2.03411 1.20327,-0.75921 2.93656,-0.75921 1.08868,0 2.22033,0.47271 1.14598,0.47272 2.07709,1.3895 0.94543,0.90246 1.54707,2.22033 0.60163,1.31788 0.60163,3.00819 l 0,10.27082 q 0,0.57299 -0.53001,0.57299 l -2.92224,0 q -0.54434,0 -0.54434,-0.57299 l 0,-10.17054 z"
           style="font-style:normal;font-variant:normal;font-weight:600;font-stretch:normal;font-family:'Cocogoose Narrow Trial';-inkscape-font-specification:'Cocogoose Narrow Trial Semi-Bold';text-align:center;text-anchor:middle"
           id="path4236" />
        <path
           d="m 164.22088,864.98393 6.07367,9.43998 q 0.1146,0.1719 0.1146,0.3438 0.0143,0.17189 -0.0573,0.30082 -0.0716,0.12892 -0.20054,0.21487 -0.1146,0.0716 -0.24352,0.0716 l -3.32334,0 q -0.24352,0 -0.40109,-0.10027 -0.14325,-0.1146 -0.32947,-0.40109 l -4.19714,-7.03344 -1.84789,1.59004 0,5.37177 q 0,0.2865 -0.11459,0.42974 -0.1146,0.14325 -0.4011,0.14325 l -2.93656,0 q -0.54434,0 -0.54434,-0.57299 l 0,-21.51572 q 0,-0.57299 0.54434,-0.57299 l 2.93656,0 q 0.51569,0 0.51569,0.57299 l 0,11.54572 5.35745,-6.61802 q 0.22919,-0.27217 0.41541,-0.32946 0.18622,-0.0573 0.44407,-0.0573 l 2.96521,0 q 0.21488,0 0.3438,0.10027 0.14324,0.10027 0.20054,0.24352 0.0716,0.14325 0.043,0.31514 -0.0143,0.15757 -0.12892,0.2865 l -5.22852,6.23125 z"
           style="font-style:normal;font-variant:normal;font-weight:600;font-stretch:normal;font-family:'Cocogoose Narrow Trial';-inkscape-font-specification:'Cocogoose Narrow Trial Semi-Bold';text-align:center;text-anchor:middle"
           id="path4238" />
        <path
           d="m 187.11893,880.97031 q -0.20055,0.51569 -0.70192,0.51569 l -2.47817,0 q -0.45839,0 -0.65894,-0.27217 -0.18622,-0.27217 0,-0.74489 l 1.86221,-5.21419 -5.95908,-16.53072 q -0.15757,-0.45839 -0.0143,-0.68759 0.15757,-0.22919 0.50136,-0.22919 l 2.97954,0 q 0.50137,0 0.65894,0.55866 l 3.38063,10.52866 0.44407,2.34926 0.45839,-2.36358 3.36631,-10.57164 q 0.0716,-0.28649 0.25784,-0.40109 0.18622,-0.1146 0.4011,-0.1146 l 3.13711,0 q 0.31514,0 0.40109,0.21487 0.10027,0.20055 -0.0573,0.61596 l -7.97886,22.34656 z"
           style="font-style:normal;font-variant:normal;font-weight:600;font-stretch:normal;font-family:'Cocogoose Narrow Trial';-inkscape-font-specification:'Cocogoose Narrow Trial Semi-Bold';text-align:center;text-anchor:middle"
           id="path4240" />
        <path
           d="m 196.65919,864.86933 q 0,-1.57572 0.57299,-2.93657 0.58731,-1.36084 1.59004,-2.36357 1.01705,-1.00273 2.3779,-1.57572 1.37517,-0.57299 2.95089,-0.57299 1.59005,0 2.96522,0.57299 1.37517,0.57299 2.39223,1.57572 1.01705,1.00273 1.59004,2.36357 0.58731,1.36085 0.58731,2.93657 l 0,3.50955 q 0,1.5614 -0.58731,2.92225 -0.57299,1.34652 -1.59004,2.34925 -1.01706,0.9884 -2.39223,1.56139 -1.36085,0.57299 -2.95089,0.57299 -1.59005,0 -2.96522,-0.57299 -1.36085,-0.57299 -2.3779,-1.56139 -1.00273,-1.00273 -1.59004,-2.34925 -0.57299,-1.36085 -0.57299,-2.92225 l 0,-3.50955 z m 3.86767,3.58118 q 0,0.81651 0.27217,1.50409 0.27217,0.68759 0.75921,1.18895 0.48704,0.50137 1.14598,0.78786 0.67326,0.2865 1.47544,0.2865 0.78786,0 1.46112,-0.2865 0.67326,-0.28649 1.16031,-0.78786 0.50136,-0.50136 0.77353,-1.18895 0.27217,-0.68758 0.27217,-1.48977 l 0,-3.7101 q 0,-0.81651 -0.27217,-1.50409 -0.27217,-0.68759 -0.77353,-1.18895 -0.48705,-0.51569 -1.16031,-0.80219 -0.67326,-0.28649 -1.46112,-0.28649 -0.80218,0 -1.47544,0.28649 -0.65894,0.2865 -1.14598,0.80219 -0.48704,0.50136 -0.75921,1.18895 -0.27217,0.68758 -0.27217,1.50409 l 0,3.69578 z"
           style="font-style:normal;font-variant:normal;font-weight:600;font-stretch:normal;font-family:'Cocogoose Narrow Trial';-inkscape-font-specification:'Cocogoose Narrow Trial Semi-Bold';text-align:center;text-anchor:middle"
           id="path4242" />
        <path
           d="m 219.13108,868.737 q 0.0286,0.71624 0.30082,1.36085 0.28649,0.63029 0.74488,1.103 0.45839,0.47272 1.04571,0.75921 0.60163,0.27217 1.2749,0.27217 0.65893,0 1.28922,-0.25784 0.63029,-0.25785 1.11733,-0.70191 0.50136,-0.45839 0.81651,-1.07436 0.31514,-0.63028 0.34379,-1.36084 l 0,-10.44272 q 0,-0.28649 0.24352,-0.42974 0.25784,-0.15757 0.51569,-0.15757 l 2.69305,0 q 0.54433,0 0.54433,0.58731 l 0,16.37315 q 0,0.58731 -0.55866,0.58731 l -1.97681,0 q -0.28649,0 -0.50136,-0.12892 -0.21488,-0.14325 -0.30082,-0.55867 l -0.2865,-1.67599 q -0.73056,1.28923 -1.93383,2.04844 -1.18896,0.74488 -2.92225,0.74488 -1.07435,0 -2.22033,-0.47271 -1.14597,-0.47272 -2.0914,-1.37518 -0.93111,-0.90245 -1.53275,-2.22033 -0.60164,-1.31787 -0.60164,-3.02251 l 0,-10.3138 q 0,-0.57298 0.54434,-0.57298 l 2.90792,0 q 0.54434,0 0.54434,0.57298 l 0,10.35677 z"
           style="font-style:normal;font-variant:normal;font-weight:600;font-stretch:normal;font-family:'Cocogoose Narrow Trial';-inkscape-font-specification:'Cocogoose Narrow Trial Semi-Bold';text-align:center;text-anchor:middle"
           id="path4244" />
        <path
           d="m 242.82416,861.44572 -1.84789,0 q -0.24352,0 -0.40109,-0.11459 -0.14325,-0.12893 -0.14325,-0.38677 l 0,-2.63575 q 0,-0.24352 0.14325,-0.37244 0.15757,-0.12892 0.40109,-0.12892 l 1.84789,0 q 0,-1.40383 0.28649,-2.52115 0.2865,-1.13166 1.01706,-1.86222 0.73056,-0.74488 1.97681,-1.03138 1.24625,-0.30081 3.18008,-0.043 0.42974,0.0573 0.57299,0.2292 0.15757,0.17189 0.15757,0.54433 l 0,1.79059 q 0,0.35812 -0.20054,0.54434 -0.18622,0.1719 -0.54434,0.10028 -0.73056,-0.1146 -1.20328,-0.0286 -0.45839,0.0716 -0.74488,0.35811 -0.27217,0.27217 -0.38677,0.75921 -0.1146,0.47272 -0.12892,1.16031 l 2.65007,0 q 0.24352,0 0.38677,0.15757 0.14324,0.14325 0.14324,0.34379 l 0,2.63575 q 0,0.25784 -0.14324,0.38677 -0.14325,0.11459 -0.38677,0.11459 l -2.65007,0 0,13.35064 q 0,0.55866 -0.50137,0.55866 l -2.96521,0 q -0.51569,0 -0.51569,-0.55866 l 0,-13.35064 z"
           style="font-style:normal;font-variant:normal;font-weight:600;font-stretch:normal;font-family:'Cocogoose Narrow Trial';-inkscape-font-specification:'Cocogoose Narrow Trial Semi-Bold';text-align:center;text-anchor:middle"
           id="path4246" />
        <path
           d="m 251.82723,864.86933 q 0,-1.57572 0.57299,-2.93657 0.58731,-1.36084 1.59004,-2.36357 1.01706,-1.00273 2.37791,-1.57572 1.37517,-0.57299 2.95089,-0.57299 1.59004,0 2.96521,0.57299 1.37518,0.57299 2.39223,1.57572 1.01706,1.00273 1.59004,2.36357 0.58732,1.36085 0.58732,2.93657 l 0,3.50955 q 0,1.5614 -0.58732,2.92225 -0.57298,1.34652 -1.59004,2.34925 -1.01705,0.9884 -2.39223,1.56139 -1.36084,0.57299 -2.95089,0.57299 -1.59004,0 -2.96521,-0.57299 -1.36085,-0.57299 -2.37791,-1.56139 -1.00273,-1.00273 -1.59004,-2.34925 -0.57299,-1.36085 -0.57299,-2.92225 l 0,-3.50955 z m 3.86768,3.58118 q 0,0.81651 0.27217,1.50409 0.27216,0.68759 0.7592,1.18895 0.48705,0.50137 1.14598,0.78786 0.67326,0.2865 1.47545,0.2865 0.78786,0 1.46112,-0.2865 0.67326,-0.28649 1.1603,-0.78786 0.50137,-0.50136 0.77353,-1.18895 0.27217,-0.68758 0.27217,-1.48977 l 0,-3.7101 q 0,-0.81651 -0.27217,-1.50409 -0.27216,-0.68759 -0.77353,-1.18895 -0.48704,-0.51569 -1.1603,-0.80219 -0.67326,-0.28649 -1.46112,-0.28649 -0.80219,0 -1.47545,0.28649 -0.65893,0.2865 -1.14598,0.80219 -0.48704,0.50136 -0.7592,1.18895 -0.27217,0.68758 -0.27217,1.50409 l 0,3.69578 z"
           style="font-style:normal;font-variant:normal;font-weight:600;font-stretch:normal;font-family:'Cocogoose Narrow Trial';-inkscape-font-specification:'Cocogoose Narrow Trial Semi-Bold';text-align:center;text-anchor:middle"
           id="path4248" />
        <path
           d="m 270.44579,858.39456 q 0,-0.58731 0.55866,-0.58731 l 1.94817,0 q 0.28649,0 0.50136,0.14324 0.2292,0.12893 0.31514,0.54434 l 0.30082,1.76194 q 0.32947,-0.57299 0.74489,-1.08868 0.41541,-0.51569 0.94543,-0.90245 0.53001,-0.38677 1.1603,-0.61597 0.63029,-0.22919 1.3895,-0.22919 0.64461,0 1.20327,0.1146 0.55867,0.10027 1.01706,0.27217 0.45839,0.15757 0.78786,0.34379 0.32947,0.1719 0.53001,0.31514 0.30082,0.2292 0.3438,0.50137 0.043,0.25784 -0.043,0.50136 l -0.58731,2.27763 q -0.043,0.12892 -0.15757,0.21487 -0.1146,0.086 -0.25785,0.1146 -0.14325,0.0143 -0.30082,0 -0.14324,-0.0286 -0.25784,-0.1146 -0.30082,-0.22919 -0.60164,-0.41541 -0.28649,-0.18622 -0.61596,-0.31515 -0.31515,-0.12892 -0.70191,-0.18622 -0.38677,-0.0716 -0.87381,-0.0716 -0.65894,0 -1.26058,0.21487 -0.60163,0.21487 -1.07435,0.65894 -0.45839,0.44406 -0.74489,1.11732 -0.27216,0.67326 -0.27216,1.59005 l 0,10.21352 q 0,0.28649 -0.18623,0.44406 -0.18622,0.14325 -0.45839,0.14325 l -2.79332,0 q -0.55866,0 -0.55866,-0.58731 l 0,-16.37315 z"
           style="font-style:normal;font-variant:normal;font-weight:600;font-stretch:normal;font-family:'Cocogoose Narrow Trial';-inkscape-font-specification:'Cocogoose Narrow Trial Semi-Bold';text-align:center;text-anchor:middle"
           id="path4250" />
        <path
           d="m 307.49666,868.37888 q 0,1.5614 -0.54434,2.92225 -0.54434,1.34652 -1.50409,2.34925 -0.94543,0.9884 -2.24898,1.56139 -1.28923,0.57299 -2.79332,0.57299 -1.30355,0 -2.33493,-0.63029 -1.01706,-0.63028 -1.74762,-1.64734 l 0,6.73262 q 0,0.28649 -0.21487,0.44406 -0.20054,0.15758 -0.45839,0.15758 l -2.62142,0 q -0.25784,0 -0.41542,-0.15758 -0.14324,-0.15757 -0.14324,-0.44406 l 0,-21.84519 q 0,-0.28649 0.14324,-0.42974 0.15758,-0.15757 0.41542,-0.15757 l 1.87654,0 q 0.60164,0 0.73056,0.58731 l 0.28649,1.89086 q 0.37244,-0.61596 0.83084,-1.14598 0.47271,-0.53001 1.03138,-0.90245 0.57298,-0.38677 1.23192,-0.60164 0.65894,-0.21487 1.40382,-0.21487 1.5041,0 2.79332,0.57299 1.30355,0.57299 2.24898,1.57572 0.94543,1.00273 1.48977,2.36357 0.54434,1.36085 0.54434,2.93657 l 0,3.50955 z m -3.86767,-3.62415 q 0,-0.81651 -0.27217,-1.50409 -0.27217,-0.68759 -0.74489,-1.18895 -0.47271,-0.51569 -1.13165,-0.80219 -0.64461,-0.28649 -1.3895,-0.28649 -0.77353,0 -1.46112,0.27217 -0.67326,0.27217 -1.17462,0.75921 -0.50137,0.48704 -0.80219,1.14597 -0.30082,0.65894 -0.32947,1.4468 l 0,3.86767 q 0,0.80219 0.2865,1.48977 0.28649,0.68759 0.78786,1.18895 0.51569,0.50137 1.20327,0.78786 0.68759,0.2865 1.48977,0.2865 0.74489,0 1.3895,-0.2865 0.65894,-0.28649 1.13165,-0.78786 0.47272,-0.50136 0.74489,-1.18895 0.27217,-0.68758 0.27217,-1.50409 l 0,-3.69578 z"
           style="font-style:normal;font-variant:normal;font-weight:600;font-stretch:normal;font-family:'Cocogoose Narrow Trial';-inkscape-font-specification:'Cocogoose Narrow Trial Semi-Bold';text-align:center;text-anchor:middle"
           id="path4252" />
        <path
           d="m 311.01338,853.26631 q 0,-0.57299 0.53002,-0.57299 l 2.95089,0 q 0.51569,0 0.51569,0.57299 l 0,21.51572 q 0,0.57299 -0.51569,0.57299 l -2.95089,0 q -0.53002,0 -0.53002,-0.57299 l 0,-21.51572 z"
           style="font-style:normal;font-variant:normal;font-weight:600;font-stretch:normal;font-family:'Cocogoose Narrow Trial';-inkscape-font-specification:'Cocogoose Narrow Trial Semi-Bold';text-align:center;text-anchor:middle"
           id="path4254" />
        <path
           d="m 318.54459,864.86933 q 0,-1.57572 0.54434,-2.93657 0.54434,-1.36084 1.48977,-2.36357 0.95976,-1.00273 2.24898,-1.57572 1.30355,-0.57299 2.80765,-0.57299 0.74488,0 1.38949,0.21487 0.65894,0.21487 1.21761,0.60164 0.57298,0.37244 1.03137,0.90245 0.47272,0.53002 0.84516,1.14598 l 0.30082,-1.89086 q 0.1146,-0.58731 0.73056,-0.58731 l 1.86222,0 q 0.57298,0 0.57298,0.58731 l 0,16.37315 q 0,0.28649 -0.15757,0.44406 -0.14325,0.14325 -0.40109,0.14325 l -1.93384,0 q -0.25784,0 -0.44406,-0.14325 -0.18622,-0.15757 -0.2292,-0.44406 l -0.27217,-1.90519 q -0.37244,0.63029 -0.84516,1.17463 -0.45839,0.53001 -1.03138,0.91678 -0.55866,0.38677 -1.23192,0.60164 -0.65894,0.22919 -1.40382,0.22919 -1.5041,0 -2.80765,-0.57299 -1.28922,-0.57299 -2.24898,-1.56139 -0.94543,-1.00273 -1.48977,-2.34925 -0.54434,-1.36085 -0.54434,-2.92225 l 0,-3.50955 z m 3.86768,3.58118 q 0,0.81651 0.27217,1.50409 0.27217,0.68759 0.74488,1.18895 0.47272,0.50137 1.11733,0.78786 0.65894,0.2865 1.41815,0.2865 0.77353,0 1.44679,-0.27217 0.67326,-0.27217 1.17463,-0.74489 0.50136,-0.48704 0.80218,-1.14597 0.31515,-0.65894 0.3438,-1.43247 l 0,-4.02525 q -0.0286,-0.78786 -0.3438,-1.4468 -0.30082,-0.65893 -0.80218,-1.14597 -0.50137,-0.48704 -1.17463,-0.75921 -0.67326,-0.27217 -1.44679,-0.27217 -0.75921,0 -1.41815,0.28649 -0.64461,0.2865 -1.11733,0.80219 -0.47271,0.50136 -0.74488,1.18895 -0.27217,0.68758 -0.27217,1.50409 l 0,3.69578 z"
           style="font-style:normal;font-variant:normal;font-weight:600;font-stretch:normal;font-family:'Cocogoose Narrow Trial';-inkscape-font-specification:'Cocogoose Narrow Trial Semi-Bold';text-align:center;text-anchor:middle"
           id="path4256" />
        <path
           d="m 344.35057,880.97031 q -0.20055,0.51569 -0.70191,0.51569 l -2.47818,0 q -0.45839,0 -0.65893,-0.27217 -0.18623,-0.27217 0,-0.74489 l 1.86221,-5.21419 -5.95908,-16.53072 q -0.15757,-0.45839 -0.0143,-0.68759 0.15757,-0.22919 0.50137,-0.22919 l 2.97954,0 q 0.50136,0 0.65894,0.55866 l 3.38063,10.52866 0.44406,2.34926 0.45839,-2.36358 3.36631,-10.57164 q 0.0716,-0.28649 0.25785,-0.40109 0.18622,-0.1146 0.40109,-0.1146 l 3.13711,0 q 0.31515,0 0.40109,0.21487 0.10028,0.20055 -0.0573,0.61596 l -7.97886,22.34656 z"
           style="font-style:normal;font-variant:normal;font-weight:600;font-stretch:normal;font-family:'Cocogoose Narrow Trial';-inkscape-font-specification:'Cocogoose Narrow Trial Semi-Bold';text-align:center;text-anchor:middle"
           id="path4258" />
        <path
           d="m 355.15856,858.35159 q 0,-0.25785 0.15757,-0.4011 0.1719,-0.14324 0.38677,-0.14324 l 2.92224,0 q 0.24352,0 0.38677,0.15757 0.14324,0.15757 0.14324,0.40109 l 0,16.43045 q 0,0.55866 -0.53001,0.55866 l -2.92224,0 q -0.54434,0 -0.54434,-0.55866 l 0,-16.44477 z m -0.0716,-5.37177 q 0,-0.38677 0.18622,-0.64461 0.20054,-0.25785 0.70191,-0.25785 l 2.44952,0 q 0.44407,0 0.63029,0.24352 0.18622,0.24352 0.18622,0.65894 l 0,2.2633 q 0,0.47272 -0.21487,0.64461 -0.21487,0.1719 -0.60164,0.1719 l -2.44952,0 q -0.40109,0 -0.64461,-0.1719 -0.24352,-0.17189 -0.24352,-0.63028 l 0,-2.27763 z"
           style="font-style:normal;font-variant:normal;font-weight:600;font-stretch:normal;font-family:'Cocogoose Narrow Trial';-inkscape-font-specification:'Cocogoose Narrow Trial Semi-Bold';text-align:center;text-anchor:middle"
           id="path4260" />
        <path
           d="m 374.57571,864.61149 q 0,-0.73057 -0.27217,-1.3895 -0.27217,-0.67326 -0.73056,-1.1603 -0.45839,-0.50137 -1.07435,-0.78786 -0.60164,-0.30082 -1.28923,-0.30082 -0.65893,0 -1.28922,0.25784 -0.63029,0.25785 -1.13165,0.71624 -0.48704,0.45839 -0.80219,1.08868 -0.31514,0.61596 -0.34379,1.34652 l 0,10.38542 q 0,0.28649 -0.25784,0.44406 -0.24352,0.14325 -0.50137,0.14325 l -2.67872,0 q -0.55867,0 -0.55867,-0.58731 l 0,-16.37315 q 0,-0.58731 0.55867,-0.58731 l 1.99113,0 q 0.2865,0 0.48704,0.12892 0.21487,0.12892 0.30082,0.55866 l 0.2865,1.71897 q 0.73056,-1.2749 1.91951,-2.03411 1.20328,-0.75921 2.93657,-0.75921 1.08867,0 2.22033,0.47271 1.14597,0.47272 2.07708,1.3895 0.94543,0.90246 1.54707,2.22033 0.60164,1.31788 0.60164,3.00819 l 0,10.27082 q 0,0.57299 -0.53002,0.57299 l -2.92224,0 q -0.54434,0 -0.54434,-0.57299 l 0,-10.17054 z"
           style="font-style:normal;font-variant:normal;font-weight:600;font-stretch:normal;font-family:'Cocogoose Narrow Trial';-inkscape-font-specification:'Cocogoose Narrow Trial Semi-Bold';text-align:center;text-anchor:middle"
           id="path4262" />
        <path
           d="m 397.02611,872.97712 q 0,2.2633 -0.64461,3.882 -0.63029,1.61869 -1.71897,2.65007 -1.07435,1.03138 -2.50682,1.50409 -1.41815,0.48704 -2.97954,0.45839 -0.78786,-0.0143 -1.57572,-0.14324 -0.77354,-0.1146 -1.51842,-0.37245 -0.73056,-0.24352 -1.40382,-0.61596 -0.67326,-0.37244 -1.23193,-0.87381 -0.25784,-0.22919 -0.21487,-0.44406 0.0573,-0.20055 0.1719,-0.37245 l 1.3322,-1.51841 q 0.17189,-0.25785 0.41541,-0.2865 0.25785,-0.0143 0.51569,0.18622 0.80219,0.54434 1.66167,0.74489 0.87381,0.20054 1.77626,0.20054 0.93111,0 1.676,-0.30082 0.75921,-0.30081 1.28922,-0.85948 0.53001,-0.54434 0.80218,-1.3322 0.2865,-0.78786 0.2865,-1.76194 l -0.0143,-0.84515 q -0.37244,0.55866 -0.81651,1.01705 -0.42974,0.45839 -0.94543,0.80218 -0.50136,0.32947 -1.08867,0.51569 -0.57299,0.18622 -1.21761,0.18622 -1.50409,0 -2.80764,-0.57298 -1.28922,-0.57299 -2.24898,-1.5614 -0.94543,-1.00273 -1.48977,-2.34925 -0.54434,-1.36085 -0.54434,-2.93657 l 0,-3.10846 q 0,-1.57572 0.54434,-2.93657 0.54434,-1.36084 1.48977,-2.36357 0.95976,-1.00273 2.24898,-1.57572 1.30355,-0.57299 2.80764,-0.57299 0.74489,0 1.3895,0.21487 0.65894,0.21487 1.2176,0.60164 0.57299,0.37244 1.03138,0.90245 0.47272,0.53002 0.84516,1.14598 l 0.30082,-1.89086 q 0.1146,-0.58731 0.73056,-0.58731 l 1.86221,0 q 0.57299,0 0.57299,0.58731 l 0,14.58256 z m -11.17328,-4.91338 q 0,0.81651 0.27217,1.5041 0.27217,0.68758 0.74489,1.18895 0.47271,0.50136 1.11733,0.78786 0.65893,0.28649 1.41814,0.28649 0.77354,0 1.4468,-0.27217 0.67326,-0.27217 1.17463,-0.74488 0.50136,-0.48704 0.80218,-1.14598 0.31514,-0.65894 0.34379,-1.43247 l 0,-3.63848 q -0.0286,-0.78786 -0.34379,-1.4468 -0.30082,-0.65893 -0.80218,-1.14597 -0.50137,-0.48704 -1.17463,-0.75921 -0.67326,-0.27217 -1.4468,-0.27217 -0.75921,0 -1.41814,0.28649 -0.64462,0.2865 -1.11733,0.80219 -0.47272,0.50136 -0.74489,1.18895 -0.27217,0.68758 -0.27217,1.50409 l 0,3.30901 z"
           style="font-style:normal;font-variant:normal;font-weight:600;font-stretch:normal;font-family:'Cocogoose Narrow Trial';-inkscape-font-specification:'Cocogoose Narrow Trial Semi-Bold';text-align:center;text-anchor:middle"
           id="path4264" />
        <path
           d="m 179.16334,900.22272 q 0,-0.20054 0.12893,-0.31514 0.12892,-0.12892 0.30082,-0.12892 l 11.14462,0 q 0.18622,0 0.30082,0.1146 0.12892,0.10027 0.12892,0.30081 l 0,2.24898 q 0,0.18623 -0.14324,0.30082 -0.12893,0.1146 -0.30082,0.1146 l -11.14463,0 q -0.1146,0 -0.27217,-0.086 -0.14325,-0.10027 -0.14325,-0.32947 l 0,-2.22033 z"
           style="font-style:normal;font-variant:normal;font-weight:600;font-stretch:normal;font-family:'Cocogoose Narrow Trial';-inkscape-font-specification:'Cocogoose Narrow Trial Semi-Bold';text-align:center;text-anchor:middle"
           id="path4266" />
        <path
           d="m 202.64155,889.88028 q 0,-0.57299 0.54434,-0.57299 l 7.13371,0 q 1.33219,0 2.47817,0.48704 1.14598,0.47272 1.99114,1.28923 0.84516,0.8165 1.31787,1.90518 0.48704,1.08868 0.48704,2.30628 l 0,1.1603 q 0,0.81651 -0.24352,1.59005 -0.24352,0.77353 -0.67326,1.47544 -0.42974,0.68759 -1.03138,1.2749 -0.58731,0.57299 -1.28922,0.98841 l 0.55866,0.84516 2.85062,6.51774 q 0.086,0.20055 0,0.40109 -0.0859,0.18622 -0.32947,0.18622 l -3.56685,0 q -0.2292,0 -0.35812,-0.10027 -0.1146,-0.10027 -0.2292,-0.38677 l -2.65007,-6.60369 -3.07981,0 0,6.53207 q 0,0.27217 -0.1146,0.41542 -0.10027,0.14324 -0.37244,0.14324 l -2.87927,0 q -0.54434,0 -0.54434,-0.55866 l 0,-19.29539 z m 3.91065,3.25171 0,5.80151 3.35198,0 q 0.57299,0 1.06003,-0.20055 0.50136,-0.20054 0.85948,-0.55866 0.37244,-0.35812 0.57299,-0.81651 0.20055,-0.47271 0.20055,-1.01705 l 0,-0.55867 q 0,-0.55866 -0.20055,-1.03138 -0.20055,-0.48704 -0.55866,-0.84516 -0.35812,-0.35811 -0.85949,-0.55866 -0.48704,-0.21487 -1.07435,-0.21487 l -3.35198,0 z"
           style="font-style:normal;font-variant:normal;font-weight:600;font-stretch:normal;font-family:'Cocogoose Narrow Trial';-inkscape-font-specification:'Cocogoose Narrow Trial Semi-Bold';text-align:center;text-anchor:middle"
           id="path4268" />
        <path
           d="m 218.92517,899.30594 q 0,-1.63302 0.58731,-3.00819 0.58731,-1.3895 1.61869,-2.3779 1.03138,-1.00273 2.4352,-1.56139 1.41815,-0.55867 3.05117,-0.55867 0.74488,0 1.54707,0.20055 0.80218,0.18622 1.56139,0.58731 0.75921,0.40109 1.43247,1.03138 0.67326,0.63029 1.17463,1.5041 0.51569,0.8738 0.81651,2.01978 0.30082,1.13165 0.30082,2.5498 l 0,1.40382 q 0,0.65894 -0.31515,0.90246 -0.30082,0.24352 -0.94543,0.22919 l -9.39701,0 0,0.44407 q 0,0.90246 0.28649,1.63302 0.2865,0.71623 0.78786,1.23192 0.50137,0.51569 1.17463,0.78786 0.68759,0.27217 1.48977,0.27217 0.80218,0 1.51842,-0.32947 0.71624,-0.32947 1.2749,-1.13165 0.14325,-0.20055 0.28649,-0.21487 0.15758,-0.0287 0.27217,0.043 l 2.46385,1.28923 q 0.12893,0.10027 0.14325,0.25784 0.0286,0.15757 -0.12892,0.41542 -0.41542,0.67326 -1.00273,1.26057 -0.57299,0.58732 -1.30355,1.03138 -0.73056,0.44407 -1.60437,0.68759 -0.85948,0.25784 -1.83356,0.25784 -1.63302,0 -3.03684,-0.55866 -1.40382,-0.55866 -2.4352,-1.54707 -1.03138,-0.9884 -1.63302,-2.34925 -0.58731,-1.36085 -0.58731,-2.97954 l 0,-3.42361 z m 3.86767,0.0143 7.03343,0 0,-0.086 q 0,-0.65894 -0.17189,-1.34652 -0.15757,-0.68759 -0.54434,-1.24625 -0.37244,-0.55867 -1.00273,-0.91679 -0.63029,-0.37244 -1.57572,-0.37244 -0.91678,0 -1.61869,0.32947 -0.68759,0.32947 -1.1603,0.87381 -0.47272,0.53001 -0.71624,1.23192 -0.24352,0.68759 -0.24352,1.40382 l 0,0.12893 z"
           style="font-style:normal;font-variant:normal;font-weight:600;font-stretch:normal;font-family:'Cocogoose Narrow Trial';-inkscape-font-specification:'Cocogoose Narrow Trial Semi-Bold';text-align:center;text-anchor:middle"
           id="path4270" />
        <path
           d="m 236.90985,887.64562 q 0,-0.57298 0.53001,-0.57298 l 2.95089,0 q 0.51569,0 0.51569,0.57298 l 0,21.51572 q 0,0.57299 -0.51569,0.57299 l -2.95089,0 q -0.53001,0 -0.53001,-0.57299 l 0,-21.51572 z"
           style="font-style:normal;font-variant:normal;font-weight:600;font-stretch:normal;font-family:'Cocogoose Narrow Trial';-inkscape-font-specification:'Cocogoose Narrow Trial Semi-Bold';text-align:center;text-anchor:middle"
           id="path4272" />
        <path
           d="m 246.203,895.82504 -1.86221,0 q -0.22919,0 -0.38677,-0.1146 -0.14324,-0.12892 -0.14324,-0.38677 l 0,-2.63575 q 0,-0.24352 0.14324,-0.37244 0.15758,-0.12892 0.38677,-0.12892 l 1.86221,0 q 0,-1.40382 0.2865,-2.52115 0.28649,-1.13165 1.00273,-1.86221 0.73056,-0.74489 1.97681,-1.03138 1.26057,-0.30082 3.19441,-0.043 0.42974,0.0573 0.57299,0.2292 0.15757,0.1719 0.15757,0.54434 l 0,1.79059 q 0,0.35811 -0.20055,0.54434 -0.20054,0.17189 -0.54434,0.10027 -0.73056,-0.1146 -1.20327,-0.0286 -0.45839,0.0716 -0.74489,0.35812 -0.27217,0.27217 -0.38676,0.75921 -0.1146,0.47271 -0.12893,1.1603 l 7.97887,0 q 0.0716,0 0.1146,0.0143 0.0143,0 0.0286,0.0143 0.0143,0 0.0287,0 l 0.0859,0.043 q 0.0286,0 0.0573,0.0286 0,0 0.0143,0.0143 0.17189,0.12892 0.20054,0.37244 l 0,16.50207 q 0,0.55866 -0.53001,0.55866 l -2.92224,0 q -0.54434,0 -0.54434,-0.55866 l 0,-13.35063 -4.51229,0 0,13.35063 q 0,0.55866 -0.50136,0.55866 l -2.97954,0 q -0.50137,0 -0.50137,-0.55866 l 0,-13.35063 z m 8.42293,-8.16509 q 0,-0.37244 0.18623,-0.63029 0.20054,-0.27217 0.70191,-0.27217 l 2.44952,0 q 0.44407,0 0.63029,0.24352 0.18622,0.24352 0.18622,0.67326 l 0,2.24898 q 0,0.47272 -0.21487,0.64462 -0.21487,0.17189 -0.60164,0.17189 l -2.44952,0 q -0.40109,0 -0.64461,-0.17189 -0.24353,-0.1719 -0.24353,-0.63029 l 0,-2.27763 z"
           style="font-style:normal;font-variant:normal;font-weight:600;font-stretch:normal;font-family:'Cocogoose Narrow Trial';-inkscape-font-specification:'Cocogoose Narrow Trial Semi-Bold';text-align:center;text-anchor:middle"
           id="path4274" />
        <path
           d="m 262.89846,892.77387 q 0,-0.58731 0.55866,-0.58731 l 1.94816,0 q 0.2865,0 0.50137,0.14325 0.22919,0.12892 0.31514,0.54434 l 0.30082,1.76194 q 0.32947,-0.57299 0.74489,-1.08868 0.41541,-0.51569 0.94543,-0.90246 0.53001,-0.38677 1.1603,-0.61596 0.63029,-0.2292 1.3895,-0.2292 0.64461,0 1.20327,0.1146 0.55867,0.10027 1.01706,0.27217 0.45839,0.15757 0.78786,0.34379 0.32946,0.1719 0.53001,0.31515 0.30082,0.22919 0.34379,0.50136 0.043,0.25785 -0.043,0.50137 l -0.58731,2.27763 q -0.043,0.12892 -0.15758,0.21487 -0.11459,0.0859 -0.25784,0.11459 -0.14325,0.0143 -0.30082,0 -0.14325,-0.0287 -0.25785,-0.11459 -0.30081,-0.2292 -0.60163,-0.41542 -0.2865,-0.18622 -0.61597,-0.31514 -0.31514,-0.12893 -0.70191,-0.18623 -0.38676,-0.0716 -0.8738,-0.0716 -0.65894,0 -1.26058,0.21487 -0.60164,0.21487 -1.07435,0.65894 -0.45839,0.44406 -0.74489,1.11733 -0.27217,0.67326 -0.27217,1.59004 l 0,10.21352 q 0,0.28649 -0.18622,0.44407 -0.18622,0.14324 -0.45839,0.14324 l -2.79332,0 q -0.55866,0 -0.55866,-0.58731 l 0,-16.37315 z"
           style="font-style:normal;font-variant:normal;font-weight:600;font-stretch:normal;font-family:'Cocogoose Narrow Trial';-inkscape-font-specification:'Cocogoose Narrow Trial Semi-Bold';text-align:center;text-anchor:middle"
           id="path4276" />
        <path
           d="m 291.28646,909.14702 q 0,0.58731 -0.54434,0.58731 l -2.92224,0 q -0.53001,0 -0.53001,-0.58731 l 0,-10.47137 q 0,-0.51569 -0.15758,-1.08867 -0.14324,-0.58732 -0.47271,-1.07436 -0.32947,-0.50136 -0.84516,-0.83083 -0.51569,-0.32947 -1.23192,-0.32947 -0.58732,0 -1.16031,0.24352 -0.55866,0.24352 -1.01705,0.70191 -0.44407,0.44407 -0.74489,1.07436 -0.28649,0.63028 -0.31514,1.38949 l 0,10.38542 q 0,0.28649 -0.25784,0.44407 -0.24352,0.14324 -0.50137,0.14324 l -2.67872,0 q -0.55866,0 -0.55866,-0.58731 l 0,-16.37315 q 0,-0.60164 0.55866,-0.60164 l 1.97681,0 q 0.28649,0 0.50136,0.15758 0.2292,0.15757 0.30082,0.53001 l 0.27217,1.57572 q 0.4011,-0.68759 0.91679,-1.17463 0.51568,-0.50136 1.103,-0.81651 0.60164,-0.32946 1.23192,-0.48704 0.64462,-0.15757 1.30355,-0.15757 0.65894,0 1.36085,0.21487 0.71624,0.20055 1.37517,0.63029 0.65894,0.41542 1.23193,1.03138 0.58731,0.61596 1.00273,1.43247 0.42974,-0.84516 0.97408,-1.46112 0.55866,-0.63029 1.20327,-1.03138 0.64462,-0.41542 1.34653,-0.61596 0.71623,-0.20055 1.46112,-0.20055 0.95975,0 1.97681,0.40109 1.01705,0.38677 1.84789,1.24625 0.84516,0.84516 1.37517,2.20601 0.54434,1.36085 0.54434,3.29468 l 0,10.1992 q 0,0.58731 -0.53002,0.58731 l -2.93656,0 q -0.53002,0 -0.53002,-0.58731 l 0,-10.54299 q 0,-0.48704 -0.15757,-1.06003 -0.14325,-0.57299 -0.47271,-1.06003 -0.32947,-0.48704 -0.85949,-0.80218 -0.53001,-0.32947 -1.28922,-0.32947 -0.58731,0 -1.14598,0.27217 -0.55866,0.27217 -1.01705,0.75921 -0.44407,0.47272 -0.71624,1.13165 -0.27217,0.64461 -0.27217,1.3895 l 0,10.24217 z"
           style="font-style:normal;font-variant:normal;font-weight:600;font-stretch:normal;font-family:'Cocogoose Narrow Trial';-inkscape-font-specification:'Cocogoose Narrow Trial Semi-Bold';text-align:center;text-anchor:middle"
           id="path4278" />
      </g>
      <g
         transform="matrix(0.12127588,0,0,0.12127588,209.37321,950.39135)"
         id="layer1-7"
         inkscape:label="Layer 1">
        <path
           inkscape:connector-curvature="0"
           id="path4137"
           d="m 201.04566,28.139176 -50,86.849614 -50,86.84961 50,0 0,100 100,0 0,-100 50,0 -50,-86.84961 -50,-86.849614 z"
           style="fill:#0ac8ff;fill-opacity:1;stroke-width:5;stroke-miterlimit:4;stroke-dasharray:none" />
        <path
           inkscape:connector-curvature="0"
           id="path4147"
           d="m 251.04566,201.84035 0,100 -50,0 50,86.84961 50,86.84961 50,-86.84961 50,-86.84961 -50,0 0,-100 -100,0 z"
           style="fill:#ff50dc;fill-opacity:1;stroke-width:5;stroke-miterlimit:4;stroke-dasharray:none" />
        <rect
           y="-0.45102814"
           x="0.77589715"
           height="503.52451"
           width="503.52451"
           id="rect4159"
           style="fill:none;fill-opacity:1;stroke:none;stroke-width:4.5314889;stroke-miterlimit:4;stroke-dasharray:none;stroke-opacity:1" />
      </g>
    </g>
  </g>
</svg>
