<?xml version="1.0" encoding="UTF-8" standalone="no"?>
<!-- Created with Inkscape (http://www.inkscape.org/) -->

<svg
   xmlns:dc="http://purl.org/dc/elements/1.1/"
   xmlns:cc="http://creativecommons.org/ns#"
   xmlns:rdf="http://www.w3.org/1999/02/22-rdf-syntax-ns#"
   xmlns:svg="http://www.w3.org/2000/svg"
   xmlns="http://www.w3.org/2000/svg"
   xmlns:sodipodi="http://sodipodi.sourceforge.net/DTD/sodipodi-0.dtd"
   xmlns:inkscape="http://www.inkscape.org/namespaces/inkscape"
   width="480"
   height="480"
   viewBox="0 0 480.00001 480.00001"
   id="svg2"
   version="1.1"
   inkscape:version="0.91 r13725"
   sodipodi:docname="wip.svg">
  <defs
     id="defs4" />
  <sodipodi:namedview
     id="base"
     pagecolor="#ffffff"
     bordercolor="#666666"
     borderopacity="1.0"
     inkscape:pageopacity="0.0"
     inkscape:pageshadow="2"
     inkscape:zoom="0.9899495"
     inkscape:cx="155.08006"
     inkscape:cy="218.73249"
     inkscape:document-units="px"
     inkscape:current-layer="layer1"
     showgrid="false"
     units="px"
     inkscape:window-width="1440"
     inkscape:window-height="798"
     inkscape:window-x="0"
     inkscape:window-y="1"
     inkscape:window-maximized="1" />
  <metadata
     id="metadata7">
    <rdf:RDF>
      <cc:Work
         rdf:about="">
        <dc:format>image/svg+xml</dc:format>
        <dc:type
           rdf:resource="http://purl.org/dc/dcmitype/StillImage" />
        <dc:title />
      </cc:Work>
    </rdf:RDF>
  </metadata>
  <g
     inkscape:label="Layer 1"
     inkscape:groupmode="layer"
     id="layer1"
     transform="translate(0,-572.3621)">
    <g
       transform="translate(-215.16249,162.13203)"
       id="layer1-56"
       inkscape:label="Layer 1" />
    <g
       transform="translate(-215.16249,162.13203)"
       id="layer1-1"
       inkscape:label="Layer 1" />
    <g
       transform="matrix(1.3714286,0,0,1.3714286,214.57182,-701.62801)"
       id="layer1-0"
       inkscape:label="Layer 1"
       style="opacity:0.4">
      <path
         style="opacity:1;fill:#a0c8c8;fill-opacity:1;stroke:none;stroke-width:0;stroke-linejoin:miter;stroke-miterlimit:4;stroke-dasharray:none;stroke-opacity:1"
         d="m 85.267473,967.09467 c 1.57827,1.57827 -6.215742,19.66556 -5.272453,21.68844 0.943289,2.02289 19.808849,7.67862 20.003381,9.90214 0.194529,2.22355 -17.402311,11.06925 -17.979998,13.22525 -0.577687,2.156 10.238741,18.615 8.958512,20.4434 -1.280229,1.8283 -20.446146,-2.7064 -22.274502,-1.4262 -1.828357,1.2802 -4.122188,20.8413 -6.278146,21.419 -2.155957,0.5777 -13.923001,-15.2158 -16.146519,-15.4103 -2.223518,-0.1946 -16.554299,13.3156 -18.577188,12.3723 -2.02289,-0.9432 -0.88513,-20.6054 -2.463401,-22.1837 -1.57827,-1.5783 -21.2404694,-0.4405 -22.1837581,-2.4634 -0.9432888,-2.0229 12.5669031,-16.3537 12.3723711,-18.5772 -0.194533,-2.2235 -15.98798884,-13.99057 -15.41030177,-16.14653 0.57768706,-2.15595 20.13874277,-4.44979 21.41897277,-6.27814 1.280229,-1.82836 -3.25455,-20.99428 -1.426194,-22.2745 1.828357,-1.28023 18.287442,9.53619 20.443399,8.95851 2.155957,-0.57769 11.001729,-18.17453 13.225247,-17.98 2.223518,0.19453 7.879242,19.06009 9.902131,20.00338 2.022889,0.94329 20.110177,-6.85072 21.688447,-5.27245 z"
         id="path4155" />
    </g>
    <g
       style="opacity:0.6"
       inkscape:label="Layer 1"
       id="g4959"
       transform="matrix(0.82142861,0,0,0.82142861,73.532552,-78.898472)">
      <path
         style="opacity:1;fill:#a0c8c8;fill-opacity:1;stroke:none;stroke-width:0;stroke-linejoin:miter;stroke-miterlimit:4;stroke-dasharray:none;stroke-opacity:1"
         d="m 85.267473,967.09467 c 1.57827,1.57827 -6.215742,19.66556 -5.272453,21.68844 0.943289,2.02289 19.808849,7.67862 20.003381,9.90214 0.194529,2.22355 -17.402311,11.06925 -17.979998,13.22525 -0.577687,2.156 10.238741,18.615 8.958512,20.4434 -1.280229,1.8283 -20.446146,-2.7064 -22.274502,-1.4262 -1.828357,1.2802 -4.122188,20.8413 -6.278146,21.419 -2.155957,0.5777 -13.923001,-15.2158 -16.146519,-15.4103 -2.223518,-0.1946 -16.554299,13.3156 -18.577188,12.3723 -2.02289,-0.9432 -0.88513,-20.6054 -2.463401,-22.1837 -1.57827,-1.5783 -21.2404694,-0.4405 -22.1837581,-2.4634 -0.9432888,-2.0229 12.5669031,-16.3537 12.3723711,-18.5772 -0.194533,-2.2235 -15.98798884,-13.99057 -15.41030177,-16.14653 0.57768706,-2.15595 20.13874277,-4.44979 21.41897277,-6.27814 1.280229,-1.82836 -3.25455,-20.99428 -1.426194,-22.2745 1.828357,-1.28023 18.287442,9.53619 20.443399,8.95851 2.155957,-0.57769 11.001729,-18.17453 13.225247,-17.98 2.223518,0.19453 7.879242,19.06009 9.902131,20.00338 2.022889,0.94329 20.110177,-6.85072 21.688447,-5.27245 z"
         id="path4961" />
    </g>
    <g
       transform="matrix(2.05,0,0,2.05,262.45359,-1151.2544)"
       id="g4963"
       inkscape:label="Layer 1"
       style="opacity:0.26000001">
      <path
         style="opacity:1;fill:#a0c8c8;fill-opacity:1;stroke:none;stroke-width:0;stroke-linejoin:miter;stroke-miterlimit:4;stroke-dasharray:none;stroke-opacity:1"
         d="m 85.267473,967.09467 c 1.57827,1.57827 -6.215742,19.66556 -5.272453,21.68844 0.943289,2.02289 19.808849,7.67862 20.003381,9.90214 0.194529,2.22355 -17.402311,11.06925 -17.979998,13.22525 -0.577687,2.156 10.238741,18.615 8.958512,20.4434 -1.280229,1.8283 -20.446146,-2.7064 -22.274502,-1.4262 -1.828357,1.2802 -4.122188,20.8413 -6.278146,21.419 -2.155957,0.5777 -13.923001,-15.2158 -16.146519,-15.4103 -2.223518,-0.1946 -16.554299,13.3156 -18.577188,12.3723 -2.02289,-0.9432 -0.88513,-20.6054 -2.463401,-22.1837 -1.57827,-1.5783 -21.2404694,-0.4405 -22.1837581,-2.4634 -0.9432888,-2.0229 12.5669031,-16.3537 12.3723711,-18.5772 -0.194533,-2.2235 -15.98798884,-13.99057 -15.41030177,-16.14653 0.57768706,-2.15595 20.13874277,-4.44979 21.41897277,-6.27814 1.280229,-1.82836 -3.25455,-20.99428 -1.426194,-22.2745 1.828357,-1.28023 18.287442,9.53619 20.443399,8.95851 2.155957,-0.57769 11.001729,-18.17453 13.225247,-17.98 2.223518,0.19453 7.879242,19.06009 9.902131,20.00338 2.022889,0.94329 20.110177,-6.85072 21.688447,-5.27245 z"
         id="path4965" />
    </g>
    <g
       style="font-style:normal;font-variant:normal;font-weight:normal;font-stretch:normal;font-size:40px;line-height:125%;font-family:moderna;-inkscape-font-specification:'moderna, Normal';text-align:start;letter-spacing:0px;word-spacing:0px;writing-mode:lr-tb;text-anchor:start;fill:#000000;fill-opacity:1;stroke:none;stroke-width:1px;stroke-linecap:butt;stroke-linejoin:miter;stroke-opacity:1"
       id="text4185">
      <path
         d="m 77.242187,824.06925 q -0.125,0.39584 -0.395833,0.58334 -0.25,0.1875 -0.583333,0.1875 l -3.875,0 q -0.729167,0 -1,-0.77084 l -8.666667,-28.08333 q -0.145833,-0.41667 0,-0.625 0.145833,-0.22917 0.520833,-0.22917 l 4.645834,0 q 0.333333,0 0.583333,0.16667 0.270833,0.16667 0.375,0.58333 l 5.208333,19.83334 0.458334,2.66666 0.458333,-2.66666 6.041667,-19.83334 q 0.125,-0.41666 0.375,-0.58333 0.270833,-0.16667 0.604166,-0.16667 l 4.5,0 q 0.375,0 0.520834,0.22917 0.145833,0.20833 0,0.625 l -3.5,10.0625 3.0625,9.66667 0.395833,2.52083 0.4375,-2.52083 5.375,-19.83334 q 0.104167,-0.41666 0.354167,-0.58333 0.270833,-0.16667 0.604166,-0.16667 l 4.5,0 q 0.375,0 0.520834,0.22917 0.145833,0.20833 -0.02083,0.625 l -8.666666,28.08333 q -0.125,0.39584 -0.395834,0.58334 -0.25,0.1875 -0.583333,0.1875 l -3.833333,0 q -0.333334,0 -0.604167,-0.16667 -0.25,-0.1875 -0.375,-0.60417 l -3,-8.5 -0.541667,-2.27083 -0.541666,2.27083 -2.958334,8.5 z"
         style="font-style:normal;font-variant:normal;font-weight:600;font-stretch:normal;font-family:'Cocogoose Narrow Trial';-inkscape-font-specification:'Cocogoose Narrow Trial Semi-Bold'"
         id="path4214" />
      <path
         d="m 99.825521,809.59009 q 0,-2.29167 0.833329,-4.27084 0.85417,-1.97916 2.3125,-3.4375 1.47917,-1.45833 3.45834,-2.29166 2,-0.83334 4.29166,-0.83334 2.3125,0 4.3125,0.83334 2,0.83333 3.47917,2.29166 1.47917,1.45834 2.3125,3.4375 0.85417,1.97917 0.85417,4.27084 l 0,5.10416 q 0,2.27084 -0.85417,4.25 -0.83333,1.95834 -2.3125,3.41667 -1.47917,1.4375 -3.47917,2.27083 -1.97916,0.83334 -4.29166,0.83334 -2.3125,0 -4.3125,-0.83334 -1.97917,-0.83333 -3.45834,-2.27083 -1.45833,-1.45833 -2.3125,-3.41667 -0.833329,-1.97916 -0.833329,-4.25 l 0,-5.10416 z m 5.624999,5.20833 q 0,1.1875 0.39583,2.1875 0.39584,1 1.10417,1.72917 0.70833,0.72916 1.66667,1.14583 0.97916,0.41667 2.14583,0.41667 1.14583,0 2.125,-0.41667 0.97917,-0.41667 1.6875,-1.14583 0.72917,-0.72917 1.125,-1.72917 0.39583,-1 0.39583,-2.16667 l 0,-5.39583 q 0,-1.1875 -0.39583,-2.1875 -0.39583,-1 -1.125,-1.72917 -0.70833,-0.75 -1.6875,-1.16666 -0.97917,-0.41667 -2.125,-0.41667 -1.16667,0 -2.14583,0.41667 -0.95834,0.41666 -1.66667,1.16666 -0.70833,0.72917 -1.10417,1.72917 -0.39583,1 -0.39583,2.1875 l 0,5.375 z"
         style="font-style:normal;font-variant:normal;font-weight:600;font-stretch:normal;font-family:'Cocogoose Narrow Trial';-inkscape-font-specification:'Cocogoose Narrow Trial Semi-Bold'"
         id="path4216" />
      <path
         d="m 126.90365,800.17342 q 0,-0.85417 0.8125,-0.85417 l 2.83333,0 q 0.41667,0 0.72917,0.20834 0.33333,0.1875 0.45833,0.79166 l 0.4375,2.5625 q 0.47917,-0.83333 1.08333,-1.58333 0.60417,-0.75 1.375,-1.3125 0.77084,-0.5625 1.6875,-0.89583 0.91667,-0.33334 2.02084,-0.33334 0.9375,0 1.75,0.16667 0.8125,0.14583 1.47916,0.39583 0.66667,0.22917 1.14584,0.5 0.47916,0.25 0.77083,0.45834 0.4375,0.33333 0.5,0.72916 0.0625,0.375 -0.0625,0.72917 l -0.85417,3.3125 q -0.0625,0.1875 -0.22916,0.3125 -0.16667,0.125 -0.375,0.16667 -0.20834,0.0208 -0.4375,0 -0.20834,-0.0417 -0.375,-0.16667 -0.4375,-0.33333 -0.875,-0.60417 -0.41667,-0.27083 -0.89584,-0.45833 -0.45833,-0.1875 -1.02083,-0.27083 -0.5625,-0.10417 -1.27083,-0.10417 -0.95834,0 -1.83334,0.3125 -0.875,0.3125 -1.5625,0.95833 -0.66666,0.64584 -1.08333,1.625 -0.39583,0.97917 -0.39583,2.3125 l 0,14.85417 q 0,0.41667 -0.27084,0.64583 -0.27083,0.20834 -0.66666,0.20834 l -4.0625,0 q -0.8125,0 -0.8125,-0.85417 l 0,-23.8125 z"
         style="font-style:normal;font-variant:normal;font-weight:600;font-stretch:normal;font-family:'Cocogoose Narrow Trial';-inkscape-font-specification:'Cocogoose Narrow Trial Semi-Bold'"
         id="path4218" />
      <path
         d="m 160.14844,809.75675 8.83333,13.72917 q 0.16667,0.25 0.16667,0.5 0.0208,0.25 -0.0833,0.4375 -0.10416,0.1875 -0.29166,0.3125 -0.16667,0.10417 -0.35417,0.10417 l -4.83333,0 q -0.35417,0 -0.58334,-0.14584 -0.20833,-0.16666 -0.47916,-0.58333 l -6.10417,-10.22917 -2.6875,2.3125 0,7.8125 q 0,0.41667 -0.16667,0.625 -0.16666,0.20834 -0.58333,0.20834 l -4.27083,0 q -0.79167,0 -0.79167,-0.83334 l 0,-31.29166 q 0,-0.83334 0.79167,-0.83334 l 4.27083,0 q 0.75,0 0.75,0.83334 l 0,16.79166 7.79167,-9.625 q 0.33333,-0.39583 0.60416,-0.47916 0.27084,-0.0833 0.64584,-0.0833 l 4.3125,0 q 0.3125,0 0.5,0.14584 0.20833,0.14583 0.29166,0.35416 0.10417,0.20834 0.0625,0.45834 -0.0208,0.22916 -0.1875,0.41666 l -7.60416,9.0625 z"
         style="font-style:normal;font-variant:normal;font-weight:600;font-stretch:normal;font-family:'Cocogoose Narrow Trial';-inkscape-font-specification:'Cocogoose Narrow Trial Semi-Bold'"
         id="path4220" />
      <path
         d="m 184.32552,800.11092 q 0,-0.375 0.22917,-0.58333 0.25,-0.20834 0.5625,-0.20834 l 4.25,0 q 0.35416,0 0.5625,0.22917 0.20833,0.22917 0.20833,0.58333 l 0,23.89584 q 0,0.8125 -0.77083,0.8125 l -4.25,0 q -0.79167,0 -0.79167,-0.8125 l 0,-23.91667 z m -0.10417,-7.8125 q 0,-0.5625 0.27084,-0.9375 0.29166,-0.375 1.02083,-0.375 l 3.5625,0 q 0.64583,0 0.91667,0.35417 0.27083,0.35416 0.27083,0.95833 l 0,3.29167 q 0,0.6875 -0.3125,0.9375 -0.3125,0.25 -0.875,0.25 l -3.5625,0 q -0.58333,0 -0.9375,-0.25 -0.35417,-0.25 -0.35417,-0.91667 l 0,-3.3125 z"
         style="font-style:normal;font-variant:normal;font-weight:600;font-stretch:normal;font-family:'Cocogoose Narrow Trial';-inkscape-font-specification:'Cocogoose Narrow Trial Semi-Bold'"
         id="path4222" />
      <path
         d="m 212.5651,809.21509 q 0,-1.0625 -0.39583,-2.02084 -0.39583,-0.97916 -1.0625,-1.6875 -0.66667,-0.72916 -1.5625,-1.14583 -0.875,-0.4375 -1.875,-0.4375 -0.95833,0 -1.875,0.375 -0.91667,0.375 -1.64583,1.04167 -0.70834,0.66666 -1.16667,1.58333 -0.45833,0.89583 -0.5,1.95833 l 0,15.10417 q 0,0.41667 -0.375,0.64583 -0.35417,0.20834 -0.72917,0.20834 l -3.89583,0 q -0.8125,0 -0.8125,-0.85417 l 0,-23.8125 q 0,-0.85417 0.8125,-0.85417 l 2.89583,0 q 0.41667,0 0.70834,0.1875 0.3125,0.1875 0.4375,0.8125 l 0.41666,2.5 q 1.0625,-1.85416 2.79167,-2.95833 1.75,-1.10417 4.27083,-1.10417 1.58334,0 3.22917,0.6875 1.66667,0.6875 3.02083,2.02084 1.375,1.3125 2.25,3.22916 0.875,1.91667 0.875,4.375 l 0,14.9375 q 0,0.83334 -0.77083,0.83334 l -4.25,0 q -0.79167,0 -0.79167,-0.83334 l 0,-14.79166 z"
         style="font-style:normal;font-variant:normal;font-weight:600;font-stretch:normal;font-family:'Cocogoose Narrow Trial';-inkscape-font-specification:'Cocogoose Narrow Trial Semi-Bold'"
         id="path4224" />
      <path
         d="m 236.0651,795.96509 q 0,-0.83334 0.79167,-0.83334 l 10.4375,0 q 1.9375,0 3.58333,0.70834 1.66667,0.6875 2.89584,1.875 1.22916,1.1875 1.91666,2.79166 0.70834,1.58334 0.70834,3.35417 l 0,2.5 q 0,1.875 -0.75,3.47917 -0.72917,1.60416 -2.02084,2.79166 -1.27083,1.1875 -2.97916,1.875 -1.6875,0.6875 -3.58334,0.70834 l -5.16666,0 0,8.8125 q 0,0.8125 -0.77084,0.8125 l -4.27083,0 q -0.79167,0 -0.79167,-0.8125 l 0,-28.0625 z m 10.47917,13.6875 q 0.83333,0 1.5625,-0.29167 0.75,-0.29167 1.29167,-0.79167 0.5625,-0.52083 0.875,-1.1875 0.3125,-0.6875 0.3125,-1.47916 l 0,-1.39584 q 0,-0.8125 -0.3125,-1.5 -0.3125,-0.6875 -0.85417,-1.20833 -0.54167,-0.52083 -1.29167,-0.8125 -0.72916,-0.29167 -1.58333,-0.29167 l -4.64583,0 0,8.95834 4.64583,0 z"
         style="font-style:normal;font-variant:normal;font-weight:600;font-stretch:normal;font-family:'Cocogoose Narrow Trial';-inkscape-font-specification:'Cocogoose Narrow Trial Semi-Bold'"
         id="path4226" />
      <path
         d="m 261.04427,800.17342 q 0,-0.85417 0.8125,-0.85417 l 2.83333,0 q 0.41667,0 0.72917,0.20834 0.33333,0.1875 0.45833,0.79166 l 0.4375,2.5625 q 0.47917,-0.83333 1.08334,-1.58333 0.60416,-0.75 1.375,-1.3125 0.77083,-0.5625 1.6875,-0.89583 0.91666,-0.33334 2.02083,-0.33334 0.9375,0 1.75,0.16667 0.8125,0.14583 1.47917,0.39583 0.66666,0.22917 1.14583,0.5 0.47917,0.25 0.77083,0.45834 0.4375,0.33333 0.5,0.72916 0.0625,0.375 -0.0625,0.72917 l -0.85416,3.3125 q -0.0625,0.1875 -0.22917,0.3125 -0.16667,0.125 -0.375,0.16667 -0.20833,0.0208 -0.4375,0 -0.20833,-0.0417 -0.375,-0.16667 -0.4375,-0.33333 -0.875,-0.60417 -0.41667,-0.27083 -0.89583,-0.45833 -0.45834,-0.1875 -1.02084,-0.27083 -0.5625,-0.10417 -1.27083,-0.10417 -0.95833,0 -1.83333,0.3125 -0.875,0.3125 -1.5625,0.95833 -0.66667,0.64584 -1.08334,1.625 -0.39583,0.97917 -0.39583,2.3125 l 0,14.85417 q 0,0.41667 -0.27083,0.64583 -0.27084,0.20834 -0.66667,0.20834 l -4.0625,0 q -0.8125,0 -0.8125,-0.85417 l 0,-23.8125 z"
         style="font-style:normal;font-variant:normal;font-weight:600;font-stretch:normal;font-family:'Cocogoose Narrow Trial';-inkscape-font-specification:'Cocogoose Narrow Trial Semi-Bold'"
         id="path4228" />
      <path
         d="m 280.0599,809.59009 q 0,-2.29167 0.83333,-4.27084 0.85417,-1.97916 2.3125,-3.4375 1.47917,-1.45833 3.45833,-2.29166 2,-0.83334 4.29167,-0.83334 2.3125,0 4.3125,0.83334 2,0.83333 3.47917,2.29166 1.47916,1.45834 2.3125,3.4375 0.85416,1.97917 0.85416,4.27084 l 0,5.10416 q 0,2.27084 -0.85416,4.25 -0.83334,1.95834 -2.3125,3.41667 -1.47917,1.4375 -3.47917,2.27083 -1.97917,0.83334 -4.29167,0.83334 -2.3125,0 -4.3125,-0.83334 -1.97916,-0.83333 -3.45833,-2.27083 -1.45833,-1.45833 -2.3125,-3.41667 -0.83333,-1.97916 -0.83333,-4.25 l 0,-5.10416 z m 5.625,5.20833 q 0,1.1875 0.39583,2.1875 0.39583,1 1.10417,1.72917 0.70833,0.72916 1.66666,1.14583 0.97917,0.41667 2.14584,0.41667 1.14583,0 2.125,-0.41667 0.97916,-0.41667 1.6875,-1.14583 0.72916,-0.72917 1.125,-1.72917 0.39583,-1 0.39583,-2.16667 l 0,-5.39583 q 0,-1.1875 -0.39583,-2.1875 -0.39584,-1 -1.125,-1.72917 -0.70834,-0.75 -1.6875,-1.16666 -0.97917,-0.41667 -2.125,-0.41667 -1.16667,0 -2.14584,0.41667 -0.95833,0.41666 -1.66666,1.16666 -0.70834,0.72917 -1.10417,1.72917 -0.39583,1 -0.39583,2.1875 l 0,5.375 z"
         style="font-style:normal;font-variant:normal;font-weight:600;font-stretch:normal;font-family:'Cocogoose Narrow Trial';-inkscape-font-specification:'Cocogoose Narrow Trial Semi-Bold'"
         id="path4230" />
      <path
         d="m 327.63802,821.38175 q 0,3.29167 -0.9375,5.64584 -0.91667,2.35416 -2.5,3.85416 -1.5625,1.5 -3.64583,2.1875 -2.0625,0.70834 -4.33334,0.66667 -1.14583,-0.0208 -2.29166,-0.20833 -1.125,-0.16667 -2.20834,-0.54167 -1.0625,-0.35417 -2.04166,-0.89583 -0.97917,-0.54167 -1.79167,-1.27084 -0.375,-0.33333 -0.3125,-0.64583 0.0833,-0.29167 0.25,-0.54167 l 1.9375,-2.20833 q 0.25,-0.375 0.60417,-0.41667 0.375,-0.0208 0.75,0.27084 1.16666,0.79166 2.41666,1.08333 1.27084,0.29167 2.58334,0.29167 1.35416,0 2.4375,-0.4375 1.10416,-0.4375 1.875,-1.25 0.77083,-0.79167 1.16666,-1.9375 0.41667,-1.14584 0.41667,-2.5625 l -0.0208,-1.22917 q -0.54167,0.8125 -1.1875,1.47917 -0.625,0.66666 -1.375,1.16666 -0.72917,0.47917 -1.58334,0.75 -0.83333,0.27084 -1.77083,0.27084 -2.1875,0 -4.08333,-0.83334 -1.875,-0.83333 -3.27084,-2.27083 -1.375,-1.45833 -2.16666,-3.41667 -0.79167,-1.97916 -0.79167,-4.27083 l 0,-4.52083 q 0,-2.29167 0.79167,-4.27084 0.79166,-1.97916 2.16666,-3.4375 1.39584,-1.45833 3.27084,-2.29166 1.89583,-0.83334 4.08333,-0.83334 1.08333,0 2.02083,0.3125 0.95834,0.3125 1.77084,0.875 0.83333,0.54167 1.5,1.3125 0.6875,0.77084 1.22916,1.66667 l 0.4375,-2.75 q 0.16667,-0.85417 1.0625,-0.85417 l 2.70834,0 q 0.83333,0 0.83333,0.85417 l 0,21.20833 z m -16.25,-7.14583 q 0,1.1875 0.39583,2.1875 0.39584,1 1.08334,1.72917 0.6875,0.72916 1.625,1.14583 0.95833,0.41667 2.0625,0.41667 1.125,0 2.10416,-0.39584 0.97917,-0.39583 1.70834,-1.08333 0.72916,-0.70833 1.16666,-1.66667 0.45834,-0.95833 0.5,-2.08333 l 0,-5.29167 q -0.0417,-1.14583 -0.5,-2.10416 -0.4375,-0.95834 -1.16666,-1.66667 -0.72917,-0.70833 -1.70834,-1.10417 -0.97916,-0.39583 -2.10416,-0.39583 -1.10417,0 -2.0625,0.41667 -0.9375,0.41666 -1.625,1.16666 -0.6875,0.72917 -1.08334,1.72917 -0.39583,1 -0.39583,2.1875 l 0,4.8125 z"
         style="font-style:normal;font-variant:normal;font-weight:600;font-stretch:normal;font-family:'Cocogoose Narrow Trial';-inkscape-font-specification:'Cocogoose Narrow Trial Semi-Bold'"
         id="path4232" />
      <path
         d="m 334.16927,800.17342 q 0,-0.85417 0.8125,-0.85417 l 2.83333,0 q 0.41667,0 0.72917,0.20834 0.33333,0.1875 0.45833,0.79166 l 0.4375,2.5625 q 0.47917,-0.83333 1.08334,-1.58333 0.60416,-0.75 1.375,-1.3125 0.77083,-0.5625 1.6875,-0.89583 0.91666,-0.33334 2.02083,-0.33334 0.9375,0 1.75,0.16667 0.8125,0.14583 1.47917,0.39583 0.66666,0.22917 1.14583,0.5 0.47917,0.25 0.77083,0.45834 0.4375,0.33333 0.5,0.72916 0.0625,0.375 -0.0625,0.72917 l -0.85416,3.3125 q -0.0625,0.1875 -0.22917,0.3125 -0.16667,0.125 -0.375,0.16667 -0.20833,0.0208 -0.4375,0 -0.20833,-0.0417 -0.375,-0.16667 -0.4375,-0.33333 -0.875,-0.60417 -0.41667,-0.27083 -0.89583,-0.45833 -0.45834,-0.1875 -1.02084,-0.27083 -0.5625,-0.10417 -1.27083,-0.10417 -0.95833,0 -1.83333,0.3125 -0.875,0.3125 -1.5625,0.95833 -0.66667,0.64584 -1.08334,1.625 -0.39583,0.97917 -0.39583,2.3125 l 0,14.85417 q 0,0.41667 -0.27083,0.64583 -0.27084,0.20834 -0.66667,0.20834 l -4.0625,0 q -0.8125,0 -0.8125,-0.85417 l 0,-23.8125 z"
         style="font-style:normal;font-variant:normal;font-weight:600;font-stretch:normal;font-family:'Cocogoose Narrow Trial';-inkscape-font-specification:'Cocogoose Narrow Trial Semi-Bold'"
         id="path4234" />
      <path
         d="m 353.1849,809.67342 q 0,-2.375 0.85416,-4.375 0.85417,-2.02083 2.35417,-3.45833 1.5,-1.45834 3.54167,-2.27084 2.0625,-0.8125 4.4375,-0.8125 1.08333,0 2.25,0.29167 1.16666,0.27083 2.27083,0.85417 1.10417,0.58333 2.08333,1.5 0.97917,0.91666 1.70834,2.1875 0.75,1.27083 1.1875,2.9375 0.4375,1.64583 0.4375,3.70833 l 0,2.04167 q 0,0.95833 -0.45834,1.3125 -0.4375,0.35416 -1.375,0.33333 l -13.66666,0 0,0.64583 q 0,1.3125 0.41666,2.375 0.41667,1.04167 1.14584,1.79167 0.72916,0.75 1.70833,1.14583 1,0.39584 2.16667,0.39584 1.16666,0 2.20833,-0.47917 1.04167,-0.47917 1.85417,-1.64583 0.20833,-0.29167 0.41666,-0.3125 0.22917,-0.0417 0.39584,0.0625 l 3.58333,1.875 q 0.1875,0.14583 0.20833,0.375 0.0417,0.22916 -0.1875,0.60416 -0.60416,0.97917 -1.45833,1.83334 -0.83333,0.85416 -1.89583,1.5 -1.0625,0.64583 -2.33334,1 -1.25,0.375 -2.66666,0.375 -2.375,0 -4.41667,-0.8125 -2.04167,-0.8125 -3.54167,-2.25 -1.5,-1.4375 -2.375,-3.41667 -0.85416,-1.97917 -0.85416,-4.33333 l 0,-4.97917 z m 5.625,0.0208 10.22916,0 0,-0.125 q 0,-0.95833 -0.25,-1.95833 -0.22916,-1 -0.79166,-1.8125 -0.54167,-0.8125 -1.45834,-1.33333 -0.91666,-0.54167 -2.29166,-0.54167 -1.33334,0 -2.35417,0.47917 -1,0.47916 -1.6875,1.27083 -0.6875,0.77083 -1.04167,1.79167 -0.35416,1 -0.35416,2.04166 l 0,0.1875 z"
         style="font-style:normal;font-variant:normal;font-weight:600;font-stretch:normal;font-family:'Cocogoose Narrow Trial';-inkscape-font-specification:'Cocogoose Narrow Trial Semi-Bold'"
         id="path4236" />
      <path
         d="m 377.36198,819.98592 q -0.20833,-0.39583 -0.20833,-0.70833 0,-0.33334 0.5,-0.625 l 3.14583,-1.64584 q 0.60417,-0.33333 1,0.47917 0.3125,0.66667 0.8125,1.20833 0.52083,0.54167 1.14583,0.9375 0.64584,0.39584 1.375,0.60417 0.75,0.20833 1.54167,0.20833 0.8125,0 1.5,-0.14583 0.6875,-0.16667 1.1875,-0.47917 0.52083,-0.33333 0.8125,-0.83333 0.29167,-0.52083 0.29167,-1.22917 0,-0.72916 -0.47917,-1.29166 -0.45833,-0.5625 -1.27083,-1.02084 -0.79167,-0.45833 -1.85417,-0.83333 -1.0625,-0.39583 -2.27083,-0.79167 -1.5625,-0.52083 -2.83334,-1.16666 -1.25,-0.66667 -2.14583,-1.54167 -0.89583,-0.89583 -1.375,-2.04167 -0.47917,-1.14583 -0.47917,-2.6875 0,-1.52083 0.64584,-2.89583 0.64583,-1.375 1.79166,-2.41667 1.16667,-1.0625 2.77084,-1.66666 1.60416,-0.625 3.52083,-0.625 1.5625,0 2.95833,0.47916 1.39584,0.47917 2.52084,1.25 1.14583,0.75 1.95833,1.6875 0.8125,0.9375 1.20833,1.83334 0.1875,0.4375 0.16667,0.6875 -0.0208,0.25 -0.4375,0.45833 l -2.83333,1.33333 q -0.375,0.1875 -0.625,0.14584 -0.22917,-0.0417 -0.45834,-0.4375 -0.58333,-1.14584 -1.72916,-1.77084 -1.14584,-0.64583 -2.5625,-0.64583 -0.75,0 -1.39584,0.1875 -0.625,0.16667 -1.08333,0.47917 -0.45833,0.3125 -0.70833,0.77083 -0.25,0.4375 -0.25,0.95833 0,0.6875 0.39583,1.16667 0.39583,0.45833 1.14583,0.85417 0.75,0.39583 1.83334,0.77083 1.08333,0.35417 2.45833,0.8125 3.45833,1.16667 5.16667,3.1875 1.72916,2 1.72916,4.72917 0,1.8125 -0.75,3.25 -0.75,1.4375 -2,2.4375 -1.25,1 -2.89583,1.52083 -1.64583,0.54167 -3.45833,0.54167 -1.45834,0 -2.85417,-0.33334 -1.39583,-0.33333 -2.625,-1.02083 -1.22917,-0.6875 -2.27083,-1.70833 -1.02084,-1.04167 -1.72917,-2.41667 z"
         style="font-style:normal;font-variant:normal;font-weight:600;font-stretch:normal;font-family:'Cocogoose Narrow Trial';-inkscape-font-specification:'Cocogoose Narrow Trial Semi-Bold'"
         id="path4238" />
      <path
         d="m 398.76823,819.98592 q -0.20833,-0.39583 -0.20833,-0.70833 0,-0.33334 0.5,-0.625 l 3.14583,-1.64584 q 0.60417,-0.33333 1,0.47917 0.3125,0.66667 0.8125,1.20833 0.52083,0.54167 1.14583,0.9375 0.64584,0.39584 1.375,0.60417 0.75,0.20833 1.54167,0.20833 0.8125,0 1.5,-0.14583 0.6875,-0.16667 1.1875,-0.47917 0.52083,-0.33333 0.8125,-0.83333 0.29167,-0.52083 0.29167,-1.22917 0,-0.72916 -0.47917,-1.29166 -0.45833,-0.5625 -1.27083,-1.02084 -0.79167,-0.45833 -1.85417,-0.83333 -1.0625,-0.39583 -2.27083,-0.79167 -1.5625,-0.52083 -2.83334,-1.16666 -1.25,-0.66667 -2.14583,-1.54167 -0.89583,-0.89583 -1.375,-2.04167 -0.47917,-1.14583 -0.47917,-2.6875 0,-1.52083 0.64584,-2.89583 0.64583,-1.375 1.79166,-2.41667 1.16667,-1.0625 2.77084,-1.66666 1.60416,-0.625 3.52083,-0.625 1.5625,0 2.95833,0.47916 1.39584,0.47917 2.52084,1.25 1.14583,0.75 1.95833,1.6875 0.8125,0.9375 1.20833,1.83334 0.1875,0.4375 0.16667,0.6875 -0.0208,0.25 -0.4375,0.45833 l -2.83333,1.33333 q -0.375,0.1875 -0.625,0.14584 -0.22917,-0.0417 -0.45834,-0.4375 -0.58333,-1.14584 -1.72916,-1.77084 -1.14584,-0.64583 -2.5625,-0.64583 -0.75,0 -1.39584,0.1875 -0.625,0.16667 -1.08333,0.47917 -0.45833,0.3125 -0.70833,0.77083 -0.25,0.4375 -0.25,0.95833 0,0.6875 0.39583,1.16667 0.39583,0.45833 1.14583,0.85417 0.75,0.39583 1.83334,0.77083 1.08333,0.35417 2.45833,0.8125 3.45833,1.16667 5.16667,3.1875 1.72916,2 1.72916,4.72917 0,1.8125 -0.75,3.25 -0.75,1.4375 -2,2.4375 -1.25,1 -2.89583,1.52083 -1.64583,0.54167 -3.45833,0.54167 -1.45834,0 -2.85417,-0.33334 -1.39583,-0.33333 -2.625,-1.02083 -1.22917,-0.6875 -2.27083,-1.70833 -1.02084,-1.04167 -1.72917,-2.41667 z"
         style="font-style:normal;font-variant:normal;font-weight:600;font-stretch:normal;font-family:'Cocogoose Narrow Trial';-inkscape-font-specification:'Cocogoose Narrow Trial Semi-Bold'"
         id="path4240" />
    </g>
    <g
       style="font-style:normal;font-variant:normal;font-weight:normal;font-stretch:normal;font-size:40px;line-height:125%;font-family:moderna;-inkscape-font-specification:'moderna, Normal';text-align:start;letter-spacing:0px;word-spacing:0px;writing-mode:lr-tb;text-anchor:start;fill:#000000;fill-opacity:1;stroke:none;stroke-width:1px;stroke-linecap:butt;stroke-linejoin:miter;stroke-opacity:1"
       id="text4189">
      <path
         d="m 230.04948,862.58248 q 0,-0.375 0.20833,-0.5625 0.20834,-0.1875 0.47917,-0.1875 l 4.375,0 q 0.4375,0 0.5625,0.29167 0.14583,0.27083 0.14583,0.45833 l 0,3.95833 q 0,0.41667 -0.27083,0.58334 -0.25,0.14583 -0.41667,0.14583 l -4.41666,0 q -0.14584,0 -0.41667,-0.14583 -0.25,-0.14584 -0.25,-0.5625 l 0,-3.97917 z m 0.0833,19.91667 q 0,-0.375 0.20834,-0.5625 0.20833,-0.1875 0.47916,-0.1875 l 4.375,0 q 0.4375,0 0.5625,0.29166 0.14584,0.27084 0.14584,0.45834 l 0,3.95833 q 0,0.41667 -0.27084,0.58333 -0.25,0.14584 -0.41666,0.14584 l -4.41667,0 q -0.14583,0 -0.41667,-0.14584 -0.25,-0.14583 -0.25,-0.5625 l 0,-3.97916 z"
         style="font-style:normal;font-variant:normal;font-weight:600;font-stretch:normal;font-family:'Cocogoose Narrow Trial';-inkscape-font-specification:'Cocogoose Narrow Trial Semi-Bold'"
         id="path4209" />
      <path
         d="m 249.95052,874.35331 q 0,2.5625 -0.29167,5.20834 -0.27083,2.625 -0.89583,5.22916 -0.625,2.58334 -1.64583,5.0625 -1.02084,2.5 -2.5,4.77084 -0.41667,0.625 -1,0.22916 l -3.60417,-2.20833 q -0.29167,-0.1875 -0.33333,-0.45833 -0.0208,-0.27084 0.14583,-0.54167 0.79167,-1.1875 1.41667,-2.625 0.625,-1.4375 1.10416,-2.97917 0.5,-1.54166 0.85417,-3.14583 0.35417,-1.60417 0.58333,-3.125 0.22917,-1.52083 0.33334,-2.89583 0.125,-1.39584 0.125,-2.52084 0,-1.125 -0.125,-2.5 -0.10417,-1.39583 -0.33334,-2.91666 -0.22916,-1.52084 -0.58333,-3.125 -0.35417,-1.60417 -0.85417,-3.14584 -0.47916,-1.54166 -1.10416,-2.97916 -0.625,-1.4375 -1.41667,-2.625 -0.16667,-0.27084 -0.14583,-0.54167 0.0417,-0.27083 0.33333,-0.45833 l 3.60417,-2.1875 q 0.60416,-0.39584 1,0.20833 1.47916,2.29167 2.5,4.77083 1.02083,2.47917 1.64583,5.08334 0.625,2.58333 0.89583,5.22916 0.29167,2.625 0.29167,5.1875 z"
         style="font-style:normal;font-variant:normal;font-weight:600;font-stretch:normal;font-family:'Cocogoose Narrow Trial';-inkscape-font-specification:'Cocogoose Narrow Trial Semi-Bold'"
         id="path4211" />
    </g>
  </g>
</svg>
