<?xml version="1.0" encoding="UTF-8" standalone="no"?>
<!-- Created with Inkscape (http://www.inkscape.org/) -->

<svg
   xmlns:dc="http://purl.org/dc/elements/1.1/"
   xmlns:cc="http://creativecommons.org/ns#"
   xmlns:rdf="http://www.w3.org/1999/02/22-rdf-syntax-ns#"
   xmlns:svg="http://www.w3.org/2000/svg"
   xmlns="http://www.w3.org/2000/svg"
   xmlns:sodipodi="http://sodipodi.sourceforge.net/DTD/sodipodi-0.dtd"
   xmlns:inkscape="http://www.inkscape.org/namespaces/inkscape"
   width="9.0311117mm"
   height="9.0311117mm"
   viewBox="0 0 32.000002 32.000002"
   id="svg2"
   version="1.1"
   inkscape:version="0.91 r13725"
   sodipodi:docname="sponge.svg">
  <defs
     id="defs4" />
  <sodipodi:namedview
     id="base"
     pagecolor="#ffffff"
     bordercolor="#666666"
     borderopacity="1.0"
     inkscape:pageopacity="0.0"
     inkscape:pageshadow="2"
     inkscape:zoom="1.979899"
     inkscape:cx="10.607086"
     inkscape:cy="13.693118"
     inkscape:document-units="px"
     inkscape:current-layer="layer1"
     showgrid="false"
     fit-margin-top="0"
     fit-margin-left="0"
     fit-margin-right="0"
     fit-margin-bottom="0"
     inkscape:window-width="1440"
     inkscape:window-height="798"
     inkscape:window-x="0"
     inkscape:window-y="1"
     inkscape:window-maximized="1" />
  <metadata
     id="metadata7">
    <rdf:RDF>
      <cc:Work
         rdf:about="">
        <dc:format>image/svg+xml</dc:format>
        <dc:type
           rdf:resource="http://purl.org/dc/dcmitype/StillImage" />
        <dc:title />
      </cc:Work>
    </rdf:RDF>
  </metadata>
  <g
     inkscape:label="Layer 1"
     inkscape:groupmode="layer"
     id="layer1"
     transform="translate(-215.16249,-410.23007)">
    <path
       style="opacity:1;fill:#8c8c8c;fill-opacity:1;stroke:none;stroke-opacity:1"
       d="m 215.16249,410.23007 32,0 0,32 -32,0 z"
       id="rect4136" />
    <path
       style="opacity:1;fill:#ffffff;fill-opacity:1;stroke:none;stroke-opacity:1"
       d="m 228.16249,413.23007 6,0 c 5.54,0 10,4.46 10,10 l 0,6 c 0,5.54 -4.46,10 -10,10 l -6,0 c -5.54,0 -10,-4.46 -10,-10 l 0,-6 c 0,-5.54 4.46,-10 10,-10 z"
       id="rect4135" />
    <path
       style="opacity:1;fill:#a078ff;fill-opacity:1;stroke:none;stroke-width:0;stroke-linejoin:miter;stroke-miterlimit:4;stroke-dasharray:none;stroke-opacity:1"
       d="m 218.16249,423.23007 26,0 0,6 -26,0 z"
       id="rect4137" />
    <path
       style="opacity:1;fill:#6478ff;fill-opacity:1;stroke:none;stroke-width:0;stroke-linejoin:miter;stroke-miterlimit:4;stroke-dasharray:none;stroke-opacity:1"
       d="M 3 18.800781 L 3 19 C 3 21.168225 3.6898192 23.166044 4.8535156 24.800781 L 27.146484 24.800781 C 28.310181 23.166044 29 21.168225 29 19 L 29 18.800781 L 3 18.800781 z "
       transform="translate(215.16249,410.23007)"
       id="rect4139" />
    <path
       style="opacity:1;fill:#6478ff;fill-opacity:1;stroke:none;stroke-width:0;stroke-linejoin:miter;stroke-miterlimit:4;stroke-dasharray:none;stroke-opacity:1"
       d="M 4.8535156 7.1992188 C 3.6898192 8.8339563 3 10.831775 3 13 L 3 13.199219 L 29 13.199219 L 29 13 C 29 10.831775 28.310181 8.8339563 27.146484 7.1992188 L 4.8535156 7.1992188 z "
       id="rect4141"
       transform="translate(215.16249,410.23007)" />
  </g>
</svg>
