<?xml version="1.0" encoding="UTF-8" standalone="no"?>
<!-- Created with Inkscape (http://www.inkscape.org/) -->

<svg
   xmlns:dc="http://purl.org/dc/elements/1.1/"
   xmlns:cc="http://creativecommons.org/ns#"
   xmlns:rdf="http://www.w3.org/1999/02/22-rdf-syntax-ns#"
   xmlns:svg="http://www.w3.org/2000/svg"
   xmlns="http://www.w3.org/2000/svg"
   xmlns:sodipodi="http://sodipodi.sourceforge.net/DTD/sodipodi-0.dtd"
   xmlns:inkscape="http://www.inkscape.org/namespaces/inkscape"
   width="600"
   height="600"
   viewBox="0 0 600.00001 600.00001"
   id="svg2"
   version="1.1"
   inkscape:version="0.91 r13725"
   sodipodi:docname="pipes.svg">
  <defs
     id="defs4" />
  <sodipodi:namedview
     id="base"
     pagecolor="#ffffff"
     bordercolor="#666666"
     borderopacity="1.0"
     inkscape:pageopacity="0.0"
     inkscape:pageshadow="2"
     inkscape:zoom="2.8"
     inkscape:cx="263.70929"
     inkscape:cy="257.34341"
     inkscape:document-units="px"
     inkscape:current-layer="layer1"
     showgrid="false"
     units="px"
     inkscape:window-width="1440"
     inkscape:window-height="798"
     inkscape:window-x="0"
     inkscape:window-y="1"
     inkscape:window-maximized="1"
     showguides="false" />
  <metadata
     id="metadata7">
    <rdf:RDF>
      <cc:Work
         rdf:about="">
        <dc:format>image/svg+xml</dc:format>
        <dc:type
           rdf:resource="http://purl.org/dc/dcmitype/StillImage" />
        <dc:title></dc:title>
      </cc:Work>
    </rdf:RDF>
  </metadata>
  <g
     inkscape:label="Layer 1"
     inkscape:groupmode="layer"
     id="layer1"
     transform="translate(0,-452.36216)">
    <path
       style="opacity:1;fill:#c7e6e0;fill-opacity:1;stroke:none;stroke-width:0.07607;stroke-linejoin:miter;stroke-miterlimit:4;stroke-dasharray:none;stroke-opacity:1"
       d="m 126,1010.3622 14,0 0,42 -14,0 z"
       id="rect4157" />
    <path
       style="opacity:1;fill:#c7e6e0;fill-opacity:1;stroke:none;stroke-width:0.07607;stroke-linejoin:miter;stroke-miterlimit:4;stroke-dasharray:none;stroke-opacity:1"
       d="m 126,961.36218 14,0 0,42.00002 -14,0 z"
       id="rect4159" />
    <path
       style="opacity:1;fill:#c7e6e0;fill-opacity:1;stroke:none;stroke-width:0.07607;stroke-linejoin:miter;stroke-miterlimit:4;stroke-dasharray:none;stroke-opacity:1"
       d="m 305,943.36216 a 25,25 0 0 0 25,-24.9999 l -14,0 a 11,11 0 0 1 -11,10.9999 l 0,14 z"
       id="path4179"
       inkscape:connector-curvature="0" />
    <path
       style="opacity:1;fill:#c7e6e0;fill-opacity:1;stroke:none;stroke-width:0.07607;stroke-linejoin:miter;stroke-miterlimit:4;stroke-dasharray:none;stroke-opacity:1"
       d="m 224,875.36216 a 25,25 0 0 0 25,25 l 0,-14 a 11,11 0 0 1 -11,-11 l -14,0 z"
       id="path4169"
       inkscape:connector-curvature="0" />
    <path
       style="opacity:1;fill:#c7e6e0;fill-opacity:1;stroke:none;stroke-width:0.07607;stroke-linejoin:miter;stroke-miterlimit:4;stroke-dasharray:none;stroke-opacity:1"
       d="m 305.08327,900.36217 a 11,11 0 0 1 11,10.99999 l 14,0 a 25,25 0 0 0 -25,-24.99999 l 0,14 z"
       id="path4176"
       inkscape:connector-curvature="0" />
    <path
       style="opacity:1;fill:#c7e6e0;fill-opacity:1;stroke:none;stroke-width:0.07607;stroke-linejoin:miter;stroke-miterlimit:4;stroke-dasharray:none;stroke-opacity:1"
       d="m 126,954.36216 14,0 a 11,11 0 0 1 11,-11.00004 l 0,-14 a 25,25 0 0 0 -25,25.00004 z"
       id="path4161"
       inkscape:connector-curvature="0" />
    <path
       transform="matrix(0,1,-1,0,0,0)"
       style="opacity:1;fill:#c7e6e0;fill-opacity:1;stroke:none;stroke-width:0.07607;stroke-linejoin:miter;stroke-miterlimit:4;stroke-dasharray:none;stroke-opacity:1"
       d="m 929.36218,-200 14,0 0,42 -14,0 z"
       id="rect4181" />
    <path
       transform="matrix(0,1,-1,0,0,0)"
       style="opacity:1;fill:#c7e6e0;fill-opacity:1;stroke:none;stroke-width:0.07607;stroke-linejoin:miter;stroke-miterlimit:4;stroke-dasharray:none;stroke-opacity:1"
       d="m 929.36218,-249 14,0 0,42 -14,0 z"
       id="rect4183" />
    <path
       transform="matrix(0,1,-1,0,0,0)"
       style="opacity:1;fill:#c7e6e0;fill-opacity:1;stroke:none;stroke-width:0.07607;stroke-linejoin:miter;stroke-miterlimit:4;stroke-dasharray:none;stroke-opacity:1"
       d="m 929.36218,-298 14,0 0,42 -14,0 z"
       id="rect4185" />
    <path
       transform="matrix(0,1,-1,0,0,0)"
       style="opacity:1;fill:#c7e6e0;fill-opacity:1;stroke:none;stroke-width:0.07607;stroke-linejoin:miter;stroke-miterlimit:4;stroke-dasharray:none;stroke-opacity:1"
       d="m 886.36218,-298 14,0 0,42 -14,0 z"
       id="rect4189" />
    <path
       style="opacity:1;fill:#c7e6e0;fill-opacity:1;stroke:none;stroke-width:0.07607;stroke-linejoin:miter;stroke-miterlimit:4;stroke-dasharray:none;stroke-opacity:1"
       d="m 224,826.36218 14,0 0,42 -14,0 z"
       id="rect4191" />
    <path
       inkscape:connector-curvature="0"
       id="path4193"
       d="m 305,943.36216 a 25,25 0 0 0 25,-24.9999 l -14,0 a 11,11 0 0 1 -11,10.9999 l 0,14 z"
       style="opacity:1;fill:#c7e6e0;fill-opacity:1;stroke:none;stroke-width:0.07607;stroke-linejoin:miter;stroke-miterlimit:4;stroke-dasharray:none;stroke-opacity:1" />
    <path
       style="opacity:1;fill:#c7e6e0;fill-opacity:1;stroke:none;stroke-width:0.07607;stroke-linejoin:miter;stroke-miterlimit:4;stroke-dasharray:none;stroke-opacity:1"
       d="m 270,757.36218 14,0 0,42 -14,0 z"
       id="rect4209" />
    <g
       id="g4203"
       transform="matrix(0.99854125,0,0,1,-29.562376,30)"
       style="fill:#c7e6e0;fill-opacity:1;opacity:1;stroke:none;stroke-opacity:1;stroke-width:0;stroke-miterlimit:4;stroke-dasharray:none">
      <path
         style="opacity:1;fill:#c7e6e0;fill-opacity:1;stroke:none;stroke-width:0;stroke-linejoin:miter;stroke-miterlimit:4;stroke-dasharray:none;stroke-opacity:1"
         d="m 332.08327,709.36217 a 11,11 0 0 1 11,10.99999 l 14,0 a 25,25 0 0 0 -25,-24.99999 l 0,14 z"
         id="path4195"
         inkscape:connector-curvature="0" />
      <path
         inkscape:connector-curvature="0"
         id="path4197"
         d="m 332,752.36216 a 25,25 0 0 0 25,-24.9999 l -14,0 a 11,11 0 0 1 -11,10.9999 l 0,14 z"
         style="opacity:1;fill:#c7e6e0;fill-opacity:1;stroke:none;stroke-width:0;stroke-linejoin:miter;stroke-miterlimit:4;stroke-dasharray:none;stroke-opacity:1" />
      <path
         style="opacity:1;fill:#c7e6e0;fill-opacity:1;stroke:none;stroke-width:0;stroke-linejoin:miter;stroke-miterlimit:4;stroke-dasharray:none;stroke-opacity:1"
         d="m 300,727.36216 a 25,25 0 0 0 25,25 l 0,-14 a 11,11 0 0 1 -11,-11 l -14,0 z"
         id="path4199"
         inkscape:connector-curvature="0" />
      <path
         style="opacity:1;fill:#c7e6e0;fill-opacity:1;stroke:none;stroke-width:0;stroke-linejoin:miter;stroke-miterlimit:4;stroke-dasharray:none;stroke-opacity:1"
         d="m 300,720.36216 14,0 a 11,11 0 0 1 11,-11.00004 l 0,-14 a 25,25 0 0 0 -25,25.00004 z"
         id="path4201"
         inkscape:connector-curvature="0" />
    </g>
  </g>
</svg>
