<?xml version="1.0" encoding="UTF-8" standalone="no"?>
<!-- Created with Inkscape (http://www.inkscape.org/) -->

<svg
   xmlns:dc="http://purl.org/dc/elements/1.1/"
   xmlns:cc="http://creativecommons.org/ns#"
   xmlns:rdf="http://www.w3.org/1999/02/22-rdf-syntax-ns#"
   xmlns:svg="http://www.w3.org/2000/svg"
   xmlns="http://www.w3.org/2000/svg"
   xmlns:xlink="http://www.w3.org/1999/xlink"
   xmlns:sodipodi="http://sodipodi.sourceforge.net/DTD/sodipodi-0.dtd"
   xmlns:inkscape="http://www.inkscape.org/namespaces/inkscape"
   width="600"
   height="600"
   viewBox="0 0 600 600.00001"
   id="svg2"
   version="1.1"
   inkscape:version="0.91 r13725"
   sodipodi:docname="splash_screen.svg"
   inkscape:export-filename="/Users/freddy/Desktop/Digital/Avatar/Vector Avatar Test"
   inkscape:export-xdpi="100.58105"
   inkscape:export-ydpi="100.58105">
  <defs
     id="defs4">
    <linearGradient
       inkscape:collect="always"
       id="linearGradient4141">
      <stop
         style="stop-color:#ffffff;stop-opacity:1"
         offset="0"
         id="stop4143" />
      <stop
         style="stop-color:#ffffff;stop-opacity:1"
         offset="1"
         id="stop4145" />
    </linearGradient>
    <radialGradient
       inkscape:collect="always"
       xlink:href="#linearGradient4141"
       id="radialGradient4147"
       cx="298.51015"
       cy="205.33923"
       fx="298.51015"
       fy="205.33923"
       r="300"
       gradientUnits="userSpaceOnUse" />
  </defs>
  <sodipodi:namedview
     id="base"
     pagecolor="#ffffff"
     bordercolor="#666666"
     borderopacity="1.0"
     inkscape:pageopacity="0.0"
     inkscape:pageshadow="2"
     inkscape:zoom="0.98994949"
     inkscape:cx="261.92588"
     inkscape:cy="207.23158"
     inkscape:document-units="px"
     inkscape:current-layer="text4139"
     showgrid="false"
     inkscape:window-width="1440"
     inkscape:window-height="856"
     inkscape:window-x="0"
     inkscape:window-y="0"
     inkscape:window-maximized="0"
     showguides="false"
     units="px"
     fit-margin-top="0"
     fit-margin-left="0"
     fit-margin-right="0"
     fit-margin-bottom="0">
    <sodipodi:guide
       position="510.06127,62.2628"
       orientation="0,1"
       id="guide4155" />
  </sodipodi:namedview>
  <metadata
     id="metadata7">
    <rdf:RDF>
      <cc:Work
         rdf:about="">
        <dc:format>image/svg+xml</dc:format>
        <dc:type
           rdf:resource="http://purl.org/dc/dcmitype/StillImage" />
        <dc:title />
      </cc:Work>
    </rdf:RDF>
  </metadata>
  <g
     inkscape:label="Layer 1"
     inkscape:groupmode="layer"
     id="layer1"
     transform="translate(1.4898473,94.660774)">
    <rect
       style="opacity:1;fill:url(#radialGradient4147);fill-opacity:1;stroke:none;stroke-width:25.28340149;stroke-miterlimit:4;stroke-dasharray:none;stroke-opacity:1"
       id="rect4137"
       width="600"
       height="600"
       x="-1.4898473"
       y="-94.660774"
       rx="0"
       ry="0" />
    <g
       id="g4139"
       transform="matrix(0.39219882,0,0,0.39219882,200.05034,106.56812)">
      <path
         inkscape:connector-curvature="0"
         id="path4137"
         d="m 201.04566,28.139176 -50,86.849614 -50,86.84961 50,0 0,100 100,0 0,-100 50,0 -50,-86.84961 -50,-86.849614 z"
         style="fill:#0ac8ff;fill-opacity:1;stroke-width:5;stroke-miterlimit:4;stroke-dasharray:none" />
      <path
         inkscape:connector-curvature="0"
         id="path4147"
         d="m 251.04566,201.84035 0,100 -50,0 50,86.84961 50,86.84961 50,-86.84961 50,-86.84961 -50,0 0,-100 -100,0 z"
         style="fill:#ff50dc;fill-opacity:1;stroke-width:5;stroke-miterlimit:4;stroke-dasharray:none" />
    </g>
    <rect
       style="fill:none;fill-opacity:1;stroke:none;stroke-width:4.5314889;stroke-miterlimit:4;stroke-dasharray:none;stroke-opacity:1"
       id="rect4159"
       width="503.52451"
       height="503.52451"
       x="0.77589715"
       y="-0.45102814" />
    <g
       style="font-style:normal;font-variant:normal;font-weight:normal;font-stretch:normal;font-size:36.15702438px;line-height:125%;font-family:moderna;-inkscape-font-specification:'moderna, Normal';text-align:start;letter-spacing:0px;word-spacing:0px;writing-mode:lr-tb;text-anchor:start;fill:#5a00ff;fill-opacity:1;stroke:none;stroke-width:1px;stroke-linecap:butt;stroke-linejoin:miter;stroke-opacity:1"
       id="text4139">
      <path
         d="m 172.57637,379.96371 q -3.8688,2.89256 -8.67769,2.89256 -6.11054,0 -10.34091,-4.19421 -4.23037,-4.23037 -4.23037,-10.34091 0,-6.11054 4.23037,-10.34091 4.23037,-4.23037 10.34091,-4.23037 2.49484,0 4.80889,0.83161 l 0,5.35124 q -2.24174,-1.30165 -4.80889,-1.30165 -4.08574,0 -6.90599,2.82024 -2.78409,2.78409 -2.78409,6.86984 0,4.04958 2.82025,6.86983 2.82024,2.78409 6.86983,2.78409 1.98864,0 3.79649,-0.79545 l 0,-8.46074 4.8812,0 0,11.24483 z"
         style=""
         id="path4146" />
      <path
         d="m 198.31791,382.38623 -5.17046,0 -1.04855,-2.82025 q -2.89256,3.39876 -7.37603,3.39876 -4.04959,0 -6.86984,-2.82025 -2.78409,-2.82024 -2.78409,-6.83367 0,-3.07335 1.73554,-5.53203 1.73554,-2.49483 4.6281,-3.54339 1.69938,-0.61467 3.32644,-0.61467 3.07335,0 5.53203,1.7717 2.49483,1.73554 3.54339,4.6281 l 4.48347,12.3657 z m -8.78616,-9.07541 q 0,-2.53099 -2.06095,-3.94112 -1.19318,-0.83161 -2.74793,-0.83161 -2.53099,0 -3.90496,2.02479 -0.86777,1.2655 -0.86777,2.74794 0,2.49483 2.06095,3.90496 1.2655,0.86776 2.71178,0.86776 1.98863,0 3.39876,-1.37396 1.41012,-1.41013 1.41012,-3.39876 z"
         style=""
         id="path4148" />
      <path
         d="m 233.99924,382.38623 -4.88119,0 -0.0362,-9.14773 q 0,-1.98863 -1.41013,-3.3626 -1.37396,-1.41012 -3.3626,-1.41012 -2.67562,0 -4.08574,2.27789 l 0.0361,0.0362 0,11.6064 -4.88119,0 -0.0362,-9.14773 q 0,-1.95248 -1.41012,-3.3626 -1.41013,-1.41012 -3.36261,-1.41012 -1.98863,0 -3.39876,1.41012 -1.41012,1.37397 -1.41012,3.3626 l 0,9.14773 -4.8812,0 0,-9.14773 q 0,-4.04958 2.82025,-6.83367 2.82025,-2.82025 6.86983,-2.82025 4.01343,0 6.86984,2.89256 2.8564,-2.89256 6.86983,-2.89256 4.04959,0 6.86984,2.82025 2.82024,2.78409 2.82024,6.83367 l 0,9.14773 z"
         style=""
         id="path4150" />
      <path
         d="m 255.81549,373.2385 q 0,0.72314 -0.10847,1.44628 l -14.1374,0 q 0.47004,1.5186 1.73554,2.45868 1.26549,0.90393 2.8564,0.90393 2.20558,0 3.65186,-1.69938 l 2.96488,3.94111 q -2.78409,2.63947 -6.61674,2.63947 -4.08574,0 -6.90599,-2.7841 -2.78409,-2.82024 -2.78409,-6.90599 0,-4.04958 2.82025,-6.83367 2.82025,-2.82025 6.86983,-2.82025 4.04959,0 6.83368,2.82025 2.82025,2.78409 2.82025,6.83367 z m -5.45971,-2.20558 q -1.33781,-2.56714 -4.19422,-2.56714 -2.89256,0 -4.23037,2.56714 l 8.42459,0 z m 5.35124,3.61571 0,0 z"
         style=""
         id="path4152" />
      <path
         d="m 293.52614,373.2385 q 0,4.04959 -2.82025,6.86984 -2.78409,2.82025 -6.83368,2.82025 -4.08574,0 -6.90599,-2.7841 -2.78409,-2.82024 -2.78409,-6.90599 l 0,-19.48863 4.8812,0 0,11.1002 q 2.20558,-1.26549 4.80888,-1.26549 4.04959,0 6.83368,2.82025 2.82025,2.78409 2.82025,6.83367 z m -4.8812,0 q 0,-1.95248 -1.41013,-3.3626 -1.41012,-1.41012 -3.3626,-1.41012 -1.98864,0 -3.39876,1.41012 -1.41012,1.37397 -1.41012,3.3626 0,1.98864 1.41012,3.39876 1.41012,1.41013 3.39876,1.41013 1.98864,0 3.3626,-1.41013 1.41013,-1.41012 1.41013,-3.39876 z"
         style=""
         id="path4154" />
      <path
         d="m 315.38362,382.56702 q 0,4.08574 -2.82025,6.86983 -2.78409,2.78409 -6.86983,2.78409 l 0,-4.8812 q 1.98863,0 3.39876,-1.41012 1.41012,-1.37397 1.41012,-3.3626 l 0,-0.86777 q -2.24173,1.26549 -4.80888,1.26549 -4.04959,0 -6.86984,-2.82025 -2.82024,-2.82024 -2.82024,-6.86983 l 0,-9.69008 4.88119,0 0.0362,9.69008 q 0,1.98864 1.37397,3.39876 1.41012,1.41012 3.39876,1.41012 1.98863,0 3.39876,-1.41012 1.41012,-1.41012 1.41012,-3.39876 l 0,-9.69008 4.8812,0 0,18.98244 z"
         style=""
         id="path4156" />
      <path
         d="m 351.28811,382.38623 -4.88119,0 -0.0362,-4.48347 q 0,-2.06095 -1.37397,-3.43492 -1.37397,-1.37396 -3.39876,-1.37396 l -3.07335,0 0,9.29235 -4.88119,0 0,-28.63636 7.9907,0 q 4.08574,0 6.86983,2.82025 2.78409,2.78409 2.78409,6.86983 0,4.33884 -3.25413,7.2314 3.25413,2.89257 3.25413,7.23141 l 0,4.48347 z m -4.88119,-18.94628 q 0.0361,-2.02479 -1.37397,-3.39876 -1.37397,-1.41012 -3.39876,-1.41012 l -3.10951,0 0,9.58161 3.07335,0 q 2.02479,0 3.39876,-1.37397 1.37397,-1.37397 1.41013,-3.39876 z"
         style=""
         id="path4158" />
      <path
         d="m 373.11396,373.2385 q 0,0.72314 -0.10847,1.44628 l -14.1374,0 q 0.47004,1.5186 1.73554,2.45868 1.26549,0.90393 2.8564,0.90393 2.20558,0 3.65186,-1.69938 l 2.96488,3.94111 q -2.78409,2.63947 -6.61674,2.63947 -4.08574,0 -6.90599,-2.7841 -2.78409,-2.82024 -2.78409,-6.90599 0,-4.04958 2.82025,-6.83367 2.82025,-2.82025 6.86983,-2.82025 4.04959,0 6.83368,2.82025 2.82025,2.78409 2.82025,6.83367 z m -5.45971,-2.20558 q -1.33781,-2.56714 -4.19422,-2.56714 -2.89256,0 -4.23037,2.56714 l 8.42459,0 z m 5.35124,3.61571 0,0 z"
         style=""
         id="path4160" />
      <path
         d="m 380.5431,382.38623 -4.8812,0 0,-28.63636 4.8812,0 0,28.63636 z"
         style=""
         id="path4162" />
      <path
         d="m 392.69638,375.19098 -4.80889,0 0,7.19525 -4.8812,0 0,-18.94628 q 0,-4.08574 2.78409,-6.86983 2.82025,-2.82025 6.906,-2.82025 l 0,4.8812 q -1.98864,0 -3.39876,1.41012 -1.41013,1.41012 -1.41013,3.39876 l 0,7.59297 4.80889,0 0,4.15806 z"
         style=""
         id="path4164" />
      <path
         d="m 400.46788,359.46268 q 0,1.22934 -0.83162,2.0971 -0.83161,0.83162 -2.06095,0.83162 -1.22933,0 -2.0971,-0.83162 -0.83161,-0.86776 -0.83161,-2.0971 0,-1.22934 0.83161,-2.06095 0.86777,-0.83161 2.0971,-0.83161 1.19319,0 2.0248,0.86776 0.86777,0.83162 0.86777,2.0248 z m -0.43389,22.92355 -4.8812,0 0,-18.7655 4.8812,0 0,18.7655 z"
         style=""
         id="path4166" />
      <path
         d="m 412.18727,368.46578 q -1.98864,0 -3.39876,1.41012 -1.41013,1.37397 -1.41013,3.3626 l 0,9.14773 -4.8812,0 0,-9.14773 q 0,-4.04958 2.82025,-6.83367 2.82025,-2.82025 6.86984,-2.82025 l 0,4.8812 z"
         style=""
         id="path4168" />
      <path
         d="m 447.6929,382.38623 -4.8812,0 -0.0361,-9.14773 q 0,-1.98863 -1.41013,-3.3626 -1.37397,-1.41012 -3.3626,-1.41012 -2.67562,0 -4.08575,2.27789 l 0.0362,0.0362 0,11.6064 -4.8812,0 -0.0361,-9.14773 q 0,-1.95248 -1.41013,-3.3626 -1.41012,-1.41012 -3.3626,-1.41012 -1.98864,0 -3.39876,1.41012 -1.41013,1.37397 -1.41013,3.3626 l 0,9.14773 -4.88119,0 0,-9.14773 q 0,-4.04958 2.82024,-6.83367 2.82025,-2.82025 6.86984,-2.82025 4.01343,0 6.86983,2.89256 2.85641,-2.89256 6.86984,-2.89256 4.04959,0 6.86983,2.82025 2.82025,2.78409 2.82025,6.83367 l 0,9.14773 z"
         style=""
         id="path4170" />
    </g>
  </g>
</svg>
